<svg id="Layer_2" data-name="Layer 2" xmlns="http://www.w3.org/2000/svg" width="185.268" height="204.283" viewBox="0 0 185.268 204.283">
  <g id="OBJECTS">
    <rect id="Rectangle_102" data-name="Rectangle 102" width="3.324" height="3.324" fill="#0f4c81"/>
    <rect id="Rectangle_103" data-name="Rectangle 103" width="3.324" height="3.324" transform="translate(0 20.091)" fill="#0f4c81"/>
    <rect id="Rectangle_104" data-name="Rectangle 104" width="3.324" height="3.324" transform="translate(0 40.198)" fill="#0f4c81"/>
    <rect id="Rectangle_105" data-name="Rectangle 105" width="3.324" height="3.324" transform="translate(0 60.289)" fill="#0f4c81"/>
    <rect id="Rectangle_106" data-name="Rectangle 106" width="3.324" height="3.324" transform="translate(0 80.38)" fill="#0f4c81"/>
    <rect id="Rectangle_107" data-name="Rectangle 107" width="3.324" height="3.324" transform="translate(0 100.471)" fill="#0f4c81"/>
    <rect id="Rectangle_108" data-name="Rectangle 108" width="3.324" height="3.324" transform="translate(0 120.578)" fill="#0f4c81"/>
    <rect id="Rectangle_109" data-name="Rectangle 109" width="3.324" height="3.324" transform="translate(0 140.669)" fill="#0f4c81"/>
    <rect id="Rectangle_110" data-name="Rectangle 110" width="3.324" height="3.324" transform="translate(0 160.76)" fill="#0f4c81"/>
    <rect id="Rectangle_111" data-name="Rectangle 111" width="3.324" height="3.324" transform="translate(0 180.867)" fill="#0f4c81"/>
    <rect id="Rectangle_112" data-name="Rectangle 112" width="3.324" height="3.324" transform="translate(0 200.958)" fill="#0f4c81"/>
    <rect id="Rectangle_113" data-name="Rectangle 113" width="3.324" height="3.324" transform="translate(18.196)" fill="#0f4c81"/>
    <rect id="Rectangle_114" data-name="Rectangle 114" width="3.324" height="3.324" transform="translate(18.196 20.091)" fill="#0f4c81"/>
    <rect id="Rectangle_115" data-name="Rectangle 115" width="3.324" height="3.324" transform="translate(18.196 40.198)" fill="#0f4c81"/>
    <rect id="Rectangle_116" data-name="Rectangle 116" width="3.324" height="3.324" transform="translate(18.196 60.289)" fill="#0f4c81"/>
    <rect id="Rectangle_117" data-name="Rectangle 117" width="3.324" height="3.324" transform="translate(18.196 80.38)" fill="#0f4c81"/>
    <rect id="Rectangle_118" data-name="Rectangle 118" width="3.324" height="3.324" transform="translate(18.196 100.471)" fill="#0f4c81"/>
    <rect id="Rectangle_119" data-name="Rectangle 119" width="3.324" height="3.324" transform="translate(18.196 120.578)" fill="#0f4c81"/>
    <rect id="Rectangle_120" data-name="Rectangle 120" width="3.324" height="3.324" transform="translate(18.196 140.669)" fill="#0f4c81"/>
    <rect id="Rectangle_121" data-name="Rectangle 121" width="3.324" height="3.324" transform="translate(18.196 160.76)" fill="#0f4c81"/>
    <rect id="Rectangle_122" data-name="Rectangle 122" width="3.324" height="3.324" transform="translate(18.196 180.867)" fill="#0f4c81"/>
    <rect id="Rectangle_123" data-name="Rectangle 123" width="3.324" height="3.324" transform="translate(18.196 200.958)" fill="#0f4c81"/>
    <rect id="Rectangle_124" data-name="Rectangle 124" width="3.324" height="3.324" transform="translate(36.392)" fill="#0f4c81"/>
    <rect id="Rectangle_125" data-name="Rectangle 125" width="3.324" height="3.324" transform="translate(36.392 20.091)" fill="#0f4c81"/>
    <rect id="Rectangle_126" data-name="Rectangle 126" width="3.324" height="3.324" transform="translate(36.392 40.198)" fill="#0f4c81"/>
    <rect id="Rectangle_127" data-name="Rectangle 127" width="3.324" height="3.324" transform="translate(36.392 60.289)" fill="#0f4c81"/>
    <rect id="Rectangle_128" data-name="Rectangle 128" width="3.324" height="3.324" transform="translate(36.392 80.38)" fill="#0f4c81"/>
    <rect id="Rectangle_129" data-name="Rectangle 129" width="3.324" height="3.324" transform="translate(36.392 100.471)" fill="#0f4c81"/>
    <rect id="Rectangle_130" data-name="Rectangle 130" width="3.324" height="3.324" transform="translate(36.392 120.578)" fill="#0f4c81"/>
    <rect id="Rectangle_131" data-name="Rectangle 131" width="3.324" height="3.324" transform="translate(36.392 140.669)" fill="#0f4c81"/>
    <rect id="Rectangle_132" data-name="Rectangle 132" width="3.324" height="3.324" transform="translate(36.392 160.76)" fill="#0f4c81"/>
    <rect id="Rectangle_133" data-name="Rectangle 133" width="3.324" height="3.324" transform="translate(36.392 180.867)" fill="#0f4c81"/>
    <rect id="Rectangle_134" data-name="Rectangle 134" width="3.324" height="3.324" transform="translate(36.392 200.958)" fill="#0f4c81"/>
    <rect id="Rectangle_135" data-name="Rectangle 135" width="3.324" height="3.324" transform="translate(54.588)" fill="#0f4c81"/>
    <rect id="Rectangle_136" data-name="Rectangle 136" width="3.324" height="3.324" transform="translate(54.588 20.091)" fill="#0f4c81"/>
    <rect id="Rectangle_137" data-name="Rectangle 137" width="3.324" height="3.324" transform="translate(54.588 40.198)" fill="#0f4c81"/>
    <rect id="Rectangle_138" data-name="Rectangle 138" width="3.324" height="3.324" transform="translate(54.588 60.289)" fill="#0f4c81"/>
    <rect id="Rectangle_139" data-name="Rectangle 139" width="3.324" height="3.324" transform="translate(54.588 80.38)" fill="#0f4c81"/>
    <rect id="Rectangle_140" data-name="Rectangle 140" width="3.324" height="3.324" transform="translate(54.588 100.471)" fill="#0f4c81"/>
    <rect id="Rectangle_141" data-name="Rectangle 141" width="3.324" height="3.324" transform="translate(54.588 120.578)" fill="#0f4c81"/>
    <rect id="Rectangle_142" data-name="Rectangle 142" width="3.324" height="3.324" transform="translate(54.588 140.669)" fill="#0f4c81"/>
    <rect id="Rectangle_143" data-name="Rectangle 143" width="3.324" height="3.324" transform="translate(54.588 160.76)" fill="#0f4c81"/>
    <rect id="Rectangle_144" data-name="Rectangle 144" width="3.324" height="3.324" transform="translate(54.588 180.867)" fill="#0f4c81"/>
    <rect id="Rectangle_145" data-name="Rectangle 145" width="3.324" height="3.324" transform="translate(54.588 200.958)" fill="#0f4c81"/>
    <rect id="Rectangle_146" data-name="Rectangle 146" width="3.324" height="3.324" transform="translate(72.784)" fill="#0f4c81"/>
    <rect id="Rectangle_147" data-name="Rectangle 147" width="3.324" height="3.324" transform="translate(72.784 20.091)" fill="#0f4c81"/>
    <rect id="Rectangle_148" data-name="Rectangle 148" width="3.324" height="3.324" transform="translate(72.784 40.198)" fill="#0f4c81"/>
    <rect id="Rectangle_149" data-name="Rectangle 149" width="3.324" height="3.324" transform="translate(72.784 60.289)" fill="#0f4c81"/>
    <rect id="Rectangle_150" data-name="Rectangle 150" width="3.324" height="3.324" transform="translate(72.784 80.38)" fill="#0f4c81"/>
    <rect id="Rectangle_151" data-name="Rectangle 151" width="3.324" height="3.324" transform="translate(72.784 100.471)" fill="#0f4c81"/>
    <rect id="Rectangle_152" data-name="Rectangle 152" width="3.324" height="3.324" transform="translate(72.784 120.578)" fill="#0f4c81"/>
    <rect id="Rectangle_153" data-name="Rectangle 153" width="3.324" height="3.324" transform="translate(72.784 140.669)" fill="#0f4c81"/>
    <rect id="Rectangle_154" data-name="Rectangle 154" width="3.324" height="3.324" transform="translate(72.784 160.76)" fill="#0f4c81"/>
    <rect id="Rectangle_155" data-name="Rectangle 155" width="3.324" height="3.324" transform="translate(72.784 180.867)" fill="#0f4c81"/>
    <rect id="Rectangle_156" data-name="Rectangle 156" width="3.324" height="3.324" transform="translate(72.784 200.958)" fill="#0f4c81"/>
    <rect id="Rectangle_157" data-name="Rectangle 157" width="3.324" height="3.324" transform="translate(90.98)" fill="#0f4c81"/>
    <rect id="Rectangle_158" data-name="Rectangle 158" width="3.324" height="3.324" transform="translate(90.98 20.091)" fill="#0f4c81"/>
    <rect id="Rectangle_159" data-name="Rectangle 159" width="3.324" height="3.324" transform="translate(90.98 40.198)" fill="#0f4c81"/>
    <rect id="Rectangle_160" data-name="Rectangle 160" width="3.324" height="3.324" transform="translate(90.98 60.289)" fill="#0f4c81"/>
    <rect id="Rectangle_161" data-name="Rectangle 161" width="3.324" height="3.324" transform="translate(90.98 80.38)" fill="#0f4c81"/>
    <rect id="Rectangle_162" data-name="Rectangle 162" width="3.324" height="3.324" transform="translate(90.98 100.471)" fill="#0f4c81"/>
    <rect id="Rectangle_163" data-name="Rectangle 163" width="3.324" height="3.324" transform="translate(90.98 120.578)" fill="#0f4c81"/>
    <rect id="Rectangle_164" data-name="Rectangle 164" width="3.324" height="3.324" transform="translate(90.98 140.669)" fill="#0f4c81"/>
    <rect id="Rectangle_165" data-name="Rectangle 165" width="3.324" height="3.324" transform="translate(90.98 160.76)" fill="#0f4c81"/>
    <rect id="Rectangle_166" data-name="Rectangle 166" width="3.324" height="3.324" transform="translate(90.98 180.867)" fill="#0f4c81"/>
    <rect id="Rectangle_167" data-name="Rectangle 167" width="3.324" height="3.324" transform="translate(90.98 200.958)" fill="#0f4c81"/>
    <rect id="Rectangle_168" data-name="Rectangle 168" width="3.324" height="3.324" transform="translate(109.176)" fill="#0f4c81"/>
    <rect id="Rectangle_169" data-name="Rectangle 169" width="3.324" height="3.324" transform="translate(109.176 20.091)" fill="#0f4c81"/>
    <rect id="Rectangle_170" data-name="Rectangle 170" width="3.324" height="3.324" transform="translate(109.176 40.198)" fill="#0f4c81"/>
    <rect id="Rectangle_171" data-name="Rectangle 171" width="3.324" height="3.324" transform="translate(109.176 60.289)" fill="#0f4c81"/>
    <rect id="Rectangle_172" data-name="Rectangle 172" width="3.324" height="3.324" transform="translate(109.176 80.38)" fill="#0f4c81"/>
    <rect id="Rectangle_173" data-name="Rectangle 173" width="3.324" height="3.324" transform="translate(109.176 100.471)" fill="#0f4c81"/>
    <rect id="Rectangle_174" data-name="Rectangle 174" width="3.324" height="3.324" transform="translate(109.176 120.578)" fill="#0f4c81"/>
    <rect id="Rectangle_175" data-name="Rectangle 175" width="3.324" height="3.324" transform="translate(109.176 140.669)" fill="#0f4c81"/>
    <rect id="Rectangle_176" data-name="Rectangle 176" width="3.324" height="3.324" transform="translate(109.176 160.76)" fill="#0f4c81"/>
    <rect id="Rectangle_177" data-name="Rectangle 177" width="3.324" height="3.324" transform="translate(109.176 180.867)" fill="#0f4c81"/>
    <rect id="Rectangle_178" data-name="Rectangle 178" width="3.324" height="3.324" transform="translate(109.176 200.958)" fill="#0f4c81"/>
    <rect id="Rectangle_179" data-name="Rectangle 179" width="3.324" height="3.324" transform="translate(127.371)" fill="#0f4c81"/>
    <rect id="Rectangle_180" data-name="Rectangle 180" width="3.324" height="3.324" transform="translate(127.371 20.091)" fill="#0f4c81"/>
    <rect id="Rectangle_181" data-name="Rectangle 181" width="3.324" height="3.324" transform="translate(127.371 40.198)" fill="#0f4c81"/>
    <rect id="Rectangle_182" data-name="Rectangle 182" width="3.324" height="3.324" transform="translate(127.371 60.289)" fill="#0f4c81"/>
    <rect id="Rectangle_183" data-name="Rectangle 183" width="3.324" height="3.324" transform="translate(127.371 80.38)" fill="#0f4c81"/>
    <rect id="Rectangle_184" data-name="Rectangle 184" width="3.324" height="3.324" transform="translate(127.371 100.471)" fill="#0f4c81"/>
    <rect id="Rectangle_185" data-name="Rectangle 185" width="3.324" height="3.324" transform="translate(127.371 120.578)" fill="#0f4c81"/>
    <rect id="Rectangle_186" data-name="Rectangle 186" width="3.324" height="3.324" transform="translate(127.371 140.669)" fill="#0f4c81"/>
    <rect id="Rectangle_187" data-name="Rectangle 187" width="3.324" height="3.324" transform="translate(127.371 160.76)" fill="#0f4c81"/>
    <rect id="Rectangle_188" data-name="Rectangle 188" width="3.324" height="3.324" transform="translate(127.371 180.867)" fill="#0f4c81"/>
    <rect id="Rectangle_189" data-name="Rectangle 189" width="3.324" height="3.324" transform="translate(127.371 200.958)" fill="#0f4c81"/>
    <rect id="Rectangle_190" data-name="Rectangle 190" width="3.324" height="3.324" transform="translate(145.551)" fill="#0f4c81"/>
    <rect id="Rectangle_191" data-name="Rectangle 191" width="3.324" height="3.324" transform="translate(145.551 20.091)" fill="#0f4c81"/>
    <rect id="Rectangle_192" data-name="Rectangle 192" width="3.324" height="3.324" transform="translate(145.551 40.198)" fill="#0f4c81"/>
    <rect id="Rectangle_193" data-name="Rectangle 193" width="3.324" height="3.324" transform="translate(145.551 60.289)" fill="#0f4c81"/>
    <rect id="Rectangle_194" data-name="Rectangle 194" width="3.324" height="3.324" transform="translate(145.551 80.38)" fill="#0f4c81"/>
    <rect id="Rectangle_195" data-name="Rectangle 195" width="3.324" height="3.324" transform="translate(145.551 100.471)" fill="#0f4c81"/>
    <rect id="Rectangle_196" data-name="Rectangle 196" width="3.324" height="3.324" transform="translate(145.551 120.578)" fill="#0f4c81"/>
    <rect id="Rectangle_197" data-name="Rectangle 197" width="3.324" height="3.324" transform="translate(145.551 140.669)" fill="#0f4c81"/>
    <rect id="Rectangle_198" data-name="Rectangle 198" width="3.324" height="3.324" transform="translate(145.551 160.76)" fill="#0f4c81"/>
    <rect id="Rectangle_199" data-name="Rectangle 199" width="3.324" height="3.324" transform="translate(145.551 180.867)" fill="#0f4c81"/>
    <rect id="Rectangle_200" data-name="Rectangle 200" width="3.324" height="3.324" transform="translate(145.551 200.958)" fill="#0f4c81"/>
    <rect id="Rectangle_201" data-name="Rectangle 201" width="3.324" height="3.324" transform="translate(163.747)" fill="#0f4c81"/>
    <rect id="Rectangle_202" data-name="Rectangle 202" width="3.324" height="3.324" transform="translate(163.747 20.091)" fill="#0f4c81"/>
    <rect id="Rectangle_203" data-name="Rectangle 203" width="3.324" height="3.324" transform="translate(163.747 40.198)" fill="#0f4c81"/>
    <rect id="Rectangle_204" data-name="Rectangle 204" width="3.324" height="3.324" transform="translate(163.747 60.289)" fill="#0f4c81"/>
    <rect id="Rectangle_205" data-name="Rectangle 205" width="3.324" height="3.324" transform="translate(163.747 80.38)" fill="#0f4c81"/>
    <rect id="Rectangle_206" data-name="Rectangle 206" width="3.324" height="3.324" transform="translate(163.747 100.471)" fill="#0f4c81"/>
    <rect id="Rectangle_207" data-name="Rectangle 207" width="3.324" height="3.324" transform="translate(163.747 120.578)" fill="#0f4c81"/>
    <rect id="Rectangle_208" data-name="Rectangle 208" width="3.324" height="3.324" transform="translate(163.747 140.669)" fill="#0f4c81"/>
    <rect id="Rectangle_209" data-name="Rectangle 209" width="3.324" height="3.324" transform="translate(163.747 160.76)" fill="#0f4c81"/>
    <rect id="Rectangle_210" data-name="Rectangle 210" width="3.324" height="3.324" transform="translate(163.747 180.867)" fill="#0f4c81"/>
    <rect id="Rectangle_211" data-name="Rectangle 211" width="3.324" height="3.324" transform="translate(163.747 200.958)" fill="#0f4c81"/>
    <rect id="Rectangle_212" data-name="Rectangle 212" width="3.324" height="3.324" transform="translate(181.943)" fill="#0f4c81"/>
    <rect id="Rectangle_213" data-name="Rectangle 213" width="3.324" height="3.324" transform="translate(181.943 20.091)" fill="#0f4c81"/>
    <rect id="Rectangle_214" data-name="Rectangle 214" width="3.324" height="3.324" transform="translate(181.943 40.198)" fill="#0f4c81"/>
    <rect id="Rectangle_215" data-name="Rectangle 215" width="3.324" height="3.324" transform="translate(181.943 60.289)" fill="#0f4c81"/>
    <rect id="Rectangle_216" data-name="Rectangle 216" width="3.324" height="3.324" transform="translate(181.943 80.38)" fill="#0f4c81"/>
    <rect id="Rectangle_217" data-name="Rectangle 217" width="3.324" height="3.324" transform="translate(181.943 100.471)" fill="#0f4c81"/>
    <rect id="Rectangle_218" data-name="Rectangle 218" width="3.324" height="3.324" transform="translate(181.943 120.578)" fill="#0f4c81"/>
    <rect id="Rectangle_219" data-name="Rectangle 219" width="3.324" height="3.324" transform="translate(181.943 140.669)" fill="#0f4c81"/>
    <rect id="Rectangle_220" data-name="Rectangle 220" width="3.324" height="3.324" transform="translate(181.943 160.76)" fill="#0f4c81"/>
    <rect id="Rectangle_221" data-name="Rectangle 221" width="3.324" height="3.324" transform="translate(181.943 180.867)" fill="#0f4c81"/>
    <rect id="Rectangle_222" data-name="Rectangle 222" width="3.324" height="3.324" transform="translate(181.943 200.958)" fill="#0f4c81"/>
  </g>
</svg>
