<svg xmlns="http://www.w3.org/2000/svg" width="115" height="117.474" viewBox="0 0 115 117.474">
  <g id="iconfinder_Management_3448012" transform="translate(-39.414 -34.754)">
    <path id="Path_958" data-name="Path 958" d="M129.978,264.709a19.131,19.131,0,1,0,15.867,8.435,1.8,1.8,0,1,0-2.981,2.014,15.54,15.54,0,1,1-12.886-6.852,1.8,1.8,0,0,0,0-3.6Z" transform="translate(-52.465 -168.906)" fill="#0f4c81"/>
    <path id="Path_959" data-name="Path 959" d="M110.759,245.6l-4.7-4.7a1.5,1.5,0,0,1-.306-1.634c0-.01.027-.062.031-.072a1.513,1.513,0,0,1,1.381-.964h6.651a1.8,1.8,0,0,0,1.8-1.8V218.59a1.8,1.8,0,0,0-1.8-1.8h-6.651a1.534,1.534,0,0,1-1.4-1.008,1.516,1.516,0,0,1,.293-1.664l4.7-4.7a1.8,1.8,0,0,0,0-2.543L98.147,194.261A1.8,1.8,0,0,0,95.6,196.8l11.341,11.34-3.431,3.431a5.2,5.2,0,0,0,3.65,8.812h4.853v14.239h-4.853a5.085,5.085,0,0,0-4.691,3.154l-.029.07a5.1,5.1,0,0,0,1.071,5.588l3.431,3.432L96.875,256.939l-3.431-3.432a5.2,5.2,0,0,0-8.812,3.65v4.853H70.393v-4.853a5.2,5.2,0,0,0-8.812-3.65l-3.431,3.432L48.081,246.87l3.431-3.432a5.2,5.2,0,0,0-3.65-8.811H43.011V220.388h4.853a5.2,5.2,0,0,0,3.65-8.812l-3.431-3.431L58.15,198.076l3.431,3.431a5.2,5.2,0,0,0,8.812-3.649v-4.853H84.632v4.853a5.1,5.1,0,0,0,3.185,4.7c.648.269,1.3.568,1.926.888a1.8,1.8,0,0,0,1.633-3.2c-.713-.363-1.447-.7-2.183-1.007a1.513,1.513,0,0,1-.964-1.381v-6.651a1.8,1.8,0,0,0-1.8-1.8H68.595a1.8,1.8,0,0,0-1.8,1.8v6.651a1.533,1.533,0,0,1-1.009,1.4,1.513,1.513,0,0,1-1.663-.293l-4.7-4.7a1.8,1.8,0,0,0-2.544,0L44.266,206.873a1.8,1.8,0,0,0,0,2.544l4.7,4.7a1.51,1.51,0,0,1,.3,1.65l-.024.058a1.513,1.513,0,0,1-1.381.965H41.212a1.8,1.8,0,0,0-1.8,1.8v17.836a1.8,1.8,0,0,0,1.8,1.8h6.651a1.534,1.534,0,0,1,1.4,1.008,1.515,1.515,0,0,1-.294,1.663l-4.7,4.7a1.8,1.8,0,0,0,0,2.544l12.612,12.612a1.8,1.8,0,0,0,2.544,0l4.7-4.7a1.509,1.509,0,0,1,1.649-.3l.058.024a1.513,1.513,0,0,1,.965,1.381v6.651a1.8,1.8,0,0,0,1.8,1.8H86.431a1.8,1.8,0,0,0,1.8-1.8v-6.651a1.505,1.505,0,0,1,.944-1.374l.065-.027a1.515,1.515,0,0,1,1.663.293l4.7,4.7a1.8,1.8,0,0,0,2.544,0l12.612-12.612A1.8,1.8,0,0,0,110.759,245.6Z" transform="translate(0 -113.596)" fill="#0f4c81"/>
    <path id="Path_960" data-name="Path 960" d="M377.926,280.467a11.58,11.58,0,1,0,11.58-11.58A11.593,11.593,0,0,0,377.926,280.467Zm19.563,0a7.983,7.983,0,1,1-7.983-7.983A7.992,7.992,0,0,1,397.489,280.467Z" transform="translate(-248.643 -171.975)" fill="#0f4c81"/>
    <path id="Path_961" data-name="Path 961" d="M330.252,388.856a1.8,1.8,0,0,0,1.8-1.8v-4.5a13.551,13.551,0,0,0-27.1,0v11.58H283.053a1.8,1.8,0,1,0,0,3.6H306.66c.029,0,.057.009.087.009h23.5a1.8,1.8,0,1,0,0-3.6H308.545V382.554a9.954,9.954,0,1,1,19.908,0v4.5A1.8,1.8,0,0,0,330.252,388.856Z" transform="translate(-177.636 -245.512)" fill="#0f4c81"/>
    <path id="Path_962" data-name="Path 962" d="M88.633,86.578a1.8,1.8,0,0,0,1.8-1.8V54.539h11.929a1.8,1.8,0,0,0,0-3.6H88.633a1.8,1.8,0,0,0-1.8,1.8V84.779A1.8,1.8,0,0,0,88.633,86.578Z" transform="translate(-34.832 -11.89)" fill="#0f4c81"/>
    <path id="Path_963" data-name="Path 963" d="M370.468,54.539h12.194V98.061a1.8,1.8,0,1,0,3.6,0V52.74a1.8,1.8,0,0,0-1.8-1.8H370.468a1.8,1.8,0,0,0,0,3.6Z" transform="translate(-241.844 -11.89)" fill="#0f4c81"/>
    <path id="Path_964" data-name="Path 964" d="M180.4,50.394h40.089a1.8,1.8,0,0,0,1.8-1.8V36.552a1.8,1.8,0,0,0-1.8-1.8H180.4a1.8,1.8,0,0,0-1.8,1.8V48.6A1.8,1.8,0,0,0,180.4,50.394Zm1.8-12.043h36.492V46.8H182.2Z" transform="translate(-102.238)" fill="#0f4c81"/>
    <path id="Path_965" data-name="Path 965" d="M177.946,292.964a1.8,1.8,0,0,0-1.8,1.8V304.6a1.8,1.8,0,0,0,1.8,1.8h6.561a1.8,1.8,0,1,0,0-3.6h-4.762v-8.037A1.8,1.8,0,0,0,177.946,292.964Z" transform="translate(-100.433 -189.66)" fill="#0f4c81"/>
    <path id="Path_966" data-name="Path 966" d="M163.676,137.026h40.6a1.8,1.8,0,0,0,0-3.6h-40.6a1.8,1.8,0,1,0,0,3.6Z" transform="translate(-89.952 -72.479)" fill="#20b0e0"/>
    <path id="Path_967" data-name="Path 967" d="M293.8,188.1h-8.247a1.8,1.8,0,1,0,0,3.6H293.8a1.8,1.8,0,0,0,0-3.6Z" transform="translate(-179.473 -112.636)" fill="#20b0e0"/>
    <path id="Path_968" data-name="Path 968" d="M353.165,132a1.8,1.8,0,0,0,2.543,0L360.8,126.9a1.8,1.8,0,1,0-2.543-2.543l-3.823,3.823-1.515-1.515a1.8,1.8,0,0,0-2.543,2.544Z" transform="translate(-228.022 -65.43)" fill="#20b0e0"/>
    <path id="Path_969" data-name="Path 969" d="M353.165,186.671a1.8,1.8,0,0,0,2.543,0l5.095-5.095a1.8,1.8,0,1,0-2.543-2.543l-3.823,3.823-1.515-1.515a1.8,1.8,0,0,0-2.543,2.543Z" transform="translate(-228.022 -105.588)" fill="#20b0e0"/>
  </g>
</svg>
