<svg xmlns="http://www.w3.org/2000/svg" width="100.917" height="75.195" viewBox="0 0 100.917 75.195">
  <g id="Connecting_teams-rafiki" data-name="Connecting teams-rafiki" transform="translate(0 -55)">
    <g id="freepik--background-complete--inject-52" transform="translate(0 55)">
      <rect id="Rectangle_64" data-name="Rectangle 64" width="100.917" height="0.05" transform="translate(0 66.08)" fill="#ebebeb"/>
      <rect id="Rectangle_65" data-name="Rectangle 65" width="6.685" height="0.05" transform="translate(10.588 68.002)" fill="#ebebeb"/>
      <rect id="Rectangle_66" data-name="Rectangle 66" width="11.186" height="0.05" transform="translate(34.542 67.455)" fill="#ebebeb"/>
      <rect id="Rectangle_67" data-name="Rectangle 67" width="3.873" height="0.05" transform="translate(18.367 69.2)" fill="#ebebeb"/>
      <rect id="Rectangle_68" data-name="Rectangle 68" width="8.717" height="0.05" transform="translate(77.799 67.977)" fill="#ebebeb"/>
      <rect id="Rectangle_69" data-name="Rectangle 69" width="1.278" height="0.05" transform="translate(88.314 67.977)" fill="#ebebeb"/>
      <rect id="Rectangle_70" data-name="Rectangle 70" width="9.454" height="0.05" transform="translate(55.95 68.686)" fill="#ebebeb"/>
      <path id="Path_996" data-name="Path 996" d="M78.332,112.078H39.36a1.152,1.152,0,0,1-1.15-1.152V56.142A1.152,1.152,0,0,1,39.36,55H78.332a1.152,1.152,0,0,1,1.152,1.152v54.773A1.152,1.152,0,0,1,78.332,112.078ZM39.36,55.04a1.1,1.1,0,0,0-1.1,1.1v54.784a1.1,1.1,0,0,0,1.1,1.1H78.332a1.1,1.1,0,0,0,1.1-1.1V56.142a1.1,1.1,0,0,0-1.1-1.1Z" transform="translate(-30.498 -55)" fill="#ebebeb"/>
      <path id="Path_997" data-name="Path 997" d="M294.626,112.078H255.652a1.155,1.155,0,0,1-1.152-1.152V56.142A1.155,1.155,0,0,1,255.652,55h38.974a1.153,1.153,0,0,1,1.148,1.142v54.784A1.153,1.153,0,0,1,294.626,112.078ZM255.652,55.04a1.1,1.1,0,0,0-1.1,1.1v54.784a1.1,1.1,0,0,0,1.1,1.1h38.974a1.1,1.1,0,0,0,1.1-1.1V56.142a1.1,1.1,0,0,0-1.1-1.1Z" transform="translate(-203.133 -55)" fill="#ebebeb"/>
      <rect id="Rectangle_71" data-name="Rectangle 71" width="4.037" height="26.975" transform="translate(83.747 39.127)" fill="#e6e6e6"/>
      <path id="Path_998" data-name="Path 998" d="M425.262,367.983h1.062V364.31H424.15Z" transform="translate(-338.543 -301.881)" fill="#f0f0f0"/>
      <rect id="Rectangle_72" data-name="Rectangle 72" width="4.037" height="26.975" transform="translate(46.535 39.127)" fill="#e6e6e6"/>
      <rect id="Rectangle_73" data-name="Rectangle 73" width="38.138" height="24.721" transform="translate(49.643 39.127)" fill="#f0f0f0"/>
      <path id="Path_999" data-name="Path 999" d="M286.233,260.771H249.54V253.79h36.693Zm-36.491-.2h36.29v-6.578h-36.29Z" transform="translate(-199.175 -213.668)" fill="#e6e6e6"/>
      <path id="Path_1000" data-name="Path 1000" d="M297.31,255.583H274.249c-1.035,0-2.018-.838-2.739-2.313h28.537C299.335,254.745,298.346,255.583,297.31,255.583Z" transform="translate(-216.71 -213.253)" fill="#e6e6e6"/>
      <path id="Path_1001" data-name="Path 1001" d="M247.022,367.983H245.96V364.31h2.174Z" transform="translate(-196.317 -301.881)" fill="#f0f0f0"/>
      <path id="Path_1002" data-name="Path 1002" d="M286.233,299.791H249.54V292.81h36.693Zm-36.491-.2h36.29v-6.578h-36.29Z" transform="translate(-199.175 -244.812)" fill="#e6e6e6"/>
      <path id="Path_1003" data-name="Path 1003" d="M297.31,294.6H274.249c-1.035,0-2.018-.838-2.739-2.313h28.537C299.335,293.765,298.346,294.6,297.31,294.6Z" transform="translate(-216.71 -244.397)" fill="#e6e6e6"/>
      <path id="Path_1004" data-name="Path 1004" d="M286.233,338.8H249.54V331.82h36.693Zm-36.491-.2h36.29v-6.578h-36.29Z" transform="translate(-199.175 -275.949)" fill="#e6e6e6"/>
      <path id="Path_1005" data-name="Path 1005" d="M297.31,333.613H274.249c-1.035,0-2.018-.836-2.739-2.313h28.537C299.335,332.777,298.346,333.613,297.31,333.613Z" transform="translate(-216.71 -275.534)" fill="#e6e6e6"/>
      <path id="Path_1006" data-name="Path 1006" d="M137.941,217.18l3.229,2.733c-.163,19.816.565,20.89.581,24.3h-3.694C137.545,227.625,136.094,221.437,137.941,217.18Z" transform="translate(-109.373 -184.447)" fill="#e0e0e0"/>
      <path id="Path_1007" data-name="Path 1007" d="M102.732,351.506h0c-5.2,0-9.583-2.109-10.649-4.961a9.429,9.429,0,0,0-1.11-2.22l-.083-.115h23.683l-.081.115a9.428,9.428,0,0,0-1.11,2.22C112.307,349.4,107.931,351.506,102.732,351.506Z" transform="translate(-72.545 -285.838)" fill="#e6e6e6"/>
      <path id="Path_1008" data-name="Path 1008" d="M108.653,336.274H84.873a1.451,1.451,0,0,1-1.413-1.088h0a1.447,1.447,0,0,1,1.413-1.816h23.78a1.447,1.447,0,0,1,1.4,1.816h0A1.447,1.447,0,0,1,108.653,336.274Z" transform="translate(-66.577 -277.186)" fill="#f5f5f5"/>
      <path id="Path_1009" data-name="Path 1009" d="M150.115,236.215c.482-5.167,3.552-5.339,11.032-.394C158.049,248.216,148.3,255.643,150.115,236.215Z" transform="translate(-119.639 -196.453)" fill="#e0e0e0"/>
      <path id="Path_1010" data-name="Path 1010" d="M145.038,178.672c-.88-4.475,3.49-10.622,11.026-8.32C156.558,182.166,148.35,195.533,145.038,178.672Z" transform="translate(-115.675 -146.671)" fill="#e0e0e0"/>
      <path id="Path_1011" data-name="Path 1011" d="M110.032,154.285c1.116-5.6-5.746-15.206-12.705-13.949C92.172,148.621,104.843,180.3,110.032,154.285Z" transform="translate(-76.718 -123.023)" fill="#e0e0e0"/>
      <path id="Path_1012" data-name="Path 1012" d="M89.666,224.888c-2.6-7.809-10.526-10.047-15.6-1.183C81.863,238.013,95.926,243.707,89.666,224.888Z" transform="translate(-59.12 -185.084)" fill="#e0e0e0"/>
      <rect id="Rectangle_74" data-name="Rectangle 74" width="30.41" height="27.247" transform="translate(56.739 34.606) rotate(-90)" fill="#ebebeb"/>
      <rect id="Rectangle_75" data-name="Rectangle 75" width="30.41" height="0.246" transform="translate(56.491 34.606) rotate(-90)" fill="#e0e0e0"/>
      <rect id="Rectangle_76" data-name="Rectangle 76" width="23.211" height="26.374" transform="translate(58.756 6.214)" fill="#f5f5f5"/>
      <rect id="Rectangle_77" data-name="Rectangle 77" width="6.537" height="9.149" transform="translate(60.677 5.474)" fill="#fff"/>
      <path id="Path_1013" data-name="Path 1013" d="M344.056,82.13H337.52l-.47,9.149h6.535Z" transform="translate(-269.022 -76.654)" fill="#fff"/>
      <path id="Path_1014" data-name="Path 1014" d="M304.748,134.08H298.21l-.47,9.151h6.537Z" transform="translate(-237.646 -118.119)" fill="#fff"/>
      <rect id="Rectangle_78" data-name="Rectangle 78" width="6.535" height="9.149" transform="translate(76.142 5.334) rotate(2.51)" fill="#fff"/>
      <rect id="Rectangle_79" data-name="Rectangle 79" width="6.535" height="9.149" transform="translate(69.164 18.061) rotate(-1.66)" fill="#fff"/>
      <path id="Path_1015" data-name="Path 1015" d="M53.632,83.408h31.46a.64.64,0,0,0,.64-.64h0a.638.638,0,0,0-.64-.638H53.632a.638.638,0,0,0-.632.638h0a.64.64,0,0,0,.632.64Z" transform="translate(-42.303 -76.654)" fill="#e0e0e0"/>
      <path id="Path_1016" data-name="Path 1016" d="M53.632,96.82h31.46a.64.64,0,0,0,.64-.64h0a.64.64,0,0,0-.64-.64H53.632a.64.64,0,0,0-.632.64h0a.64.64,0,0,0,.632.64Z" transform="translate(-42.303 -87.358)" fill="#e0e0e0"/>
      <rect id="Rectangle_80" data-name="Rectangle 80" width="32.741" height="1.278" rx="0.639" transform="translate(10.689 10.891)" fill="#e0e0e0"/>
      <path id="Path_1017" data-name="Path 1017" d="M66.38,83.408H97.844a.638.638,0,0,0,.646-.64h0a.636.636,0,0,0-.638-.638H66.38a.638.638,0,0,0-.64.638h0A.64.64,0,0,0,66.38,83.408Z" transform="translate(-52.472 -76.654)" fill="#f5f5f5"/>
      <path id="Path_1018" data-name="Path 1018" d="M66.38,96.82H97.844a.638.638,0,0,0,.646-.64h0a.638.638,0,0,0-.638-.64H66.38a.64.64,0,0,0-.64.64h0A.64.64,0,0,0,66.38,96.82Z" transform="translate(-52.472 -87.358)" fill="#f5f5f5"/>
      <rect id="Rectangle_81" data-name="Rectangle 81" width="32.741" height="1.278" rx="0.639" transform="translate(13.269 10.891)" fill="#f5f5f5"/>
    </g>
    <g id="freepik--Shadow--inject-52" transform="translate(11.325 125.625)">
      <ellipse id="freepik--path--inject-52" cx="39.133" cy="2.285" rx="39.133" ry="2.285" fill="#f5f5f5"/>
    </g>
    <g id="freepik--character-3--inject-52" transform="translate(62.968 65.76)">
      <path id="Path_1019" data-name="Path 1019" d="M387,120.709a1.622,1.622,0,0,1-.951-1.58c-.069-1.211,1.241-1.28,1.875-.991S388.207,120.041,387,120.709Z" transform="translate(-371.098 -116.041)" fill="#263238"/>
      <path id="Path_1020" data-name="Path 1020" d="M428.477,379.433l-1.508.511-1.409-3.463,1.506-.511Z" transform="translate(-402.636 -321.948)" fill="#ffc3bd"/>
      <path id="Path_1021" data-name="Path 1021" d="M423.292,392.6l1.835-.622a.121.121,0,0,1,.153.063l.626,1.3a.264.264,0,0,1-.155.355c-.593.19-1.033.3-1.776.553-.458.155-1.372.488-2,.7s-.868-.4-.624-.559a4.292,4.292,0,0,0,1.724-1.615A.422.422,0,0,1,423.292,392.6Z" transform="translate(-399.197 -334.719)" fill="#263238"/>
      <path id="Path_1022" data-name="Path 1022" d="M427.066,375.97l-1.506.511.727,1.786,1.508-.511Z" transform="translate(-402.636 -321.948)" opacity="0.2"/>
      <path id="Path_1023" data-name="Path 1023" d="M386.566,160.33h1.211c-.4.343-.367,9.571-.026,14a15,15,0,0,1-2.739-.276A57.859,57.859,0,0,1,386.566,160.33Z" transform="translate(-370.268 -149.831)" fill="#407bff"/>
      <path id="Path_1024" data-name="Path 1024" d="M386.566,160.33h1.211c-.4.343-.367,9.571-.026,14a15,15,0,0,1-2.739-.276A57.859,57.859,0,0,1,386.566,160.33Z" transform="translate(-370.268 -149.831)" opacity="0.4"/>
      <path id="Path_1025" data-name="Path 1025" d="M382.253,393.47h-1.6l-.24-3.71h1.6Z" transform="translate(-366.599 -332.955)" fill="#ffc3bd"/>
      <path id="Path_1026" data-name="Path 1026" d="M382.011,389.77h-1.6l.125,1.911h1.6Z" transform="translate(-366.599 -332.963)" opacity="0.2"/>
      <path id="Path_1027" data-name="Path 1027" d="M369.365,260.352l2.858-.024s-.48-10.441-.178-15.412a42.662,42.662,0,0,1,.5-5.867c.541-2.844,1.233-5.922,1.8-8.33a11.688,11.688,0,0,0,.287-4.335l-5.629-.333s-1.455,13.321-1.457,18.2C367.546,249.34,369.365,260.352,369.365,260.352Z" transform="translate(-356.334 -202.287)" fill="#263238"/>
      <path id="Path_1028" data-name="Path 1028" d="M367.3,407.22h1.952a.123.123,0,0,1,.127.109l.182,1.423a.262.262,0,0,1-.262.285c-.628-.01-1.082-.046-1.873-.046-.486,0-2.244.05-2.917.05s-.7-.664-.416-.725a9.014,9.014,0,0,0,2.939-1A.416.416,0,0,1,367.3,407.22Z" transform="translate(-353.439 -346.89)" fill="#263238"/>
      <path id="Path_1029" data-name="Path 1029" d="M374.644,393.378h3.677l-.022-1.031-3.849-.067Z" transform="translate(-361.842 -334.966)" fill="#407bff"/>
      <path id="Path_1030" data-name="Path 1030" d="M376.443,406.993a.45.45,0,0,1-.3-.081.2.2,0,0,1-.061-.2.133.133,0,0,1,.075-.107c.186-.093.672.226.729.262a.034.034,0,0,1,.012.038.047.047,0,0,1-.03.03A2.017,2.017,0,0,1,376.443,406.993Zm-.2-.331a.124.124,0,0,0-.05.01.057.057,0,0,0-.028.044.147.147,0,0,0,.038.137.753.753,0,0,0,.567.03,1.4,1.4,0,0,0-.531-.214Z" transform="translate(-363.14 -346.385)" fill="#407bff"/>
      <path id="Path_1031" data-name="Path 1031" d="M378.355,405.483a.022.022,0,0,1-.016,0c-.157-.089-.446-.44-.394-.62a.139.139,0,0,1,.129-.1.2.2,0,0,1,.157.048c.172.153.166.605.166.634a.038.038,0,0,1-.02.034A.034.034,0,0,1,378.355,405.483Zm-.26-.65h-.018c-.05,0-.057.03-.059.038-.03.107.149.371.3.5a.84.84,0,0,0-.141-.5.119.119,0,0,0-.093-.032Z" transform="translate(-364.626 -344.929)" fill="#407bff"/>
      <path id="Path_1032" data-name="Path 1032" d="M391.675,252.585c.541-2.844,1.233-5.922,1.8-8.33L392.856,243C391.518,244.675,391.314,249.8,391.675,252.585Z" transform="translate(-375.464 -215.816)" opacity="0.2"/>
      <path id="Path_1033" data-name="Path 1033" d="M389.82,227s1.843,13.7,2.672,18.339c.91,5.076,4.408,13.926,4.408,13.926l2.759-.936a118.616,118.616,0,0,1-2.937-12.312c-.87-5.651-1.379-18.694-1.379-18.694Z" transform="translate(-374.109 -203.045)" fill="#263238"/>
      <path id="Path_1034" data-name="Path 1034" d="M421.293,379.182l3.459-1.173-.351-.979-3.641,1.165Z" transform="translate(-398.805 -322.794)" fill="#407bff"/>
      <path id="Path_1035" data-name="Path 1035" d="M427.5,395.928a.438.438,0,0,1-.309.018.2.2,0,0,1-.121-.172.141.141,0,0,1,.036-.127c.145-.145.7,0,.769.02a.03.03,0,0,1,.024.032.04.04,0,0,1-.02.038A1.8,1.8,0,0,1,427.5,395.928Zm-.3-.25a.1.1,0,0,0-.044.026.052.052,0,0,0-.012.05.143.143,0,0,0,.081.119c.1.044.3-.012.541-.153A1.393,1.393,0,0,0,427.2,395.678Z" transform="translate(-403.837 -337.603)" fill="#407bff"/>
      <path id="Path_1036" data-name="Path 1036" d="M428.767,393.915h-.01c-.176-.036-.557-.281-.567-.466a.141.141,0,0,1,.091-.137.2.2,0,0,1,.163,0c.2.091.351.535.357.553a.043.043,0,0,1,0,.04A.03.03,0,0,1,428.767,393.915Zm-.452-.537H428.3c-.044.022-.044.046-.044.056,0,.109.258.307.442.377-.048-.127-.157-.377-.293-.434A.115.115,0,0,0,428.315,393.378Z" transform="translate(-404.735 -335.775)" fill="#407bff"/>
      <path id="Path_1037" data-name="Path 1037" d="M335.817,163.7c-.71.9-1.441,1.746-2.22,2.577a30.207,30.207,0,0,1-2.485,2.378c-.23.186-.454.373-.7.551a4.178,4.178,0,0,1-.935.557,4.055,4.055,0,0,1-2.15.218,6.221,6.221,0,0,1-1.816-.589A7.041,7.041,0,0,1,324,168.4l.658-1.009a7.906,7.906,0,0,0,2.846.676,2.186,2.186,0,0,0,1.094-.256,2.927,2.927,0,0,0,.45-.347c.192-.159.379-.341.567-.515.377-.361.751-.733,1.114-1.126s.729-.785,1.086-1.189c.712-.807,1.427-1.637,2.105-2.454Z" transform="translate(-321.574 -151.308)" fill="#ffc3bd"/>
      <path id="Path_1038" data-name="Path 1038" d="M363.771,161.2a17.21,17.21,0,0,1-2.077,2l-.535-.5-1.909-1.77a9.256,9.256,0,0,1,2.1-2.658c1.5-1.338,3.282-.912,3.486.759A3.4,3.4,0,0,1,363.771,161.2Z" transform="translate(-349.709 -147.56)" fill="#407bff"/>
      <path id="Path_1039" data-name="Path 1039" d="M371.322,173.927a17.212,17.212,0,0,1-2.077,2l-.535-.5C369.215,174.379,370.989,172.532,371.322,173.927Z" transform="translate(-357.26 -160.283)" opacity="0.2"/>
      <path id="Path_1040" data-name="Path 1040" d="M370.738,172.626a4.537,4.537,0,0,0,2.91.224c-.067-1.5-.044-9.956,1.449-15.864h.884c-.4.329-1.635,11.379-1.231,15.977,1.693.353,5.022.083,5.546-.436-.067-.723-.432-4.331-.381-6.85.022-1.074.071-2.259.182-3.5a35.443,35.443,0,0,1,.844-5.278s-1.009-.268-2.166-.442c-.228-.034-.46-.065-.688-.089a31.755,31.755,0,0,0-3.633-.216c-.149,0-.3.012-.44.022a16.673,16.673,0,0,0-2.034.274A46.17,46.17,0,0,0,370.738,172.626Z" transform="translate(-358.697 -146.495)" fill="#407bff"/>
      <path id="Path_1041" data-name="Path 1041" d="M415.078,172.26a4.971,4.971,0,0,0,.2,3.881c.024.034.05.067.075.095q.036-.587.091-1.195c.055-.62.125-1.255.212-1.9Z" transform="translate(-394.039 -159.353)" opacity="0.2"/>
      <path id="Path_1042" data-name="Path 1042" d="M392.914,136.87c-.272,1.157-.579,3.286.2,4.115a3.572,3.572,0,0,1-2.846.949c-1.009-.083-1.031-.789-.793-1.165,1.318-.234,1.32-1.211,1.124-2.125Z" transform="translate(-373.735 -131.106)" fill="#ffc3bd"/>
      <path id="Path_1043" data-name="Path 1043" d="M396.952,140.46l-1.362,1.048a3.885,3.885,0,0,1,.089.652,1.556,1.556,0,0,0,1.278-1.068A1.731,1.731,0,0,0,396.952,140.46Z" transform="translate(-378.715 -133.972)" opacity="0.2"/>
      <path id="Path_1044" data-name="Path 1044" d="M389.941,117.739c-.135,1.586-.135,2.521-.953,3.3a2.13,2.13,0,0,1-3.5-1.251c-.3-1.445-.032-3.794,1.532-4.354a2.22,2.22,0,0,1,2.925,2.3Z" transform="translate(-370.562 -113.902)" fill="#ffc3bd"/>
      <path id="Path_1045" data-name="Path 1045" d="M403.78,121.549a1.616,1.616,0,0,1-.951-1.58c-.071-1.211,1.241-1.28,1.873-.991S404.985,120.887,403.78,121.549Z" transform="translate(-384.491 -116.712)" fill="#263238"/>
      <path id="Path_1046" data-name="Path 1046" d="M387.963,118.575c-.727.287-3.554.184-4-.541S389.4,118.008,387.963,118.575Z" transform="translate(-369.417 -115.825)" fill="#263238"/>
      <path id="Path_1047" data-name="Path 1047" d="M389.655,116.54c-.747.222-3.556-.121-3.936-.88S391.141,116.086,389.655,116.54Z" transform="translate(-370.822 -113.979)" fill="#263238"/>
      <path id="Path_1048" data-name="Path 1048" d="M391.948,114.727c-.763.153-3.53-.442-3.835-1.233S393.468,114.42,391.948,114.727Z" transform="translate(-372.737 -112.283)" fill="#263238"/>
      <path id="Path_1049" data-name="Path 1049" d="M394.65,113.213c-.773.1-3.522-.939-3.772-1.75S396.188,113.021,394.65,113.213Z" transform="translate(-374.947 -110.692)" fill="#263238"/>
      <path id="Path_1050" data-name="Path 1050" d="M396.971,111.911c-.779.018-3.4-1.054-3.566-1.885S398.521,111.867,396.971,111.911Z" transform="translate(-376.967 -109.552)" fill="#263238"/>
      <path id="Path_1051" data-name="Path 1051" d="M400.182,110.657c-.642-.123-2.939-1.512-2.868-2.22C397.392,107.644,401.471,110.9,400.182,110.657Z" transform="translate(-380.089 -108.312)" fill="#263238"/>
      <path id="Path_1052" data-name="Path 1052" d="M405.361,129.959a1.461,1.461,0,0,1-.686.912c-.456.26-.826-.119-.807-.618,0-.45.258-1.126.773-1.183a.692.692,0,0,1,.721.888Z" transform="translate(-385.321 -124.879)" fill="#ffc3bd"/>
      <path id="Path_1053" data-name="Path 1053" d="M394.794,128.042c0,.129-.075.23-.159.228s-.149-.113-.145-.242.073-.232.157-.228S394.794,127.907,394.794,128.042Z" transform="translate(-377.836 -123.866)" fill="#263238"/>
      <path id="Path_1054" data-name="Path 1054" d="M387.614,127.68c0,.129-.075.232-.159.228s-.149-.113-.145-.242.073-.23.157-.226S387.616,127.553,387.614,127.68Z" transform="translate(-372.105 -123.579)" fill="#263238"/>
      <path id="Path_1055" data-name="Path 1055" d="M388.562,129.06a4.508,4.508,0,0,1-.642,1.078.747.747,0,0,0,.606.145Z" transform="translate(-372.593 -124.872)" fill="#ff5652"/>
      <path id="Path_1056" data-name="Path 1056" d="M392.794,135.227a1.146,1.146,0,0,1-.168,0,.037.037,0,1,1,0-.075,1,1,0,0,0,.842-.363.038.038,0,0,1,.052,0,.042.042,0,0,1,.01.054A1.052,1.052,0,0,1,392.794,135.227Z" transform="translate(-376.32 -129.437)" fill="#263238"/>
      <path id="Path_1057" data-name="Path 1057" d="M395.827,124.91a.077.077,0,0,1-.071-.032.606.606,0,0,0-.478-.277.079.079,0,0,1-.079-.075.073.073,0,0,1,.073-.077.765.765,0,0,1,.605.341.079.079,0,0,1-.016.107A.065.065,0,0,1,395.827,124.91Z" transform="translate(-378.403 -121.193)" fill="#263238"/>
      <path id="Path_1058" data-name="Path 1058" d="M385.438,124a.064.064,0,0,1-.042,0,.075.075,0,0,1-.032-.1.733.733,0,0,1,.553-.4.079.079,0,0,1,.083.071.075.075,0,0,1-.067.083.573.573,0,0,0-.436.323A.075.075,0,0,1,385.438,124Z" transform="translate(-370.545 -120.426)" fill="#263238"/>
      <path id="Path_1059" data-name="Path 1059" d="M415.821,165.16c.248.559.442,1.092.642,1.643s.371,1.106.533,1.671a18.343,18.343,0,0,1,.668,3.528l.022.472v.321a2.148,2.148,0,0,1-.042.333,4.441,4.441,0,0,1-.355,1.035,9.83,9.83,0,0,1-.967,1.588,18.842,18.842,0,0,1-2.337,2.612l-.914-.783c.587-.926,1.175-1.881,1.675-2.826a10.493,10.493,0,0,0,.628-1.389,2.724,2.724,0,0,0,.135-.579V172.7a.107.107,0,0,1,0-.024V172.6l-.046-.369a20.512,20.512,0,0,0-.763-3.068c-.161-.515-.341-1.029-.523-1.542s-.383-1.031-.571-1.51Z" transform="translate(-392.667 -153.686)" fill="#ffc3bd"/>
      <path id="Path_1060" data-name="Path 1060" d="M413.83,159.764c1.294.846,1.893,4.291,1.893,4.291l-3.048,1.316a8.975,8.975,0,0,1-1.49-3.371C410.754,159.806,412.508,158.9,413.83,159.764Z" transform="translate(-391.11 -149.119)" fill="#407bff"/>
      <path id="Path_1061" data-name="Path 1061" d="M409.469,225.253l-1.879-.073.989,1.816s1.362-.375,1.227-1.12Z" transform="translate(-388.293 -201.592)" fill="#ffc3bd"/>
      <path id="Path_1062" data-name="Path 1062" d="M402.63,226.048l.886,1.457,1.1-.517-.989-1.808Z" transform="translate(-384.334 -201.592)" fill="#ffc3bd"/>
      <path id="Path_1063" data-name="Path 1063" d="M321.165,184.852l-1.393-.872L319.54,186s1.344.482,1.663-.2Z" transform="translate(-318.014 -168.708)" fill="#ffc3bd"/>
      <path id="Path_1064" data-name="Path 1064" d="M312.366,184.271l-.386,1.514,1.526.222.232-2.026Z" transform="translate(-311.98 -168.708)" fill="#ffc3bd"/>
    </g>
    <g id="freepik--character-2--inject-52" transform="translate(41.42 70.243)">
      <path id="Path_1065" data-name="Path 1065" d="M253.711,133.547c-1.163,1.229-2.9,4.42-1.568,5.54a3.835,3.835,0,0,0,2.953.034l-.313-4.608S254.619,132.74,253.711,133.547Z" transform="translate(-242.287 -132.769)" fill="#263238"/>
      <path id="Path_1066" data-name="Path 1066" d="M219.3,185.092a19.3,19.3,0,0,1-.569,1.865c-.218.605-.468,1.2-.743,1.788a14.406,14.406,0,0,1-.939,1.72c-.178.279-.369.551-.571.819-.1.133-.2.266-.315.4-.055.065-.113.127-.17.192l-.085.1a1.7,1.7,0,0,1-.182.172,1.359,1.359,0,0,1-.5.25,1.445,1.445,0,0,1-.509.034,1.96,1.96,0,0,1-.71-.23,4.428,4.428,0,0,1-.9-.662,12.294,12.294,0,0,1-1.318-1.463,26.191,26.191,0,0,1-2.083-3.175l.737-.478c.375.474.761.959,1.154,1.425s.789.93,1.211,1.366a12.2,12.2,0,0,0,1.266,1.211,3.064,3.064,0,0,0,.622.4.432.432,0,0,0,.174.046h-.046a.3.3,0,0,0-.093.038.026.026,0,0,1-.012.01h0l.065-.083c.044-.055.089-.107.131-.163.085-.113.168-.226.248-.345.159-.234.313-.476.456-.731.287-.5.543-1.033.785-1.572s.452-1.1.65-1.661.379-1.146.531-1.689Z" transform="translate(-208.804 -173.75)" fill="#ff8b7b"/>
      <path id="Path_1067" data-name="Path 1067" d="M245.07,180.883a12.079,12.079,0,0,1-1.326,2.17c-.365.5-.656.88-.656.88l-.289-.2-2.39-1.625c.45-1.366,1.048-2.826,2.715-3.229C244.174,178.627,245.405,179.943,245.07,180.883Z" transform="translate(-233.308 -169.093)" fill="#407bff"/>
      <g id="Group_360" data-name="Group 360" transform="translate(7.103 9.753)" opacity="0.5">
        <path id="Path_1068" data-name="Path 1068" d="M245.07,180.883a12.079,12.079,0,0,1-1.326,2.17c-.365.5-.656.88-.656.88l-.289-.2-2.39-1.625c.45-1.366,1.048-2.826,2.715-3.229C244.174,178.627,245.405,179.943,245.07,180.883Z" transform="translate(-240.41 -178.846)" fill="#fff"/>
      </g>
      <path id="Path_1069" data-name="Path 1069" d="M253.195,195.5c-.365.5-.656.88-.656.88l-.289-.2a4.09,4.09,0,0,1,.783-1.738A2.541,2.541,0,0,1,253.195,195.5Z" transform="translate(-242.758 -181.54)" opacity="0.3"/>
      <path id="Path_1070" data-name="Path 1070" d="M207.358,189.222l.079-1.5-1.8.25a6.1,6.1,0,0,0,1.041,1.635Z" transform="translate(-205.555 -176.176)" fill="#ff8b7b"/>
      <path id="Path_1071" data-name="Path 1071" d="M206.52,184.62l-1.3.434.085.442,1.8-.25Z" transform="translate(-205.22 -173.702)" fill="#ff8b7b"/>
      <path id="Path_1072" data-name="Path 1072" d="M274.494,392.148l-1.7.166-1.132-3.99,1.7-.163Z" transform="translate(-258.25 -336.161)" fill="#ff8b7b"/>
      <path id="Path_1073" data-name="Path 1073" d="M331.662,375.4l-1.576.725L327.9,372.7l1.576-.725Z" transform="translate(-303.139 -323.246)" fill="#ff8b7b"/>
      <path id="Path_1074" data-name="Path 1074" d="M328.823,386.24l1.736-.9a.139.139,0,0,1,.178.042l.91,1.263a.281.281,0,0,1-.1.4c-.606.3-.916.42-1.677.807-.466.244-1.465.854-2.111,1.189s-1.009-.283-.775-.48a5.038,5.038,0,0,0,1.643-2.1A.468.468,0,0,1,328.823,386.24Z" transform="translate(-302.346 -333.895)" fill="#263238"/>
      <path id="Path_1075" data-name="Path 1075" d="M263.6,406.167h2.067a.17.17,0,0,1,.161.125l.448,1.629a.254.254,0,0,1-.25.325h-4.751c-.751,0-.908-.761-.606-.829a5.548,5.548,0,0,0,2.624-1.14A.418.418,0,0,1,263.6,406.167Z" transform="translate(-249.36 -350.533)" fill="#263238"/>
      <path id="Path_1076" data-name="Path 1076" d="M271.66,388.323l.585,2.057h1.748l-.63-2.22Z" transform="translate(-258.25 -336.161)" opacity="0.2"/>
      <path id="Path_1077" data-name="Path 1077" d="M329.478,371.98l-1.578.725,1.128,1.762,1.576-.725Z" transform="translate(-303.139 -323.246)" opacity="0.2"/>
      <path id="Path_1078" data-name="Path 1078" d="M260.432,183.993l-6.989.894c-2.939-9.89-2.2-10.249-2.2-10.249s1.167-.4,2.357-.714c.18-.046.361-.091.539-.131a22.7,22.7,0,0,1,3.175-.4l.47-.03a21.362,21.362,0,0,1,2.549.04c-.129,1.274-.222,2.351-.281,3.294-.079,1.227-.1,2.22-.085,3.08A26.736,26.736,0,0,0,260.432,183.993Z" transform="translate(-241.888 -164.697)" fill="#407bff"/>
      <g id="Group_361" data-name="Group 361" transform="translate(9.272 8.641)" opacity="0.5">
        <path id="Path_1079" data-name="Path 1079" d="M260.432,183.993l-6.989.894c-2.939-9.89-2.2-10.249-2.2-10.249s1.167-.4,2.357-.714c.18-.046.361-.091.539-.131a22.7,22.7,0,0,1,3.175-.4l.47-.03a21.362,21.362,0,0,1,2.549.04c-.129,1.274-.222,2.351-.281,3.294-.079,1.227-.1,2.22-.085,3.08A26.736,26.736,0,0,0,260.432,183.993Z" transform="translate(-251.16 -173.338)" fill="#fff"/>
      </g>
      <path id="Path_1080" data-name="Path 1080" d="M292.674,189.516a7.259,7.259,0,0,1-.4-3.966l.488.886C292.68,187.659,292.656,188.652,292.674,189.516Z" transform="translate(-274.594 -174.444)" opacity="0.3"/>
      <path id="Path_1081" data-name="Path 1081" d="M268.334,161.023a2.991,2.991,0,0,0,.769,2.113,6,6,0,0,0-2.137,1.152,2.808,2.808,0,0,1-1.035-.745c1.1-.418,1.027-1.177.559-2.4l.862-.464a.565.565,0,0,1,.983.339Z" transform="translate(-253.677 -154.448)" fill="#ff8b7b"/>
      <path id="Path_1082" data-name="Path 1082" d="M263.184,169.061c-.3-.139-.876.616-.953.817s.234.264.2.531.145.5.672.71a1.866,1.866,0,0,0,1.917-.434c.347-.517,2.511-.93,2.208-1.445s-.537-.226-.751-.741-1.12-.022-1.413.246S264.468,169.644,263.184,169.061Z" transform="translate(-250.715 -160.656)" fill="#407bff"/>
      <path id="Path_1083" data-name="Path 1083" d="M269.592,160.677a.563.563,0,0,1,.969.262,3.492,3.492,0,0,1-1.508,1.544,3.726,3.726,0,0,0-.323-1.342Z" transform="translate(-255.912 -154.443)" opacity="0.2"/>
      <path id="Path_1084" data-name="Path 1084" d="M264.052,137.974c-.428,1.669-.573,2.384-1.592,3.086a2.2,2.2,0,0,1-3.568-1.6c-.071-1.586.642-4.049,2.422-4.4a2.349,2.349,0,0,1,2.739,2.912Z" transform="translate(-248.055 -134.108)" fill="#ff8b7b"/>
      <path id="Path_1085" data-name="Path 1085" d="M279.771,154.527a1.252,1.252,0,0,1-.706.652c-.416.151-.656-.214-.567-.622.081-.367.394-.89.823-.862a.565.565,0,0,1,.45.832Z" transform="translate(-263.693 -149.018)" fill="#ff8b7b"/>
      <path id="Path_1086" data-name="Path 1086" d="M262.181,132.475c.819-.168,2.787-.028,2.959.777-.7.654-.363,2.761-1.092,3.379a5.452,5.452,0,0,0,3.173,1.019s2.085-5.665-.46-5.942c-.535-1.433-3.431-1.562-4.941-.4" transform="translate(-250.396 -130.524)" fill="#263238"/>
      <path id="Path_1087" data-name="Path 1087" d="M278.482,143.376h-1.009a.133.133,0,0,1-.133-.133h0a.135.135,0,0,1,.133-.133h1.009a.133.133,0,0,1,.133.133h0a.131.131,0,0,1-.133.133Z" transform="translate(-262.784 -140.57)" fill="#407bff"/>
      <path id="Path_1088" data-name="Path 1088" d="M254.669,227.976s-2.684,13.509-1.79,18.726c.858,5,3.5,14.706,3.5,14.706l2.993-.077s-1.879-11.244-1.915-15.424c-.063-6.933,2.335-18.587,2.335-18.587Z" transform="translate(-243.114 -207.783)" fill="#407bff"/>
      <path id="Path_1089" data-name="Path 1089" d="M268,392.111l3.463-.095-.214-1.136-3.752.192Z" transform="translate(-254.93 -338.332)" fill="#263238"/>
      <path id="Path_1090" data-name="Path 1090" d="M274.263,229.613l1.2-2.1,1.483-.19s-1.092,5.3-1.782,10.877A27.328,27.328,0,0,1,274.263,229.613Z" transform="translate(-260.27 -207.783)" opacity="0.3"/>
      <path id="Path_1091" data-name="Path 1091" d="M270,226.851s2.121,11.428,4.012,17.953c1.526,5.27,7.932,12.451,7.932,12.451l2.265-1.136s-4.3-7.956-5.365-11.537c-3.409-11.456-.743-15.62-3.383-18.452Z" transform="translate(-256.925 -206.834)" fill="#407bff"/>
      <path id="Path_1092" data-name="Path 1092" d="M326.618,373.863l2.666-1.376-.4-1.136-2.945,1.635Z" transform="translate(-301.575 -322.743)" fill="#263238"/>
      <path id="Path_1093" data-name="Path 1093" d="M268.49,223.842l.4.585c.03.044-.02.1-.1.113l-7.333.941c-.063,0-.119-.016-.127-.057l-.143-.618c0-.042.04-.087.109-.095l7.078-.908A.127.127,0,0,1,268.49,223.842Z" transform="translate(-249.893 -204.975)" fill="#407bff"/>
      <path id="Path_1094" data-name="Path 1094" d="M268.49,223.842l.4.585c.03.044-.02.1-.1.113l-7.333.941c-.063,0-.119-.016-.127-.057l-.143-.618c0-.042.04-.087.109-.095l7.078-.908A.127.127,0,0,1,268.49,223.842Z" transform="translate(-249.893 -204.975)" fill="#fff" opacity="0.4"/>
      <path id="Path_1095" data-name="Path 1095" d="M292.039,224.926l.19-.026c.038,0,.065-.026.059-.05l-.2-.807c0-.024-.04-.038-.079-.034l-.19.024c-.036,0-.063.028-.059.052l.2.807C291.966,224.914,292.009,224.93,292.039,224.926Z" transform="translate(-274.292 -205.139)" fill="#263238"/>
      <path id="Path_1096" data-name="Path 1096" d="M264.067,228.511l.19-.024c.036,0,.063-.028.059-.05l-.2-.807c0-.024-.042-.04-.079-.034l-.19.024c-.038,0-.065.028-.059.05l.2.807C263.992,228.5,264.031,228.517,264.067,228.511Z" transform="translate(-251.965 -208.002)" fill="#263238"/>
      <path id="Path_1097" data-name="Path 1097" d="M278.087,226.716l.19-.024c.038,0,.065-.028.059-.052l-.192-.807c0-.022-.042-.038-.079-.034l-.19.024c-.038,0-.065.028-.059.052l.192.807C278.014,226.706,278.055,226.72,278.087,226.716Z" transform="translate(-263.163 -206.568)" fill="#263238"/>
      <path id="Path_1098" data-name="Path 1098" d="M269.042,148.212c-.026.137-.121.234-.2.216s-.141-.141-.115-.279.121-.236.2-.218S269.069,148.075,269.042,148.212Z" transform="translate(-255.903 -144.416)" fill="#263238"/>
      <path id="Path_1099" data-name="Path 1099" d="M261.342,146.732c-.026.137-.119.234-.2.216s-.141-.141-.115-.279.121-.236.212-.218S261.37,146.593,261.342,146.732Z" transform="translate(-249.757 -143.235)" fill="#263238"/>
      <path id="Path_1100" data-name="Path 1100" d="M261.013,145.907l-.313-.157S260.819,146.041,261.013,145.907Z" transform="translate(-249.502 -142.677)" fill="#263238"/>
      <path id="Path_1101" data-name="Path 1101" d="M262.058,149.37a3.755,3.755,0,0,1-.658.783.605.605,0,0,0,.472.188Z" transform="translate(-250.061 -145.566)" fill="#ff5652"/>
      <path id="Path_1102" data-name="Path 1102" d="M266.266,156.223a.04.04,0,0,1-.018-.04.042.042,0,0,1,.048-.034,1.1,1.1,0,0,0,.969-.254.042.042,0,0,1,.059,0,.038.038,0,0,1,0,.057,1.167,1.167,0,0,1-1.045.279A.022.022,0,0,1,266.266,156.223Z" transform="translate(-253.93 -150.764)" fill="#263238"/>
      <path id="Path_1103" data-name="Path 1103" d="M270.762,144.994a.073.073,0,0,1-.028-.032.654.654,0,0,0-.464-.369.081.081,0,0,1-.073-.091.085.085,0,0,1,.091-.073.807.807,0,0,1,.593.46.083.083,0,0,1-.036.111A.087.087,0,0,1,270.762,144.994Z" transform="translate(-257.082 -141.622)" fill="#263238"/>
      <path id="Path_1104" data-name="Path 1104" d="M259.916,143.212V143.2a.081.081,0,0,1,.055-.1.807.807,0,0,1,.741.121.083.083,0,1,1-.107.127.638.638,0,0,0-.585-.091.085.085,0,0,1-.1-.042Z" transform="translate(-248.874 -140.526)" fill="#263238"/>
      <path id="Path_1105" data-name="Path 1105" d="M295,182.37c.23.248.422.474.618.721s.383.486.567.735a16.622,16.622,0,0,1,1.009,1.552,14.89,14.89,0,0,1,.854,1.667c.067.143.121.293.182.438s.117.293.168.444.1.293.155.46l.073.27.052.268a6.031,6.031,0,0,1-.071,2.018,11.051,11.051,0,0,1-.535,1.816,18.335,18.335,0,0,1-.761,1.681,17.264,17.264,0,0,1-.932,1.578l-.759-.448c.238-.513.472-1.056.672-1.594a16.778,16.778,0,0,0,.543-1.631,10.829,10.829,0,0,0,.333-1.631,6.607,6.607,0,0,0,.044-.789,4.177,4.177,0,0,0-.079-.729l-.04-.166-.05-.157c-.04-.113-.1-.252-.151-.375s-.107-.254-.168-.381-.113-.252-.18-.375c-.248-.5-.541-.983-.836-1.465s-.626-.945-.967-1.4q-.251-.345-.519-.678c-.178-.222-.363-.446-.531-.638Z" transform="translate(-275.834 -171.906)" fill="#ff8b7b"/>
      <path id="Path_1106" data-name="Path 1106" d="M299.493,245.38l-1.393.68,1.429,1.116a2.626,2.626,0,0,0,.593-1.467Z" transform="translate(-279.354 -222.198)" fill="#ff8b7b"/>
      <path id="Path_1107" data-name="Path 1107" d="M294.82,250.131l1.215.63.866-.894-1.429-1.116Z" transform="translate(-276.736 -224.888)" fill="#ff8b7b"/>
      <path id="Path_1108" data-name="Path 1108" d="M290,173.554c.866.117,2.174,2.535,2.174,2.535l-2.2,2.164s-1.687-1.923-1.643-3.048C288.367,174.25,288.894,173.406,290,173.554Z" transform="translate(-271.552 -164.855)" fill="#407bff"/>
      <g id="Group_362" data-name="Group 362" transform="translate(16.773 8.681)" opacity="0.5">
        <path id="Path_1109" data-name="Path 1109" d="M290,173.554c.866.117,2.174,2.535,2.174,2.535l-2.2,2.164s-1.687-1.923-1.643-3.048C288.367,174.25,288.894,173.406,290,173.554Z" transform="translate(-288.326 -173.537)" fill="#fff"/>
      </g>
      <path id="Path_1110" data-name="Path 1110" d="M332.207,391.316a.122.122,0,0,1-.028,0,.232.232,0,0,1-.161-.161.139.139,0,0,1,.018-.139c.137-.176.763-.117.834-.111a.04.04,0,0,1,.034.03.042.042,0,0,1-.012.042A1.293,1.293,0,0,1,332.207,391.316Zm.553-.343c-.25-.016-.587,0-.66.087a.061.061,0,0,0,0,.061.153.153,0,0,0,.1.111.9.9,0,0,0,.549-.268Z" transform="translate(-306.416 -338.339)" fill="#407bff"/>
      <path id="Path_1111" data-name="Path 1111" d="M333.4,388.954c-.2-.03-.605-.2-.652-.379a.141.141,0,0,1,.069-.165.2.2,0,0,1,.18-.032c.244.061.478.5.488.521a.044.044,0,0,1,0,.042.042.042,0,0,1-.036.018Zm-.44-.5a.129.129,0,0,0-.1.022c-.042.03-.042.057-.036.075.034.117.337.274.545.317-.085-.143-.248-.375-.4-.4Z" transform="translate(-307.002 -336.327)" fill="#407bff"/>
      <path id="Path_1112" data-name="Path 1112" d="M269.222,406.118a.7.7,0,0,1-.4-.095.258.258,0,0,1-.1-.2.117.117,0,0,1,.05-.113c.188-.125.888.2,1.027.258a.038.038,0,0,1,.022.04.04.04,0,0,1-.032.036A2.8,2.8,0,0,1,269.222,406.118Zm-.327-.355a.146.146,0,0,0-.081.018.04.04,0,0,0-.016.038.173.173,0,0,0,.073.137,1.152,1.152,0,0,0,.773.036A2.52,2.52,0,0,0,268.9,405.763Z" transform="translate(-255.899 -350.144)" fill="#407bff"/>
      <path id="Path_1113" data-name="Path 1113" d="M271.266,404.434h-.016c-.232-.095-.7-.47-.674-.666,0-.042.034-.095.141-.107.4-.048.581.694.589.725a.042.042,0,0,1-.014.042A.041.041,0,0,1,271.266,404.434Zm-.513-.7h-.026c-.044,0-.067.018-.071.038-.014.113.309.4.547.539-.059-.184-.208-.577-.454-.577Z" transform="translate(-257.384 -348.531)" fill="#407bff"/>
      <path id="Path_1114" data-name="Path 1114" d="M268.711,147.377l-.311-.157S268.521,147.513,268.711,147.377Z" transform="translate(-255.648 -143.85)" fill="#263238"/>
    </g>
    <g id="freepik--character-1--inject-52" transform="translate(12.961 65.126)">
      <path id="Path_1115" data-name="Path 1115" d="M116.84,393.052l1.621-.024.371-3.758-1.619.024Z" transform="translate(-106.218 -331.93)" fill="#b55b52"/>
      <path id="Path_1116" data-name="Path 1116" d="M77.1,393.2h1.621l.636-3.752H77.738Z" transform="translate(-74.499 -332.073)" fill="#b55b52"/>
      <path id="Path_1117" data-name="Path 1117" d="M76.594,407.11H74.618a.141.141,0,0,0-.137.111l-.321,1.441a.238.238,0,0,0,.238.287c.636-.01,1.1-.048,1.9-.048.492,0,1.978.052,2.658.052s.769-.672.49-.735a6.383,6.383,0,0,1-2.59-1.009.4.4,0,0,0-.262-.1Z" transform="translate(-72.149 -346.169)" fill="#263238"/>
      <path id="Path_1118" data-name="Path 1118" d="M116.062,407l-1.77.028a.137.137,0,0,0-.135.111l-.3,1.445a.234.234,0,0,0,.238.285c.638-.02,1.56-.073,2.361-.085.939-.014,1.75.024,2.848,0,.666-.01.84-.684.561-.741a9.8,9.8,0,0,1-3.413-.93A.755.755,0,0,0,116.062,407Z" transform="translate(-103.834 -346.081)" fill="#263238"/>
      <path id="Path_1119" data-name="Path 1119" d="M122.162,163.56c.521.975,1.072,1.978,1.627,2.949s1.134,1.936,1.752,2.826c.075.115.155.22.234.327l.117.159.052.073.02.028a.472.472,0,0,0,.2.165,2.16,2.16,0,0,0,1.142-.028,8.751,8.751,0,0,0,1.463-.513c.246-.111.5-.222.741-.347s.494-.258.721-.379l.753.957a7.541,7.541,0,0,1-.688.605c-.238.186-.474.381-.729.555a8.416,8.416,0,0,1-1.673.92,5.284,5.284,0,0,1-1.009.291,3.321,3.321,0,0,1-1.235-.018,2.566,2.566,0,0,1-1.27-.678c-.044-.042-.085-.087-.125-.131l-.083-.095-.151-.178c-.1-.117-.2-.236-.3-.355a28.97,28.97,0,0,1-2.043-2.941c-.605-1.009-1.183-2.018-1.714-3.09Z" transform="translate(-108.717 -151.775)" fill="#b65b52"/>
      <path id="Path_1120" data-name="Path 1120" d="M116.361,158.783c-.438,1.485,2.638,5.536,2.638,5.536l3.108-1.994a19.672,19.672,0,0,0-2.147-3.633C118.676,157.063,116.84,157.152,116.361,158.783Z" transform="translate(-105.802 -146.95)" fill="#407bff"/>
      <path id="Path_1121" data-name="Path 1121" d="M116.361,158.783c-.438,1.485,2.638,5.536,2.638,5.536l3.108-1.994a19.672,19.672,0,0,0-2.147-3.633C118.676,157.063,116.84,157.152,116.361,158.783Z" transform="translate(-105.802 -146.95)" fill="#fff" opacity="0.2"/>
      <path id="Path_1122" data-name="Path 1122" d="M121.029,172.319c.638.272,1.576,1.816,2.065,2.947l-1.316.846a24.784,24.784,0,0,1-1.978-3.1C120.216,172.555,120.692,172.175,121.029,172.319Z" transform="translate(-108.581 -158.742)" opacity="0.2"/>
      <path id="Path_1123" data-name="Path 1123" d="M170.16,187.342l1.13-.672.969,1.683s-1.257.737-2.071-.119Z" transform="translate(-148.777 -170.221)" fill="#b55b52"/>
      <path id="Path_1124" data-name="Path 1124" d="M177.34,186.686l.507,1.3-1.118.369-.969-1.683Z" transform="translate(-153.246 -170.221)" fill="#b55b52"/>
      <path id="Path_1125" data-name="Path 1125" d="M119.542,389.27l-.192,1.938-1.621.026.192-1.938Z" transform="translate(-106.929 -331.93)" opacity="0.2"/>
      <path id="Path_1126" data-name="Path 1126" d="M78.949,389.46H80.57l-.329,1.934H78.62Z" transform="translate(-75.712 -332.081)" opacity="0.2"/>
      <path id="Path_1127" data-name="Path 1127" d="M80.75,157.2c1.744,6.148,1.463,12.683,1.568,14.019l8.659-.325c1.471-9.173-1.171-14.28-1.171-14.28s-.555-.107-1.31-.186c-.238-.024-.492-.044-.759-.059-.147,0-.3-.014-.448-.016a32.31,32.31,0,0,0-3.663.264c-.232.028-.466.065-.692.1s-.418.075-.605.113C81.43,157,80.75,157.2,80.75,157.2Z" transform="translate(-77.413 -146.021)" fill="#407bff"/>
      <path id="Path_1128" data-name="Path 1128" d="M80.75,157.2c1.744,6.148,1.463,12.683,1.568,14.019l8.659-.325c1.471-9.173-1.171-14.28-1.171-14.28s-.555-.107-1.31-.186c-.238-.024-.492-.044-.759-.059-.147,0-.3-.014-.448-.016a32.31,32.31,0,0,0-3.663.264c-.232.028-.466.065-.692.1s-.418.075-.605.113C81.43,157,80.75,157.2,80.75,157.2Z" transform="translate(-77.413 -146.021)" fill="#fff" opacity="0.2"/>
      <path id="Path_1129" data-name="Path 1129" d="M85.961,173.62c.155.6-.022,3.312-.644,3.982-.085-.87-.2-1.778-.347-2.707Z" transform="translate(-80.781 -159.805)" opacity="0.2"/>
      <path id="Path_1130" data-name="Path 1130" d="M97.025,156.346h-.063c-.147,0-.3-.014-.448-.016a32.341,32.341,0,0,0-3.673.272c-.178.022-.355.048-.531.077l.268.23a4.565,4.565,0,0,0,3.094,1.31h.176c.7-.028,1.148-.256,1.336-.682A1.31,1.31,0,0,0,97.025,156.346Z" transform="translate(-86.639 -146.005)" fill="#fff"/>
      <path id="Path_1131" data-name="Path 1131" d="M95.007,137c.319,1.165.71,3.314-.057,4.164a4.128,4.128,0,0,0,2.991,1.211c1.407-.055,1.09-1.009.682-1.483-1.342-.218-1.381-1.2-1.211-2.133Z" transform="translate(-88.747 -130.576)" fill="#b55b52"/>
      <path id="Path_1132" data-name="Path 1132" d="M99.98,140.59l1.413,1.039a3.886,3.886,0,0,0-.065.66,1.633,1.633,0,0,1-1.334-1.06A1.756,1.756,0,0,1,99.98,140.59Z" transform="translate(-92.743 -133.441)" opacity="0.2"/>
      <path id="Path_1133" data-name="Path 1133" d="M107.816,120.029c.46.468,1.306-2.085.4-2.7S105.56,117.722,107.816,120.029Z" transform="translate(-98.135 -114.73)" fill="#263238"/>
      <path id="Path_1134" data-name="Path 1134" d="M93.776,118.324c.218,1.592.264,2.537,1.134,3.3a2.136,2.136,0,0,0,3.492-1.36c.236-1.463-.159-3.823-1.772-4.343a2.194,2.194,0,0,0-2.854,2.406Z" transform="translate(-87.791 -113.662)" fill="#b55b52"/>
      <path id="Path_1135" data-name="Path 1135" d="M89.369,124.212c.523.4.981-2.254,0-2.733S86.786,122.269,89.369,124.212Z" transform="translate(-83.176 -118.107)" fill="#263238"/>
      <path id="Path_1136" data-name="Path 1136" d="M87.656,108.905c1.536.527,5.853.036,5.09-3.106-.325-1.356-1.794-.2-1.9.549-.751-.618-2.145-.482-1.982.5C88.06,106.617,85,107.357,87.656,108.905Z" transform="translate(-82.076 -105.172)" fill="#263238"/>
      <path id="Path_1137" data-name="Path 1137" d="M90.333,132.852a1.528,1.528,0,0,0,1.009.605c.531.077.727-.416.521-.88-.186-.418-.684-.961-1.189-.823A.683.683,0,0,0,90.333,132.852Z" transform="translate(-84.939 -126.372)" fill="#b55b52"/>
      <path id="Path_1138" data-name="Path 1138" d="M108.395,262.413l-2.743.042s.914-10.836.668-15.878a52.663,52.663,0,0,0-.789-5.978c-.511-2.9-.757-4.053-1.413-7.714-.472-2.612-.868-4.291-.868-4.291l5.692-.214s1.754,12.74,1.7,17.683C110.579,251.2,108.395,262.413,108.395,262.413Z" transform="translate(-95.371 -203.513)" fill="#263238"/>
      <path id="Path_1139" data-name="Path 1139" d="M108.5,246c1.021,2.543,1.041,8.5.571,10.178-.081-.5-.168-1.009-.258-1.522-.513-2.9-.759-4.053-1.413-7.714-.012-.073-.026-.143-.038-.214A3.935,3.935,0,0,1,108.5,246Z" transform="translate(-98.652 -217.576)" opacity="0.2"/>
      <path id="Path_1140" data-name="Path 1140" d="M83.86,228.92s-1.033,13.428-1.794,18.115c-.832,5.131-3.419,15.846-3.419,15.846H75.68s.979-9.688,1.586-14.734c.69-5.732,1.009-19.023,1.009-19.023Z" transform="translate(-73.366 -203.944)" fill="#263238"/>
      <path id="Path_1141" data-name="Path 1141" d="M78.324,393.1H74.83v-1.044l3.905-.069Z" transform="translate(-72.687 -334.101)" fill="#407bff"/>
      <path id="Path_1142" data-name="Path 1142" d="M78.324,393.1H74.83v-1.044l3.905-.069Z" transform="translate(-72.687 -334.101)" fill="#fff" opacity="0.5"/>
      <path id="Path_1143" data-name="Path 1143" d="M117.456,392.838l-3.268.05-.018-1.056,3.653-.113Z" transform="translate(-104.087 -333.885)" fill="#407bff"/>
      <path id="Path_1144" data-name="Path 1144" d="M117.456,392.838l-3.268.05-.018-1.056,3.653-.113Z" transform="translate(-104.087 -333.885)" fill="#fff" opacity="0.5"/>
      <path id="Path_1145" data-name="Path 1145" d="M106.062,128.615c0,.131.087.232.172.224s.145-.117.135-.246-.085-.23-.172-.224S106.048,128.5,106.062,128.615Z" transform="translate(-97.614 -123.687)" fill="#263238"/>
      <path id="Path_1146" data-name="Path 1146" d="M113.357,128.067c0,.131.087.23.174.224s.145-.117.135-.246-.087-.232-.172-.226S113.349,127.936,113.357,128.067Z" transform="translate(-103.438 -123.248)" fill="#263238"/>
      <path id="Path_1147" data-name="Path 1147" d="M111.07,129.54a4.669,4.669,0,0,0,.7,1.07.749.749,0,0,1-.605.161Z" transform="translate(-101.613 -124.622)" fill="#a02724"/>
      <path id="Path_1148" data-name="Path 1148" d="M105.859,135.856a1.074,1.074,0,0,1-.769-.371.039.039,0,0,1,.063-.046,1.033,1.033,0,0,0,.872.341.038.038,0,1,1,0,.077A1.186,1.186,0,0,1,105.859,135.856Z" transform="translate(-96.834 -129.317)" fill="#263238"/>
      <path id="Path_1149" data-name="Path 1149" d="M103.356,125.5a.061.061,0,0,1-.036-.012.077.077,0,0,1-.024-.1.765.765,0,0,1,.605-.363.077.077,0,1,1,0,.153h0a.606.606,0,0,0-.472.293A.073.073,0,0,1,103.356,125.5Z" transform="translate(-95.398 -121.014)" fill="#263238"/>
      <path id="Path_1150" data-name="Path 1150" d="M113.965,124.307a.077.077,0,0,1-.061-.038.618.618,0,0,0-.458-.315.077.077,0,1,1,0-.153.765.765,0,0,1,.581.39.075.075,0,0,1-.028.1A.079.079,0,0,1,113.965,124.307Z" transform="translate(-103.449 -120.04)" fill="#263238"/>
      <path id="Path_1151" data-name="Path 1151" d="M87.1,406.892a1.975,1.975,0,0,1-.424-.059.039.039,0,0,1-.01-.071c.059-.036.581-.357.761-.266a.127.127,0,0,1,.065.109.23.23,0,0,1-.079.2A.5.5,0,0,1,87.1,406.892Zm-.313-.1a.781.781,0,0,0,.575-.03.149.149,0,0,0,.052-.137.05.05,0,0,0-.024-.046C87.3,406.516,87,406.656,86.788,406.787Z" transform="translate(-82.12 -345.666)" fill="#407bff"/>
      <path id="Path_1152" data-name="Path 1152" d="M86.687,405.356a.042.042,0,0,1-.022,0,.034.034,0,0,1-.016-.034c0-.02.04-.488.228-.642a.2.2,0,0,1,.163-.048h0a.123.123,0,0,1,.121.1c.034.182-.289.537-.456.628Zm.327-.652a.129.129,0,0,0-.089.034.92.92,0,0,0-.2.507c.168-.127.373-.4.353-.5,0-.01,0-.034-.057-.04H87Z" transform="translate(-82.12 -344.189)" fill="#407bff"/>
      <path id="Path_1153" data-name="Path 1153" d="M125.5,406.616a.04.04,0,0,1-.024-.032.034.034,0,0,1,.018-.038c.075-.04.721-.379.918-.274a.125.125,0,0,1,.065.1h0a.214.214,0,0,1-.069.188c-.176.159-.64.1-.9.055Zm.862-.283a1.579,1.579,0,0,0-.729.226,1.038,1.038,0,0,0,.723-.055.139.139,0,0,0,.044-.125.044.044,0,0,0-.024-.04Z" transform="translate(-113.111 -345.483)" fill="#407bff"/>
      <path id="Path_1154" data-name="Path 1154" d="M125.528,405.168h0a.04.04,0,0,1-.018-.034,1.081,1.081,0,0,1,.242-.628.277.277,0,0,1,.2-.069h0a.129.129,0,0,1,.145.1c.032.182-.349.539-.545.63A.044.044,0,0,1,125.528,405.168Zm.46-.654h-.038a.2.2,0,0,0-.155.052.9.9,0,0,0-.2.5c.2-.123.456-.4.436-.513A.1.1,0,0,0,125.988,404.514Zm-.036-.044Z" transform="translate(-113.138 -344.035)" fill="#407bff"/>
      <path id="Path_1155" data-name="Path 1155" d="M69.344,166.62l-1.522,3.316c-.248.555-.5,1.106-.739,1.663-.117.277-.242.553-.353.83l-.087.2c-.028.071-.044.119-.067.178-.046.113-.077.238-.115.357a6.708,6.708,0,0,0-.222,1.58,11.908,11.908,0,0,0,.069,1.708c.063.577.157,1.161.279,1.742s.266,1.175.424,1.726l-1.116.484c-.163-.3-.3-.583-.43-.882s-.252-.591-.367-.894a15.109,15.109,0,0,1-.569-1.865,9.94,9.94,0,0,1-.184-4.083c.04-.178.075-.357.131-.537l.077-.262.075-.228c.1-.3.2-.605.3-.9.214-.605.432-1.187.668-1.768.466-1.171.973-2.3,1.538-3.431Z" transform="translate(-64.214 -153.364)" fill="#b65b52"/>
      <path id="Path_1156" data-name="Path 1156" d="M69.161,159.978c-1.477.464-2.931,5.476-2.931,5.476l3.419,1.5s1.106-2.422,1.742-4.319C72.085,160.561,70.951,159.417,69.161,159.978Z" transform="translate(-65.823 -148.803)" fill="#407bff"/>
      <path id="Path_1157" data-name="Path 1157" d="M69.161,159.978c-1.477.464-2.931,5.476-2.931,5.476l3.419,1.5s1.106-2.422,1.742-4.319C72.085,160.561,70.951,159.417,69.161,159.978Z" transform="translate(-65.823 -148.803)" fill="#fff" opacity="0.2"/>
      <path id="Path_1158" data-name="Path 1158" d="M72.452,235.39l.8,1.439-1.879.488s-.569-1.395.1-1.839Z" transform="translate(-69.746 -209.108)" fill="#b55b52"/>
      <path id="Path_1159" data-name="Path 1159" d="M74.278,244.153l-1.726.143-.293-1.288,1.879-.488Z" transform="translate(-70.636 -214.799)" fill="#b55b52"/>
    </g>
    <g id="freepik--Puzzle--inject-52" transform="translate(30.156 82.449)">
      <path id="Path_1160" data-name="Path 1160" d="M169.712,209.445a1.923,1.923,0,0,1-1.919,1.867h-5.078a3.889,3.889,0,1,1-6.307,0h-5.08a1.921,1.921,0,0,1-1.917-1.917V192.929a1.923,1.923,0,0,1,1.917-1.919h16.466a1.923,1.923,0,0,1,1.917,1.869v5.129a3.887,3.887,0,1,0,0,6.309v5.078A.422.422,0,0,0,169.712,209.445Z" transform="translate(-149.41 -191.008)" fill="#407bff"/>
      <path id="Path_1161" data-name="Path 1161" d="M161.859,219.176a3.3,3.3,0,0,1-2.682-5.234l.662-.918h-6.212a1.34,1.34,0,0,1-1.336-1.338V195.22a1.34,1.34,0,0,1,1.336-1.34h16.466a1.348,1.348,0,0,1,1.338,1.3v4.1a.024.024,0,0,1-.036.02,4.407,4.407,0,0,0-1.649-.317,4.468,4.468,0,1,0,0,8.936,4.382,4.382,0,0,0,1.649-.318.024.024,0,0,1,.036.02v4.117a1.354,1.354,0,0,1-1.338,1.28h-6.206l.656.916a.026.026,0,0,1,0,.036.024.024,0,0,1-.034,0l-.686-.959a.024.024,0,0,1,0-.026.026.026,0,0,1,.022-.012H170.1a1.306,1.306,0,0,0,1.288-1.229v-4.081a4.52,4.52,0,1,1,0-8.423v-4.055a1.3,1.3,0,0,0-1.288-1.255H153.626a1.288,1.288,0,0,0-1.286,1.29v16.466a1.288,1.288,0,0,0,1.286,1.288h6.257a.022.022,0,0,1,.022.012.024.024,0,0,1,0,.026l-.69.961a3.255,3.255,0,1,0,5.9,1.9.025.025,0,0,1,.05,0A3.312,3.312,0,0,1,161.859,219.176Z" transform="translate(-151.709 -193.299)" fill="#fff" opacity="0.3"/>
      <path id="Path_1162" data-name="Path 1162" d="M244.022,191h-5.076a3.889,3.889,0,1,1-6.315,0h-5.076a1.925,1.925,0,0,0-1.919,1.917V198a3.887,3.887,0,1,0,0,6.309v5.08a1.925,1.925,0,0,0,1.919,1.919h16.468a1.923,1.923,0,0,0,1.917-1.919V192.919A1.923,1.923,0,0,0,244.022,191Z" transform="translate(-205.334 -191)" fill="#263238"/>
      <path id="Path_1163" data-name="Path 1163" d="M246.347,213.024H229.88a1.338,1.338,0,0,1-1.338-1.338v-6.212l-.918.662a3.3,3.3,0,0,1-5.234-2.682.024.024,0,0,1,.024-.026.026.026,0,0,1,.026.026,3.252,3.252,0,0,0,5.153,2.642l.959-.69a.026.026,0,0,1,.04.02v6.257a1.288,1.288,0,0,0,1.288,1.288h16.468a1.288,1.288,0,0,0,1.288-1.288V195.218a1.29,1.29,0,0,0-1.288-1.288h-4.021a4.519,4.519,0,1,1-8.427,0H229.88a1.29,1.29,0,0,0-1.288,1.288v6.257a.027.027,0,0,1-.04.024l-.959-.69a3.229,3.229,0,0,0-1.9-.616.025.025,0,0,1,0-.05,3.284,3.284,0,0,1,1.927.624l.918.662v-6.21a1.34,1.34,0,0,1,1.338-1.338h4.057a.023.023,0,0,1,.022.034,4.473,4.473,0,0,0,4.153,6.122,4.471,4.471,0,0,0,4.153-6.122.022.022,0,0,1,0-.022.026.026,0,0,1,.022-.012h4.057a1.34,1.34,0,0,1,1.338,1.338v16.468A1.34,1.34,0,0,1,246.347,213.024Z" transform="translate(-207.66 -193.299)" fill="#fff" opacity="0.3"/>
    </g>
  </g>
</svg>
