<svg xmlns="http://www.w3.org/2000/svg" xmlns:xlink="http://www.w3.org/1999/xlink" width="457.903" height="532.404" viewBox="0 0 457.903 532.404">
  <defs>
    <linearGradient id="linear-gradient" x1="0.848" y1="-3.181" x2="0.723" y2="-0.468" gradientUnits="objectBoundingBox">
      <stop offset="0" stop-color="#c6e6ff"/>
      <stop offset="1" stop-color="#8d9fff"/>
    </linearGradient>
    <linearGradient id="linear-gradient-2" x1="3.85" y1="1.526" x2="4.259" y2="-0.056" gradientUnits="objectBoundingBox">
      <stop offset="0" stop-color="#1ae5ff"/>
      <stop offset="1" stop-color="#eaeeee"/>
    </linearGradient>
    <linearGradient id="linear-gradient-3" x1="-2.335" y1="2.415" x2="-2.127" y2="-0.334" gradientUnits="objectBoundingBox">
      <stop offset="0" stop-color="#1ae5ff"/>
      <stop offset="0.26" stop-color="#64e8f9"/>
      <stop offset="0.7" stop-color="#eaeeee"/>
    </linearGradient>
    <linearGradient id="linear-gradient-4" x1="-45.17" y1="0.499" x2="-44.154" y2="0.499" gradientUnits="objectBoundingBox">
      <stop offset="0" stop-color="#5155d4"/>
      <stop offset="1" stop-color="#45f7ff"/>
    </linearGradient>
  </defs>
  <g id="kibog_hero1" data-name="kibog hero1" transform="translate(-77 -52.22)">
    <path id="Path_174" data-name="Path 174" d="M492.552,441.567c-18.913-10.932-45.438-14.69-69.557-11.3l85.587-49.742c9.347-5.466,9.293-14.24-.109-19.678L312.564,247.75c-9.4-5.466-24.6-5.466-33.959,0l-66.961,38.906c-28.957-12.791-70.4-11.547-96.738,3.758s-28.383,39.329-6.218,56.029L83.981,360.859c-9.347,5.466-9.293,14.239.109,19.665L279.985,493.633c9.416,5.466,24.6,5.466,33.972,0l54.963-31.95c-5.767,13.98.806,29.34,19.719,40.259,28.875,16.686,75.6,16.686,104.281,0S521.427,458.239,492.552,441.567Z" transform="translate(0.002 70.169)" fill="#87aedd" opacity="0.25"/>
    <g id="Group_82" data-name="Group 82" transform="translate(115.742 361.928)">
      <path id="Path_175" data-name="Path 175" d="M186.7,297.451c-.779,8.6-8.855,14.417-16.153,17.56a61.973,61.973,0,0,1-25.267,4.687,59.991,59.991,0,0,1-25.691-5.7c-6.915-3.4-14.253-9.566-14.239-17.97,0,6.122.41,11.165,4.824,15.948,5.671,6.136,14.212,9.457,22.247,11.11,15.661,3.239,37.006,1.667,48.909-10.4,4.8-4.851,5.466-9.962,5.466-16.4C186.783,296.659,186.742,297.055,186.7,297.451Z" transform="translate(-105.35 -272.56)" fill="#adcdfc"/>
      <path id="Path_176" data-name="Path 176" d="M174.771,285.763c15.948,9.211,16.057,24.147.2,33.357s-41.652,9.211-57.614,0-16.016-24.147-.164-33.357S158.809,276.552,174.771,285.763Z" transform="translate(-105.35 -278.855)" fill="#e2edff"/>
    </g>
    <g id="Group_83" data-name="Group 83" transform="translate(151.122 346.588)">
      <path id="Path_177" data-name="Path 177" d="M142.157,270.28l-.1,35.6L135.83,309.5l.1-35.6Z" transform="translate(-129.558 -266.659)" fill="#c7d8f2"/>
      <path id="Path_178" data-name="Path 178" d="M137.608,273.9l-.1,35.6-6.272-3.621.109-35.6Z" transform="translate(-131.24 -266.659)" fill="#7baeff"/>
      <path id="Path_179" data-name="Path 179" d="M143.81,271.251l-6.231,3.621-6.259-3.621,6.218-3.621Z" transform="translate(-131.211 -267.63)" fill="#4da5dc"/>
    </g>
    <path id="Path_180" data-name="Path 180" d="M111.03,189.171s-12.764,3.4-16.166,11.055-2.555,65.512,15.305,89.345,51.054,27.222,58.762,23.819,51.929-25.527,55.3-36.583-13.665-19.569-22.972-23.833-15.319-10.208-20.5-25.513S173.112,185.768,167.1,181.5,146.765,170.449,111.03,189.171Z" transform="translate(5.969 45.634)" fill="#3aaeef"/>
    <path id="Path_181" data-name="Path 181" d="M172.492,179.339s-20.936-17.328-25.2-17.765c-5.1-.4-11.479,1.367-13.133,8.582a13.338,13.338,0,0,0,6.027,14.854c3.84,2.1,37.539,18.093,43.5,18.066s9.757-5.152,5.89-11.52S172.492,179.339,172.492,179.339Z" transform="translate(20.788 40.065)" fill="#e1e8f2"/>
    <path id="Path_182" data-name="Path 182" d="M141.024,161.142a2.172,2.172,0,0,0,0,.683c.314,1.558,1.285,5.466,1.517,7.188s-1.462,4.455-5.808,4.592-11.766-1.367-14.458-6.368A119.809,119.809,0,0,0,120.84,152Z" transform="translate(16.07 36.574)" fill="#e16b40"/>
    <path id="Path_183" data-name="Path 183" d="M154.551,140.352c-3.129-13.119-13.993-20.129-25.718-16.768,0,0-12.8,1.927-17.956,13.5s3.7,20.662,9.375,26.388c2.391,2.35,4.2,4.1,5.33,5.316.41.437.82.888,1.257,1.285l.109.123h0a27.085,27.085,0,0,0,11.329,6.136c5.248,1.285,11.329.1,14.458-3.594S157.681,153.471,154.551,140.352Z" transform="translate(11.848 25.852)" fill="#ff8654"/>
    <path id="Path_184" data-name="Path 184" d="M128.948,159.6s-20.621,16.317-22.48,21.5-1.626,19.337,3.252,28.547,4.961,43.948,6.833,50.644,20.307,7.94,31.513,5.193,29.012-12.121,25.431-24.844c-5.289-18.79-4.1-37.717-3.608-43.73s-1.093-20.867-4.346-30.734c-.683-2.077-8.022-4.988-8.022-4.988S149.952,157.631,128.948,159.6Z" transform="translate(10.408 39.142)" fill="#0046a6"/>
    <path id="Path_185" data-name="Path 185" d="M132.679,232.825c-8.514-10.782,3.977-47.652-10.782-57.86-4.5-3.116-8.35-3.908-11.547-3.5a18.79,18.79,0,0,0-3.881,5.1c-1.859,5.179-1.626,19.337,3.252,28.547s4.961,43.948,6.833,50.644c1.736,6.109,17.123,7.666,28.329,5.822l16.112-16.85S141.192,243.593,132.679,232.825Z" transform="translate(10.408 43.673)" fill="#003783"/>
    <path id="Path_186" data-name="Path 186" d="M124.218,161.589c17.929-1.64,26.169,1.367,28.219,2.391a52.844,52.844,0,0,1-.26,12.723c-1.367,8.473-4.769,31.731-4.769,31.731s-11.055-19.132-18.339-26.976c-5.125-5.535-10.167-10.755-12.709-13.365C120.651,164.417,124.218,161.589,124.218,161.589Z" transform="translate(14.427 39.913)" fill="#e1e8f2"/>
    <path id="Path_187" data-name="Path 187" d="M141.024,161.142a2.172,2.172,0,0,0,0,.683c.314,1.558,1.285,5.466,1.517,7.188s-1.462,4.455-5.808,4.592-11.766-1.367-14.458-6.368A119.809,119.809,0,0,0,120.84,152Z" transform="translate(16.07 36.574)" fill="#ff8654"/>
    <path id="Path_188" data-name="Path 188" d="M154.551,140.352c-3.129-13.119-13.993-20.129-25.718-16.768,0,0-12.8,1.927-17.956,13.5s3.7,20.662,9.375,26.388c2.391,2.35,4.2,4.1,5.33,5.316.41.437.82.888,1.257,1.285l.109.123h0a27.085,27.085,0,0,0,11.329,6.136c5.248,1.285,11.329.1,14.458-3.594S157.681,153.471,154.551,140.352Z" transform="translate(11.848 25.852)" fill="#ff9f75"/>
    <path id="Path_189" data-name="Path 189" d="M146.5,177.9,138.5,170.83l-6.382,11.165-6.45-4.1C132.954,185.78,144,204.857,144,204.857s2.815-19.4,4.373-29.217Z" transform="translate(17.84 43.476)" fill="#cfdae4"/>
    <path id="Path_190" data-name="Path 190" d="M143.34,191.572l-3.567-12.559.533-4.3-4.414-3.908-3.1,5.466,3.567,3.239.957,18.653c2.432,3.922,4.1,6.751,4.1,6.751S142.274,198.719,143.34,191.572Z" transform="translate(20.45 43.465)" fill="#00a5ff"/>
    <path id="Path_191" data-name="Path 191" d="M109.9,136.674a19.5,19.5,0,0,0,1.271,19.132c6.382,9.785,13.228,14.13,14.909,13.87s2.542-.683,2.118-1.954-2.555-5.466-2.555-5.466-7.229-.847-7.229-5.535,2.542-5.466,5.466-4.25,3.4,3.4,5.111,5.1,2.132,5.958,3.4,5.535,2.132-1.695,2.132-3.826a8.937,8.937,0,0,0-2.555-7.229c-2.555-2.555.424-6.833-2.132-10.222a25.048,25.048,0,0,0-4.25-4.674s1.695,2.555,10.208.847,12.3-1.271,15.743-3.4,2.555-6.833.424-8.5-7.229-2.555-13.187-4.687-9.361-.847-16.59.847S108.187,131.563,109.9,136.674Z" transform="translate(11.354 24.952)" fill="#0f4c81"/>
    <path id="Path_192" data-name="Path 192" d="M201.378,319.7a8.842,8.842,0,0,0,4.264,7.366c4.537,3.116,5.384,5.111,9.074,6.532s7.092,6.231,5.384,9.634-9.648,3.977-14.745,2.555-5.958-5.958-10.782-7.653a17.834,17.834,0,0,1-7.94-5.111c-1.367-1.367-.847-7.092-.847-7.092l17.3-5.671" transform="translate(39.84 98.045)" fill="#382747"/>
    <path id="Path_193" data-name="Path 193" d="M217.568,307.66a8.855,8.855,0,0,0,4.25,7.366c4.551,3.129,5.4,5.111,9.088,6.532s7.079,6.231,5.384,9.634-9.648,3.977-14.745,2.555-5.958-5.958-10.782-7.653a17.833,17.833,0,0,1-7.94-5.111c-1.367-1.367-.847-7.092-.847-7.092l17.3-5.671" transform="translate(45.774 93.631)" fill="#382747"/>
    <path id="Path_194" data-name="Path 194" d="M114.57,235.1a31.157,31.157,0,0,1,.847,6.382c0,2.979-2.132,11.493,2.132,21.7s32.8,12.3,42.117,16.59a93.36,93.36,0,0,1,16.59,9.361c1.708,1.271,4.1,19.282,11.493,30.064s19.842,32.333,22.685,41.406a21.428,21.428,0,0,0,15.319-2.856c3.785-2.487,3.4-3.977,3.4-3.977s-14.745-32.333-18.161-45.943-7.366-29.5-13.665-33.467S171.241,256.2,166.7,253.374s-16.768-11.807-19.132-17.246S121.99,221.916,114.57,235.1Z" transform="translate(13.771 64.503)" fill="#94a3c0"/>
    <path id="Path_195" data-name="Path 195" d="M131.69,224.856a31.157,31.157,0,0,1,.847,6.382c0,2.979-2.118,11.479,2.132,21.687s32.8,12.3,42.117,16.6a91.884,91.884,0,0,1,16.59,9.361c1.708,1.271,4.1,19.282,11.493,30.064s19.856,32.333,22.685,41.406a21.482,21.482,0,0,0,15.319-2.842c3.8-2.473,3.4-3.963,3.4-3.963S231.53,311.222,228.127,297.6s-7.379-29.49-13.665-33.467-26.1-18.148-30.638-20.99-16.768-11.793-19.132-17.246S139.069,211.642,131.69,224.856Z" transform="translate(20.047 60.743)" fill="#94a3c0"/>
    <g id="Group_84" data-name="Group 84" transform="translate(235.984 384.346)">
      <path id="Path_196" data-name="Path 196" d="M219.864,301.7l-.246,86.516-15.128,8.8.246-86.53Z" transform="translate(-189.253 -292.899)" fill="#c7d8f2"/>
      <path id="Path_197" data-name="Path 197" d="M208.823,310.487l-.246,86.53-15.237-8.8.246-86.516Z" transform="translate(-193.34 -292.899)" fill="#7baeff"/>
      <path id="Path_198" data-name="Path 198" d="M223.885,304.061l-15.128,8.787-15.237-8.787,15.128-8.8Z" transform="translate(-193.274 -295.26)" fill="#4da5dc"/>
    </g>
    <path id="Path_199" data-name="Path 199" d="M457.4,258.513a2.4,2.4,0,0,1-.082.752c-.082.26-.109.41-.164.615a4.636,4.636,0,0,1-.205.711c-.068.2-.164.4-.246.588s-.219.506-.342.752a5.389,5.389,0,0,1-.328.533c-.109.178-.355.56-.56.834s-.41.533-.642.793l-.15.191c-.314.328-.656.656-1.011.984l-.738.615-.67.533-.875.574-.9.588-194.624,113.1a26.933,26.933,0,0,1-5.261,2.323,37.538,37.538,0,0,1-4.551,1.134c-1.011.178-2.036.314-3.061.424s-1.777.15-2.665.178-1.64,0-2.46,0-1.585-.068-2.364-.137v13.87c.779.068,1.572.109,2.364.137s1.64,0,2.46,0,1.777-.1,2.665-.178,2.05-.246,3.061-.424a37.538,37.538,0,0,0,4.551-1.134,27.328,27.328,0,0,0,5.261-2.309L450.486,281.444l.246-.15c.219-.123.41-.273.615-.41l.875-.574.67-.533c.246-.2.506-.4.738-.615s.109-.068.15-.123c.3-.273.588-.574.861-.861l.164-.191c.15-.178.314-.355.465-.547l.164-.246c.205-.273.383-.547.56-.834s.178-.232.246-.355a1.029,1.029,0,0,1,.082-.178,7.442,7.442,0,0,0,.342-.752,4.292,4.292,0,0,0,.205-.437v-.15c0-.055.137-.478.205-.711s.1-.328.137-.492a.382.382,0,0,1,0-.123,7.01,7.01,0,0,0,.082-.752V257.83a6.473,6.473,0,0,1,.109.683Z" transform="translate(58.098 75.366)" fill="#adcdfc"/>
    <path id="Path_200" data-name="Path 200" d="M291.261,384.374q-1.216-.164-2.378-.41c-.861-.178-1.695-.383-2.514-.615s-1.968-.615-2.911-.984a26.215,26.215,0,0,1-3.471-1.667L84.092,267.657C79.364,264.924,77,261.33,77,257.75v13.87c0,3.58,2.364,7.174,7.092,9.907L279.987,394.637a27.985,27.985,0,0,0,3.471,1.654,25.342,25.342,0,0,0,2.911.984c.82.232,1.667.437,2.514.615s1.572.3,2.378.41,1.544.2,2.337.26v-13.87C292.805,384.579,292.027,384.484,291.261,384.374Z" transform="translate(0 75.337)" fill="#adcdfc"/>
    <path id="Path_201" data-name="Path 201" d="M508.472,282.45c9.4,5.466,9.457,14.239.109,19.678L313.958,415.183c-9.347,5.466-24.6,5.466-33.972,0L84.091,302.074c-9.4-5.466-9.457-14.239-.109-19.665L278.605,169.3c9.347-5.466,24.6-5.466,33.959,0Z" transform="translate(0.002 41.413)" fill="#e2edff"/>
    <path id="Path_202" data-name="Path 202" d="M238.66,286.783,292.3,317.954l37.717-21.783L276.39,265Z" transform="translate(59.256 77.994)" fill="#fff"/>
    <path id="Path_203" data-name="Path 203" d="M277.128,275.817l-8.445,4.892-10.673-3.143c2.979-3.416,10.181-4.769,16.084-3.034A13.669,13.669,0,0,1,277.128,275.817Z" transform="translate(66.349 81.212)" fill="#ff5668"/>
    <path id="Path_204" data-name="Path 204" d="M280.07,275.73c5.671,3.28,5.7,8.582.068,11.862a22.521,22.521,0,0,1-20.5,0c-4.537-2.624-5.6-6.436-2.733-9.73l12.914,3.8Z" transform="translate(65.361 81.927)" fill="#b391ff"/>
    <path id="Path_205" data-name="Path 205" d="M267.856,296.554c-.478.26-.478.7,0,.97a1.831,1.831,0,0,0,1.681,0L293.479,283.7c.478-.26.478-.7,0-.97a1.858,1.858,0,0,0-1.694,0Z" transform="translate(69.827 84.416)" fill="#adcdfc"/>
    <path id="Path_206" data-name="Path 206" d="M279.957,289.768a.506.506,0,0,0,0,.97,1.831,1.831,0,0,0,1.681,0l10.167-5.862a.519.519,0,0,0,0-.984,1.94,1.94,0,0,0-1.695,0Z" transform="translate(74.261 84.848)" fill="#d4d9df"/>
    <path id="Path_207" data-name="Path 207" d="M277.645,294.172c-.465.273-.478.711,0,.984a1.858,1.858,0,0,0,1.694,0l15.893-9.169c.478-.273.478-.711,0-.984a1.913,1.913,0,0,0-1.681,0Z" transform="translate(73.417 85.255)" fill="#d4d9df"/>
    <path id="Path_208" data-name="Path 208" d="M303.828,317.71c1.3.765,1.367,1.982,0,2.733l-38.263,22.22a5.179,5.179,0,0,1-4.7,0l-26.716-15.428a1.435,1.435,0,0,1,0-2.733l38.263-22.22a5.179,5.179,0,0,1,4.7,0Z" transform="translate(57.237 91.453)" fill="#f2f8fd"/>
    <path id="Path_209" data-name="Path 209" d="M304.769,314.5a.342.342,0,0,1,0,.109v.369h0a.3.3,0,0,1-.068.109h0l-.15.15-.1.1-.1.068-.123.082-.123.082-38.263,22.22-.465.219h-.137l-.3.1-.6.314-.4.068h-1.38a3.12,3.12,0,0,1-.533-.082h-.1l-.465-.137h-.082a2.9,2.9,0,0,1-.506-.246l-26.716-15.428a1.9,1.9,0,0,1-.929-1,1.147,1.147,0,0,1,0-.369v1.531a.905.905,0,0,0,0,.191,1.776,1.776,0,0,0,.97,1.175L260.93,339.55a3.089,3.089,0,0,0,.478.232h.082l.3.1h.342l.328.068h.847a.563.563,0,0,0,.15,0h.506a2.08,2.08,0,0,0,.287,0h.109l.342-.082h.437a2.419,2.419,0,0,0,.465-.219l38.263-22.22h.1l.109-.082.1-.068.109-.082h0l.137-.15h0l.082-.123h0a.409.409,0,0,1,0-.109h0v-.164h0a.3.3,0,0,1,0-.109v-1.626A3.552,3.552,0,0,1,304.769,314.5Z" transform="translate(57.266 96.138)" fill="url(#linear-gradient)"/>
    <path id="Path_210" data-name="Path 210" d="M298.695,317.557c.424.246.424.629,0,.875l-36.35,21.113a1.654,1.654,0,0,1-1.517,0l-24.065-13.9a.465.465,0,0,1,0-.875L273.1,303.659a1.654,1.654,0,0,1,1.517,0Z" transform="translate(58.448 92.097)" fill="url(#linear-gradient-2)"/>
    <path id="Path_211" data-name="Path 211" d="M151.49,227.013l53.637,31.157L242.844,236.4,189.22,205.23Z" transform="translate(27.304 56.086)" fill="#fff"/>
    <path id="Path_212" data-name="Path 212" d="M189.982,216.034l-8.445,4.906L170.85,217.8c2.993-3.416,10.194-4.769,16.1-3.034a13.583,13.583,0,0,1,3.034,1.271Z" transform="translate(34.401 59.303)" fill="#b391ff"/>
    <path id="Path_213" data-name="Path 213" d="M192.9,216c5.671,3.266,5.7,8.582.068,11.862a22.6,22.6,0,0,1-20.5,0c-4.537-2.624-5.6-6.436-2.733-9.743l12.928,3.813Z" transform="translate(33.409 60.033)" fill="#05ccff"/>
    <path id="Path_214" data-name="Path 214" d="M180.686,236.761c-.478.273-.478.711,0,.97a1.831,1.831,0,0,0,1.681,0l23.942-13.816c.478-.273.478-.7,0-.97a1.859,1.859,0,0,0-1.695,0Z" transform="translate(37.875 62.504)" fill="#adcdfc"/>
    <path id="Path_215" data-name="Path 215" d="M192.785,229.986a.519.519,0,0,0,0,.984,1.913,1.913,0,0,0,1.681,0l10.167-5.862a.519.519,0,0,0,0-.984,1.9,1.9,0,0,0-1.694,0Z" transform="translate(42.311 62.938)" fill="#d4d9df"/>
    <path id="Path_216" data-name="Path 216" d="M190.477,234.408a.506.506,0,0,0,0,.97,1.858,1.858,0,0,0,1.695,0l15.893-9.183c.478-.273.478-.7,0-.97a1.831,1.831,0,0,0-1.681,0Z" transform="translate(41.462 63.34)" fill="#05ccff"/>
    <g id="Group_85" data-name="Group 85" transform="translate(194.428 342.68)">
      <path id="Path_217" data-name="Path 217" d="M216.608,291.46l-.014,3.225L209.16,299l.014-3.225Z" transform="translate(-145.984 -254.987)" fill="#540cc7"/>
      <path id="Path_218" data-name="Path 218" d="M226.119,304.4l-.014,3.225L162.93,271.155l.014-3.225Z" transform="translate(-162.93 -263.612)" fill="#3f0995"/>
      <path id="Path_219" data-name="Path 219" d="M233.55,301.243l-7.434,4.318L162.94,269.088l7.42-4.318Z" transform="translate(-162.926 -264.77)" fill="#7974f5"/>
    </g>
    <g id="Group_86" data-name="Group 86" transform="translate(179.901 351.125)">
      <path id="Path_220" data-name="Path 220" d="M196.054,291.92l-.014,3.211-7.42,4.318v-3.225Z" transform="translate(-138.987 -263.263)" fill="#2689fd"/>
      <path id="Path_221" data-name="Path 221" d="M201.933,302.753v3.225L152.3,277.321l.014-3.211Z" transform="translate(-152.3 -269.792)" fill="#3548db"/>
      <path id="Path_222" data-name="Path 222" d="M209.363,299.607l-7.434,4.3L152.31,275.268l7.42-4.318Z" transform="translate(-152.296 -270.95)" fill="#58affb"/>
    </g>
    <g id="Group_87" data-name="Group 87" transform="translate(165.375 359.571)">
      <path id="Path_223" data-name="Path 223" d="M165.724,286.72l-.014,3.225-7.42,4.318v-3.225Z" transform="translate(-135.578 -273.615)" fill="#ee2c6a"/>
      <path id="Path_224" data-name="Path 224" d="M164.382,293.4v3.225L141.67,283.5V280.29Z" transform="translate(-141.67 -275.972)" fill="#ee428c"/>
      <path id="Path_225" data-name="Path 225" d="M171.816,290.235l-7.434,4.318L141.67,281.448l7.434-4.318Z" transform="translate(-141.67 -277.13)" fill="#ff3d9d"/>
    </g>
    <path id="Path_226" data-name="Path 226" d="M127.2,279.628a.82.82,0,0,0,0,1.544,2.924,2.924,0,0,0,2.651,0l37.744-21.8a.806.806,0,0,0,0-1.531,2.924,2.924,0,0,0-2.651,0Z" transform="translate(18.2 75.255)" fill="#adcdfc"/>
    <path id="Path_227" data-name="Path 227" d="M146.276,268.933a.82.82,0,0,0,0,1.544,2.952,2.952,0,0,0,2.665,0l16.016-9.238a.82.82,0,0,0,0-1.544,2.952,2.952,0,0,0-2.665,0Z" transform="translate(25.194 75.933)" fill="#adcdfc"/>
    <path id="Path_228" data-name="Path 228" d="M142.636,275.893a.82.82,0,0,0,0,1.544,2.979,2.979,0,0,0,2.733,0l25.049-14.458c.738-.437.752-1.121,0-1.544a2.924,2.924,0,0,0-2.651,0Z" transform="translate(23.859 76.571)" fill="#adcdfc"/>
    <g id="Group_88" data-name="Group 88" transform="translate(132.591 313.927)">
      <path id="Path_229" data-name="Path 229" d="M149.316,247.365l-5.986,3.485a21.632,21.632,0,0,0-19.3.15l-.314.191-6.04-3.485.314-.191C126.6,242.514,140.542,242.473,149.316,247.365Z" transform="translate(-117.68 -243.73)" fill="#7cccff"/>
      <path id="Path_230" data-name="Path 230" d="M143.119,246.79c7.12,4.455,7.858,11.1,2.186,15.989l-6.218-3.594c2.5-2.856,1.831-6.409-1.968-8.91Z" transform="translate(-110.554 -242.608)" fill="#7cccff"/>
      <path id="Path_231" data-name="Path 231" d="M151.373,259.953a19.385,19.385,0,0,1-1.954,1.3c-8.486,4.933-22.152,5.056-30.939.369l6-3.485a21.714,21.714,0,0,0,18.9-.369,10.657,10.657,0,0,0,1.858-1.367Z" transform="translate(-117.387 -239.085)" fill="#3eabff"/>
    </g>
    <path id="Path_232" data-name="Path 232" d="M124.515,250.558c-4.1,3.088-3.772,7.5.97,10.4l-6,3.485c-8.063-4.824-8.418-12.3-1.039-17.383Z" transform="translate(13.256 71.418)" fill="#3eabff"/>
    <path id="Path_233" data-name="Path 233" d="M238.067,133.9a11.014,11.014,0,0,1,4.988,8.623v48.226c0,3.17-2.255,4.455-5.015,2.856l-13.447-7.762-.656.916-2.624,3.69-2.6-6.71-.656-1.667-13.447-7.762a10.932,10.932,0,0,1-4.974-8.623V117.46c0-3.157,2.255-4.455,5-2.856Z" transform="translate(44.954 22.616)" fill="#58affb"/>
    <path id="Path_234" data-name="Path 234" d="M212.976,130.2v1.367a1.039,1.039,0,0,1-1.558.9l-6.409-3.717a1.066,1.066,0,0,1-.519-.9v-1.367a1.039,1.039,0,0,1,1.558-.9l6.4,3.717A1.039,1.039,0,0,1,212.976,130.2Z" transform="translate(46.731 26.838)" fill="#fff"/>
    <path id="Path_235" data-name="Path 235" d="M233.232,146.824v1.367a1.039,1.039,0,0,1-1.558.888L205,133.678a1.011,1.011,0,0,1-.519-.9v-1.367a1.039,1.039,0,0,1,1.558-.9l26.675,15.4a1.038,1.038,0,0,1,.519.916Z" transform="translate(46.728 28.645)" fill="#adcdfc"/>
    <path id="Path_236" data-name="Path 236" d="M211.206,142.991v1.558l-3.621,12.326-1.544-.888,3.594-12.3-4.715-2.733.014-1.585Z" transform="translate(46.889 31.945)" fill="#fff"/>
    <path id="Path_237" data-name="Path 237" d="M216.487,145.967v1.585l-4.1-2.35-.232,4.783c.437-.615,1.134-.67,2.063-.123a5.7,5.7,0,0,1,2.569,5.261v3.116c0,2.432-1.025,3.444-3.129,2.227a6.4,6.4,0,0,1-3.116-5.835v-1.066l1.462.847v1.175a3.444,3.444,0,0,0,1.613,3.239c1.093.642,1.626.068,1.626-1.367v-3.088a3.512,3.512,0,0,0-1.626-3.252c-.847-.492-1.367-.273-1.558.806v.369l-1.462-.847.41-8.637Z" transform="translate(48.947 33.206)" fill="#fff"/>
    <path id="Path_238" data-name="Path 238" d="M223.133,153.981a4.1,4.1,0,0,1,1.981,3.69v5c0,1.558-.615,2.227-1.981,1.435a4.1,4.1,0,0,1-1.981-3.731v-5C221.138,153.844,221.78,153.188,223.133,153.981Zm.97,8.2V157a2.173,2.173,0,0,0-.984-2c-.7-.41-1,0-1,.861v5.179a2.2,2.2,0,0,0,.984,2.022c.683.4.984,0,1-.888" transform="translate(52.837 37.176)" fill="#fff"/>
    <path id="Path_239" data-name="Path 239" d="M220.128,155.443c0,1.544-.642,2.2-2,1.367a4.1,4.1,0,0,1-1.981-3.7v-5.043c0-1.531.642-2.2,1.982-1.367a4.1,4.1,0,0,1,1.981,3.7Zm-1-.478v-5.207a2.2,2.2,0,0,0-.984-2.023c-.724-.41-.984,0-1,.888v5.193a2.118,2.118,0,0,0,.984,2c.7.41,1,0,1-.847" transform="translate(51.004 34.498)" fill="#fff"/>
    <path id="Path_240" data-name="Path 240" d="M223.217,149.08l.929.533L218.639,162.4l-.929-.533Z" transform="translate(51.577 35.504)" fill="#fff"/>
    <path id="Path_241" data-name="Path 241" d="M290.986,203.57c15.961,9.211,16.057,24.147.205,33.357s-41.652,9.211-57.6,0-16.016-24.147-.164-33.357S275.038,194.387,290.986,203.57Z" transform="translate(52.997 52.949)" fill="#adcdfc"/>
    <path id="Path_242" data-name="Path 242" d="M275.373,194.5l-.014,5.862-10.14,5.89.014-5.863Z" transform="translate(68.992 52.153)" fill="#cc096a"/>
    <path id="Path_243" data-name="Path 243" d="M245.579,204.238l.2-.082c.56-.219,1.148-.41,1.736-.588s.834-.246,1.244-.355.629-.191.957-.26.888-.2,1.367-.287.642-.15.97-.2l.41-.068,1.681-.232h.492q.984-.109,1.968-.164h5.439l1.121.1,1.216.137,1.08.15,1.285.232,1.367.26.314.082c.615.137,1.23.3,1.831.478l.506.164c.506.15,1,.328,1.476.506l.424.15c.437.164.861.355,1.285.547l.629.273c.6.287,1.2.6,1.776.929v-6.833c-.574-.328-1.162-.629-1.776-.929l-.629-.26c-.355-.164-.711-.328-1.093-.478l-.191-.068-.424-.164c-.478-.178-.97-.342-1.476-.506l-.506-.15-.342-.109-1.476-.383-.328-.068-.724-.164-.6-.109-1.285-.219-.519-.1h-.56l-1.216-.137-.574-.068h-5.9l-1.654.137h-.314l-.492.068c-.56.068-1.121.137-1.667.232l-.41.068h-.2l-.779.164c-.451.1-.9.178-1.367.287l-.943.26-1.257.355-.26.082c-.506.15-1,.328-1.476.519l-.2.082q-.793.3-1.558.656l-.437.219c-.56.26-1.107.547-1.64.847l-.287.178-.273.164-.437.287-.383.26-.41.287-.355.273-.383.3a3.325,3.325,0,0,0-.342.273l-.342.3-.15.123-.123.123c-.191.178-.369.369-.547.547l-.178.191c-.219.232-.424.478-.629.724h0l-.123.164-.342.465-.164.273a4.478,4.478,0,0,0-.273.424.3.3,0,0,1-.068.109.738.738,0,0,1-.1.178l-.178.369-.15.3c0,.123-.109.246-.15.369a.831.831,0,0,0-.068.164.669.669,0,0,0,0,.15,3.529,3.529,0,0,0-.109.355,2.735,2.735,0,0,0-.1.314,3.332,3.332,0,0,0-.082.355,1.007,1.007,0,0,0,0,.191v.123a.878.878,0,0,1-.068.369,2.727,2.727,0,0,0,0,.314,3.336,3.336,0,0,0,0,.369,1.1,1.1,0,0,0,0,.219s0,1.107,0,1.189v4.387a2.731,2.731,0,0,0,.068-.328,3.179,3.179,0,0,1,.1-.342l.082-.328.123-.342.123-.314a1.054,1.054,0,0,1,.15-.369c.055-.123.1-.2.137-.314a3.082,3.082,0,0,1,.191-.355l.164-.3.273-.424.164-.26c.109-.164.219-.314.342-.465l.15-.2c.191-.246.41-.492.629-.738l.178-.178.547-.547.273-.246.342-.314.342-.273.369-.3.369-.26a3.175,3.175,0,0,1,.41-.3l.383-.26.437-.273.56-.342q.793-.451,1.64-.861l.437-.2A3.794,3.794,0,0,1,245.579,204.238Z" transform="translate(58.009 52.431)" fill="#cc096a"/>
    <path id="Path_244" data-name="Path 244" d="M242.977,213.33l-.027,5.862-10.14,5.89.014-5.862Z" transform="translate(57.112 59.055)" fill="#cc096a"/>
    <path id="Path_245" data-name="Path 245" d="M224.47,211.849V206c0,5.753,3.785,11.52,11.4,15.92v5.862C228.255,223.369,224.456,217.6,224.47,211.849Z" transform="translate(54.055 56.368)" fill="none"/>
    <path id="Path_246" data-name="Path 246" d="M235.877,221.907v5.862c-7.612-4.4-11.411-10.167-11.4-15.92V206c0,5.753,3.785,11.52,11.4,15.92" transform="translate(54.059 56.368)" fill="#cc096a"/>
    <path id="Path_247" data-name="Path 247" d="M290.306,196.258l-10.14,5.89c-9.566-5.466-24.83-5.466-34.259,0s-9.375,14.362.109,19.842l-10.14,5.89c-15.128-8.732-15.2-22.89-.178-31.622S275.178,187.512,290.306,196.258Z" transform="translate(54.06 50.395)" fill="#ff5668"/>
    <path id="Path_248" data-name="Path 248" d="M265.23,200.12v4.1c4.769,2.733,7.147,6.368,7.147,9.989v-5.876C272.391,204.7,270,202.88,265.23,200.12Z" transform="translate(68.996 54.213)" fill="#3278cc"/>
    <path id="Path_249" data-name="Path 249" d="M275.305,220.65l-.027,4.072-10.208-5.89.027-4.072Z" transform="translate(68.937 59.579)" fill="#3278cc"/>
    <path id="Path_250" data-name="Path 250" d="M284.053,206.809a4.252,4.252,0,0,1,0,.588v.506a1.269,1.269,0,0,1-.1.574,1.859,1.859,0,0,0-.109.519c-.041.178-.082.369-.137.56s-.1.342-.15.506-.109.369-.178.56-.123.328-.191.506l-.246.574c-.068.164-.15.328-.232.492l-.3.588-.26.465c-.123.232-.273.451-.424.683s-.164.273-.26.41-.355.506-.547.752l-.246.328c-.314.383-.642.779-1,1.162l-.287.3-.875.861-.424.4-.56.492-.533.437-.6.478-.574.424c-.2.15-.424.314-.656.465l-.615.41-.7.451-.888.547-.3.164v5.862l.3-.164.478-.287.424-.26.7-.451.615-.41.656-.465.574-.424.6-.478.533-.437.56-.492.232-.2a2.538,2.538,0,0,0,.191-.191l.875-.861.273-.3c.355-.383.7-.779,1.011-1.162h0c.068-.1.123-.178.2-.273s.369-.492.533-.752.191-.273.273-.41l.424-.683.123-.191.137-.273c.109-.191.2-.4.3-.588l.232-.492.246-.574a1.48,1.48,0,0,1,.109-.26l.082-.246a2.4,2.4,0,0,1,.178-.56c.055-.191.109-.342.15-.506s.1-.369.137-.56a2.584,2.584,0,0,0,0-.314v-.2a4.184,4.184,0,0,1,.1-.574,3.117,3.117,0,0,0,0-.506v-.588a2.739,2.739,0,0,0,0-.342v-6.2A1,1,0,0,1,284.053,206.809Z" transform="translate(71.723 56.434)" fill="#3278cc"/>
    <path id="Path_251" data-name="Path 251" d="M275.421,195.81c15.128,8.732,15.2,22.89.178,31.622l-.3.164-10.208-5.89.3-.164c9.429-5.466,9.375-14.362-.109-19.842Z" transform="translate(68.944 52.633)" fill="#58affb"/>
    <path id="Path_252" data-name="Path 252" d="M270.816,225.085l1.257-.506.738-.314,1.285-.6.615-.287c.615-.314,1.23-.629,1.817-.97V221.04c-.6.342-1.2.67-1.831.97-.191.109-.41.2-.615.3l-1.285.588-.738.314-1.257.506-.779.3-1.367.451-.834.273-.629.191-1.175.342-.656.178-1.257.3-.588.137c-.6.15-1.244.273-1.858.4v1.367l1.845-.4.588-.137,1.257-.314.656-.178,1.175-.328.629-.191.328-.109.506-.164,1.367-.465Z" transform="translate(67.687 61.881)" fill="#e2a029"/>
    <path id="Path_253" data-name="Path 253" d="M277.794,222.67a48.758,48.758,0,0,1-14.8,5.248l-4.715-7.885a30.76,30.76,0,0,0,9.306-3.252Z" transform="translate(66.448 60.319)" fill="#ffbe3d"/>
    <path id="Path_254" data-name="Path 254" d="M270.66,225.85l-1.162.178-1.367.178-1.162.137c-.724.082-1.449.137-2.173.191h-.191c-.806,0-1.613.1-2.432.123H256.68c-.779,0-1.544-.1-2.323-.164h-.6l-1.79-.191-.642-.082c-.779-.109-1.544-.219-2.3-.355h0l-2.241-.437-.793-.178-1.517-.369-.82-.219-1.285-.369-1.175-.369-1.175-.4-1.134-.424-1.695-.67h-.164l-1.913-1.107-.451-.232q-.943-.478-1.845-.984v2.446q.9.519,1.845.984l.437.232c.629.3,1.257.6,1.913.875h.164l1.244.519.451.164c.369.15.752.287,1.134.41l1.162.41,1.175.369.724.219.574.15.82.219,1.517.369.779.178h.355q.943.2,1.886.369h0l1.9.3h.4a1.769,1.769,0,0,1,.642.082c.588.082,1.189.15,1.777.2h.929c.67,0,1.367.109,2.009.137h5.7l2.173-.109h.2l1.913-.164h.26l1.162-.137,1.367-.178,1.162-.191,1-.15.67-.123v-2.132C271.78,225.672,271.22,225.754,270.66,225.85Z" transform="translate(57.116 61.54)" fill="#7974f5"/>
    <path id="Path_255" data-name="Path 255" d="M267.612,219.265l4.715,7.871c-13.406,2.583-28.793.779-39.507-5.466l10.14-5.89C249.656,219.7,259.235,220.836,267.612,219.265Z" transform="translate(57.116 59.953)" fill="#b391ff"/>
    <path id="Path_256" data-name="Path 256" d="M277.8,53.491l-.328-.2-.4-.2-.4-.191-.383-.164-.4-.15h-.1l-.287-.1-.4-.109-.4-.082-.424-.068h-1.38a3.689,3.689,0,0,0-.56.082h0a3.443,3.443,0,0,0-.642.178,4.019,4.019,0,0,0-.779.355l-6.409,3.717a4.686,4.686,0,0,1,1.367-.533h0a6.341,6.341,0,0,1,1.626-.082h0a7.516,7.516,0,0,1,1.79.383h0a11.505,11.505,0,0,1,1.941.888L450,160.41l6.4-3.717Z" transform="translate(68.739 0)" fill="url(#linear-gradient-3)"/>
    <path id="Path_257" data-name="Path 257" d="M416.306,144.829v-1.408a1.162,1.162,0,0,0-.068-.478h0a.934.934,0,0,0-.082-.465c-.082-.15,0-.342-.1-.506l-.123-.506a1.743,1.743,0,0,0-.137-.506,3.347,3.347,0,0,0-.109-.4h0v-.082l-.164-.492a1.429,1.429,0,0,0-.178-.492c-.068-.164-.109-.314-.178-.478l-.178-.465-.164-.355h0v-.082c-.068-.15-.137-.314-.219-.465a4.282,4.282,0,0,0-.246-.506l-.287-.574-.342-.615-.068-.109-.068-.123c-.232-.4-.465-.765-.711-1.148l-.615-.861-.437-.574-.369-.451-.369-.437c-.123-.137-.246-.287-.383-.424l-.068-.068h0l-.287-.3-.41-.4-.424-.4-.437-.383-.219-.178h0l-.164-.123-.424-.328-.424-.3-.41-.273-.41-.246h-.1l-6.4,3.717a15.756,15.756,0,0,1,1.927,1.367h0a18.207,18.207,0,0,1,1.776,1.654h0a22.113,22.113,0,0,1,3.02,4.1v.109a20.26,20.26,0,0,1,1.134,2.241h0a22.447,22.447,0,0,1,.875,2.364h0a18.635,18.635,0,0,1,.547,2.378h0a15.413,15.413,0,0,1,.191,2.35l-.451,122.06a12.3,12.3,0,0,1-.205,2.077h0a6.829,6.829,0,0,1-.547,1.695h0a5.263,5.263,0,0,1-.724,1.121,3.063,3.063,0,0,1-.26.328,4.906,4.906,0,0,1-1.052.875l6.4-3.717a4.592,4.592,0,0,0,1.052-.875l.273-.328a5.364,5.364,0,0,0,.342-.437,5.078,5.078,0,0,0,.369-.656v-.082l.2-.478.164-.519a4.226,4.226,0,0,0,.137-.492v-.2h0a1.1,1.1,0,0,0,0-.2,1.132,1.132,0,0,1,.068-.465c.068-.164,0-.3,0-.465v-.929h0l.342-122.129Z" transform="translate(118.597 28.085)" fill="url(#linear-gradient-4)"/>
    <path id="Path_258" data-name="Path 258" d="M450.98,159.417a21.209,21.209,0,0,1,9.566,16.672l-.287,122.183c0,6.122-4.359,8.6-9.689,5.466L271.826,200.551a21.236,21.236,0,0,1-9.566-16.672L262.6,61.75c0-6.122,4.359-8.6,9.689-5.466Z" transform="translate(67.907 0.992)" fill="#343996"/>
    <path id="Path_259" data-name="Path 259" d="M378.376,103.567a6.7,6.7,0,0,1,3.02,5.234l-.109,38.386c0,1.927-1.367,2.733-3.047,1.736L322.06,116.481a6.614,6.614,0,0,1-3.02-5.234l.109-38.386c0-1.927,1.367-2.733,3.034-1.736Z" transform="translate(88.72 6.772)" fill="#2689fd"/>
    <path id="Path_260" data-name="Path 260" d="M287.544,83.912v1.749a1.367,1.367,0,0,1-2,1.148l-8.2-4.769a1.366,1.366,0,0,1-.67-1.162V79.143a1.367,1.367,0,0,1,2-1.162l8.2,4.769A1.366,1.366,0,0,1,287.544,83.912Z" transform="translate(73.193 9.386)" fill="#fff"/>
    <path id="Path_261" data-name="Path 261" d="M313.55,105.267V107a1.367,1.367,0,0,1-2,1.162L277.3,88.39a1.367,1.367,0,0,1-.656-1.162V85.479a1.367,1.367,0,0,1,2-1.148l34.259,19.774A1.367,1.367,0,0,1,313.55,105.267Z" transform="translate(73.178 11.714)" fill="#1ae5ff"/>
    <path id="Path_262" data-name="Path 262" d="M273.1,143.236l13.624-6.956,8.924,14.4L305.6,160.8l9.948-6,21.263-6.86,9.607,13.72,9.593,7.885,8.746,12.859,11.834-24.858,14.4,6.86,7.557-6.177,15.606,4.113,23.149-2.05" transform="translate(71.88 30.812)" fill="none" stroke="#16c5dc" stroke-miterlimit="10" stroke-width="1"/>
    <path id="Path_263" data-name="Path 263" d="M335.582,84.406c-5.179-2.993-10.071-2.227-12.094,2.487-2.542,5.89.342,15.8,6.436,22.657l1.367-3.293c-4.1-4.81-6.054-11.629-4.3-15.7,1.367-3.321,4.879-3.854,8.527-1.749a15.552,15.552,0,0,1,2.733,2.009l1.367-3.293A20.868,20.868,0,0,0,335.582,84.406Z" transform="translate(90.011 11.147)" fill="#f1f1f1"/>
    <path id="Path_264" data-name="Path 264" d="M337.658,86.21,336.291,89.5c.219.2.451.424.67.656,4.687,4.838,6.983,12.3,5.125,16.6l-.219.451-.1.15c-1.367,2.391-3.949,2.979-6.833,1.818a9.8,9.8,0,0,1-1.367-.67l-.369-.219-.56-.369h-.082a11.73,11.73,0,0,1-1.107-.861l-.137-.123-.41-.369a1.553,1.553,0,0,1-.178-.15l-.533-.519q-.424-.424-.82-.9l-1.367,3.293.82.888.765.752.219.2c.191.178.383.355.588.519a1.176,1.176,0,0,0,.191.178c.519.437,1.052.847,1.571,1.216l.123.1.724.465h.082l.492.3c.383.219.765.424,1.162.6l.834.369c4.4,1.749,8.336.642,10.1-3.457,2.651-6.149-.615-16.7-7.27-23.559Z" transform="translate(92.008 12.459)" fill="#fdb913"/>
    <path id="Path_265" data-name="Path 265" d="M351.57,100.427v1.011a.779.779,0,0,1-1.162.67l-4.742-2.733a.765.765,0,0,1-.4-.67V97.693a.765.765,0,0,1,1.148-.656l4.756,2.733a.752.752,0,0,1,.4.656Z" transform="translate(98.334 16.39)" fill="#fff"/>
    <path id="Path_266" data-name="Path 266" d="M366.606,112.783v1.011a.765.765,0,0,1-1.162.656l-19.788-11.424a.765.765,0,0,1-.4-.67v-1.011a.779.779,0,0,1,1.148-.67l19.815,11.411A.765.765,0,0,1,366.606,112.783Z" transform="translate(98.33 17.727)" fill="#fff"/>
    <g id="Group_89" data-name="Group 89" transform="translate(443.563 128.339)" opacity="0.53">
      <path id="Path_267" data-name="Path 267" d="M358.427,115.408v1.011a.779.779,0,0,1-1.162.656l-11.629-6.71a.765.765,0,0,1-.4-.67v-1.011a.779.779,0,0,1,1.148-.67l11.643,6.723a.793.793,0,0,1,.4.67Z" transform="translate(-345.24 -107.922)" fill="#fff"/>
    </g>
    <path id="Path_268" data-name="Path 268" d="M363.521,114.691V115.7a.765.765,0,0,1-1.162.656l-16.713-9.7a.765.765,0,0,1-.4-.67v-1.011a.779.779,0,0,1,1.148-.67l16.727,9.662a.752.752,0,0,1,.4.724Z" transform="translate(98.327 19.058)" fill="#58affb"/>
    <path id="Path_269" data-name="Path 269" d="M396.1,144.965c-5.767-3.334-10.468-.656-10.482,5.972s4.646,14.69,10.413,18.025,10.454.67,10.468-5.958A22.944,22.944,0,0,0,396.1,144.965Z" transform="translate(113.124 33.47)" fill="#ff4272"/>
    <path id="Path_270" data-name="Path 270" d="M394.542,149.563c-2.6-1.5-4.728-.287-4.742,2.733a10.386,10.386,0,0,0,4.715,8.2c2.61,1.5,4.728.3,4.728-2.733a10.358,10.358,0,0,0-4.7-8.2Z" transform="translate(114.657 35.445)" fill="#212973"/>
    <path id="Path_271" data-name="Path 271" d="M288.167,100.486v1.79a1.367,1.367,0,0,1-2.063,1.189l-8.486-4.892a1.367,1.367,0,0,1-.7-1.189v-1.79a1.367,1.367,0,0,1,2.064-1.2l8.5,4.892A1.367,1.367,0,0,1,288.167,100.486Z" transform="translate(73.28 15.388)" fill="#1ce5ff"/>
    <path id="Path_272" data-name="Path 272" d="M315.06,122.391v1.8a1.367,1.367,0,0,1-2.05,1.2l-35.394-20.225a1.367,1.367,0,0,1-.7-1.189v-1.8a1.367,1.367,0,0,1,2.064-1.189l35.394,20.28A1.367,1.367,0,0,1,315.06,122.391Z" transform="translate(73.281 17.807)" fill="#1ce5ff"/>
    <g id="Group_90" data-name="Group 90" transform="translate(350.214 136.427)" opacity="0.53">
      <path id="Path_273" data-name="Path 273" d="M300.476,127.15v1.8a1.367,1.367,0,0,1-2.064,1.189l-20.8-11.916a1.367,1.367,0,0,1-.683-1.189v-1.8a1.367,1.367,0,0,1,2.064-1.2l20.8,11.93A1.367,1.367,0,0,1,300.476,127.15Z" transform="translate(-276.93 -113.84)" fill="#1ce5ff"/>
    </g>
    <path id="Path_274" data-name="Path 274" d="M309.577,125.818v1.8a1.367,1.367,0,0,1-2.064,1.189l-29.9-17.137a1.367,1.367,0,0,1-.683-1.189v-1.8a1.367,1.367,0,0,1,2.05-1.2l29.9,17.178A1.367,1.367,0,0,1,309.577,125.818Z" transform="translate(73.284 20.188)" fill="#1ce5ff"/>
    <g id="Group_91" data-name="Group 91" transform="translate(456.734 236.595)">
      <path id="Path_275" data-name="Path 275" d="M374.526,210.971l4.824-2.8-.1,32.756-4.824,2.8Z" transform="translate(-347.711 -179.431)" fill="#00a935"/>
      <path id="Path_276" data-name="Path 276" d="M387.194,217.805v-.287h0v-.287h0l-15.032-29.9h0v-.068l-.082-.123h-.506l-4.824,2.8a.41.41,0,0,1,.287,0h0a1.079,1.079,0,0,1,.314.109,1.435,1.435,0,0,1,.355.3h0a2.065,2.065,0,0,1,.3.437l15.032,29.9a1.436,1.436,0,0,1,.15.424h0a1.091,1.091,0,0,1,0,.355h0a.711.711,0,0,1-.082.273h0a.41.41,0,0,1-.164.178l4.824-2.8a.641.641,0,0,0,.137-.137h0v-.164h0Z" transform="translate(-350.526 -187.14)" fill="#61e041"/>
      <path id="Path_277" data-name="Path 277" d="M370.856,188.72a1.667,1.667,0,0,1,.656.738l15.032,29.9c.451.888,0,1.613-.656,1.2l-4.182-2.419-.1,32.8-21.933-12.668.082-32.8-4.031-2.337c-.724-.41-1.107-1.585-.656-1.954l15.141-12.49a.574.574,0,0,1,.642.027Z" transform="translate(-354.878 -186.602)" fill="#00cc41"/>
    </g>
    <path id="Path_278" data-name="Path 278" d="M252.61,242.74l43.415,44.3,42.158-10.96-43.415-44.3Z" transform="translate(64.37 65.818)" fill="#fff"/>
    <g id="Group_92" data-name="Group 92" transform="translate(342.316 307.051)">
      <path id="Path_279" data-name="Path 279" d="M292.079,242.91l-4.1,1.572a13.912,13.912,0,0,0-12.217-1.927l-.219.1-3.444-2.842.219-.082a22.357,22.357,0,0,1,19.76,3.184Z" transform="translate(-270.802 -238.698)" fill="#e2edff"/>
      <path id="Path_280" data-name="Path 280" d="M288.214,242.11c4.031,3.567,3.8,7.844-.3,10.331l-3.553-2.924c1.886-1.544,1.845-3.854-.3-5.835Z" transform="translate(-266.418 -237.447)" fill="#e2edff"/>
      <path id="Path_281" data-name="Path 281" d="M292.1,250.967a9.8,9.8,0,0,1-1.367.615c-5.876,2.227-14.513.861-19.583-3.02l4.1-1.572a13.911,13.911,0,0,0,11.985,1.763,7.051,7.051,0,0,0,1.367-.656Z" transform="translate(-271.15 -235.659)" fill="#3eabff"/>
    </g>
    <path id="Path_282" data-name="Path 282" d="M276.219,242.556c-2.911,1.517-3.17,4.346-.478,6.669l-4.168,1.572c-4.578-3.895-4.018-8.691,1.189-11.1Z" transform="translate(70.183 68.721)" fill="#3eabff"/>
    <path id="Path_283" data-name="Path 283" d="M283.982,400.17s-3.4,2.337-.2,7.871,5.958,2.132,13.187,7.666,9.784,6.587,13.665,6.163,6.177-2.337,6.833-4.469-1.271-5.74-1.271-5.74Z" transform="translate(75.292 127.541)" fill="#94a3c0"/>
    <path id="Path_284" data-name="Path 284" d="M314.387,401.317s1.49,7.229,2.337,12.764c.219,2.555-3.184,6.026-8.076,5.808s-7.666-1.695-9.361-3.826-12.3-6.245-14.253-7.94-2.337-6.833-1.49-8.09a6.437,6.437,0,0,1,7.448-1.913c3.4,1.49,6.163,4.264,12.969,4.687S314.387,401.317,314.387,401.317Z" transform="translate(75.553 126.613)" fill="#382747"/>
    <path id="Path_285" data-name="Path 285" d="M308.682,386.68s-3.4,2.337-.2,7.871,5.958,2.132,13.187,7.666,9.784,6.587,13.665,6.163,6.177-2.337,6.833-4.469-1.271-5.74-1.271-5.74Z" transform="translate(84.346 122.596)" fill="#94a3c0"/>
    <path id="Path_286" data-name="Path 286" d="M339.069,387.827s1.49,7.229,2.337,12.764c.219,2.555-3.184,6.026-8.076,5.808s-7.666-1.695-9.361-3.826-12.3-6.245-14.253-7.94-2.351-6.833-1.49-8.09a6.436,6.436,0,0,1,7.448-1.913c3.4,1.49,6.163,4.264,12.969,4.687S339.069,387.827,339.069,387.827Z" transform="translate(84.598 121.668)" fill="#382747"/>
    <path id="Path_287" data-name="Path 287" d="M311.533,348.93c1.708,13.665,8.514,49.346,9.648,61.836,0,0,2.842,4.537,11.342,3.4l4.1-1.681a3.908,3.908,0,0,0,2.378-4.1c-.847-6.833-2.733-24.215-1.886-34.492,1.134-13.051-2.268-20.99-2.268-20.99.287-4.264.861-19.009-7.653-22.972,0,0-20.854-3.84-15.606,19" transform="translate(85.677 101.707)" fill="#14347c"/>
    <path id="Path_288" data-name="Path 288" d="M337.759,336.419l-2.268,4.537s-34.9,1.708-44.194,11.916c0,0-6.245,1.134-4.537,14.745s8.5,49.36,9.634,61.836c0,0,2.842,4.537,11.342,3.4l4.1-1.681a3.936,3.936,0,0,0,2.391-4.1c-.861-6.833-2.733-24.215-1.886-34.492,1.134-13.051-2.268-20.99-2.268-20.99a178.01,178.01,0,0,1,31.759,9.634c16.4,6.833,30.638-1.134,36.9-4.537a40.614,40.614,0,0,0,8.514-5.671,25.965,25.965,0,0,0,15.319-6.232c7.366-6.245,8.5-22.7.56-32.333S337.759,336.419,337.759,336.419Z" transform="translate(76.779 101.455)" fill="#18388f"/>
    <path id="Path_289" data-name="Path 289" d="M333.12,277.49s5.63-2.091,5.261-9.566c-1.708-7.42-3.772-7.912-3.772-7.912s7.885-7.3,17.4-5c0,0,5.876,11.93,12.518,17.027C364.523,271.982,359.207,285.99,333.12,277.49Z" transform="translate(93.881 74.169)" fill="#ce7c56"/>
    <path id="Path_290" data-name="Path 290" d="M347.129,279.261s20.84-17.437,25.09-17.874c5.111-.424,11.493,1.285,13.187,8.514a13.365,13.365,0,0,1-5.945,14.9c-3.84,2.118-37.443,18.284-43.4,18.284s-9.784-5.1-5.958-11.479S347.129,279.261,347.129,279.261Z" transform="translate(92.212 76.648)" fill="#44aacb"/>
    <path id="Path_291" data-name="Path 291" d="M355.591,266.777s-22.124,7.379-28.37,17.587-5.111,21.55-.56,37.43-4.551,30.064-2.282,38.578,18.161,16.4,41.42,12.477,24.953-13.037,26.661-18.148-4.537-29.49,1.134-49.346-5.671-33.467-10.208-36.9S369.762,260.532,355.591,266.777Z" transform="translate(90.131 77.502)" fill="#4c9fc5"/>
    <path id="Path_292" data-name="Path 292" d="M383.1,268.482c-4.551-3.416-13.665-7.953-27.8-1.708,0,0-22.124,7.379-28.37,17.587a28.288,28.288,0,0,0-3.28,7.666c8.951-11.643,21.66-16.754,29.941,3.116,7.721,18.53-11.93,73.015-29.094,55.878-.724,3.58-1.107,6.737-.41,9.347,2.282,8.514,18.161,16.4,41.42,12.477s24.953-13.037,26.661-18.148-4.537-29.49,1.134-49.346S387.642,271.885,383.1,268.482Z" transform="translate(90.413 77.505)" fill="#aadff1"/>
    <path id="Path_293" data-name="Path 293" d="M331.35,277.351s5.958,3.826,20.854,1.695,15.743-12.764,14.458-13.665a27.863,27.863,0,0,1-3.826-4.25s-15.743,7.229-21.277,9.361-8.5,3.4-8.5,3.4Z" transform="translate(93.232 76.576)" fill="#fff"/>
    <path id="Path_294" data-name="Path 294" d="M324.209,245.142s-1.271,15.319,6.833,25.527,16.139,4.264,21.25,1.722,7.229-6.833,8.937-19.132S362.924,229,354,225.177s-18.722-4.674-24.256,4.674S324.209,245.142,324.209,245.142Z" transform="translate(90.588 62.404)" fill="#ffaa83"/>
    <path id="Path_295" data-name="Path 295" d="M330.772,228.353s-7.229,5.466-6.833,13.665-2.132,9.361-1.271,13.665,7.653,5.535,8.076,11.493,9.361,8.076,14.034,9.784,12.3-3.84,14.472-6.833,1.708-10.645,4.25-17.451,1.285-15.319-.847-21.277-6.382-7.229-6.382-7.229a10.372,10.372,0,0,0-7.229-5.466C343.959,217.708,328.216,218.569,330.772,228.353Z" transform="translate(89.984 60.908)" fill="#4d2c63"/>
    <g id="Group_93" data-name="Group 93" transform="translate(407.596 515.924)">
      <path id="Path_296" data-name="Path 296" d="M400.257,410.151c-.765,8.582-8.842,14.417-16.139,17.56a62.014,62.014,0,0,1-25.267,4.687,59.951,59.951,0,0,1-25.691-5.7c-6.915-3.4-14.267-9.566-14.239-17.97,0,6.122.41,11.165,4.824,15.948,5.671,6.136,14.212,9.443,22.234,11.11,15.674,3.239,37.02,1.667,48.922-10.4,4.8-4.851,5.466-9.962,5.466-16.4C400.339,409.359,400.312,409.755,400.257,410.151Z" transform="translate(-318.92 -385.246)" fill="#adcdfc"/>
      <path id="Path_297" data-name="Path 297" d="M388.326,398.453c15.961,9.211,16.057,24.147.219,33.357s-41.666,9.211-57.614,0-16.016-24.147-.164-33.357S372.323,389.242,388.326,398.453Z" transform="translate(-318.919 -391.545)" fill="#e2edff"/>
    </g>
    <g id="Group_94" data-name="Group 94" transform="translate(442.976 500.598)">
      <path id="Path_298" data-name="Path 298" d="M355.727,382.98l-.109,35.6L349.4,422.2l.1-35.6Z" transform="translate(-343.128 -379.359)" fill="#c7d8f2"/>
      <path id="Path_299" data-name="Path 299" d="M351.178,386.6l-.1,35.6-6.272-3.621.1-35.6Z" transform="translate(-344.81 -379.359)" fill="#7baeff"/>
      <path id="Path_300" data-name="Path 300" d="M357.384,383.951l-6.231,3.621-6.272-3.621,6.231-3.621Z" transform="translate(-344.784 -380.33)" fill="#4da5dc"/>
    </g>
    <path id="Path_301" data-name="Path 301" d="M446.4,295.946a7.311,7.311,0,0,0-9.73-6.655c-20.348,7.133-66.961,24.038-69.981,30.064-2.856,5.712-12.08,37.621-16.631,53.6a7.311,7.311,0,0,1-10.768,4.291L311.1,360.625a7.325,7.325,0,0,0-10.932,7.516l4.523,27.153a7.311,7.311,0,0,0,3.58,5.152l30.16,17.328a58.024,58.024,0,0,0,54.826,1.585l23.231-11.629a58,58,0,0,0,32.018-53.992Z" transform="translate(81.765 86.747)" fill="#3278cc"/>
    <path id="Path_302" data-name="Path 302" d="M366.69,311.5c-2.856,5.712-12.08,37.621-16.631,53.6a7.311,7.311,0,0,1-10.768,4.291L311.1,352.772a7.325,7.325,0,0,0-10.932,7.516l4.523,27.153a7.5,7.5,0,0,0,.574,1.8c.355.574.724,1.134,1.093,1.695a7.176,7.176,0,0,0,1.913,1.654l30.16,17.328a58.2,58.2,0,0,0,20.4,7.079c24.461-18.981,21.373-98.228,12.5-104.883a12.3,12.3,0,0,0-3.485-1.927,4.674,4.674,0,0,0-1.162,1.312Z" transform="translate(81.765 94.559)" fill="#3aaeef"/>
    <path id="Path_303" data-name="Path 303" d="M313.919,298.347s20.84-17.437,25.1-17.861c5.1-.424,11.479,1.271,13.187,8.514a13.365,13.365,0,0,1-5.958,14.882c-3.826,2.132-37.443,18.3-43.4,18.3s-9.784-5.111-5.958-11.493S313.919,298.347,313.919,298.347Z" transform="translate(80.038 83.649)" fill="#52abca"/>
    <path id="Path_304" data-name="Path 304" d="M294.5,279.391a15.522,15.522,0,0,1-1.285-3.621c-.2-1.489.642-3.4-.2-6.833s-2.35-6.382-2.979-8.719c-1.708-2.132-3.2,1.695-1.913,4.892s.847,5.1-.424,5.316-6.6-2.979-8.09-4.674-10-10-10.85-8.937-.847,2.118,2.132,5.316,4.1,4.674,4.25,5.535a14.242,14.242,0,0,0,1.066,4.25c1.066,2.555.219,4.25,2.132,6.6s5.466,2.733,7.229,4.25l1.695,1.49Z" transform="translate(70.108 74.96)" fill="#ffaa83"/>
    <path id="Path_305" data-name="Path 305" d="M308.332,325.3s-8.924,1.694-13.747-8.2-13.051-36.582-14.185-39.138A10.741,10.741,0,0,1,290.321,272s7.953,15.592,12.49,22.685S323.583,322.427,308.332,325.3Z" transform="translate(74.556 80.559)" fill="#488db6"/>
    <path id="Path_306" data-name="Path 306" d="M204.7,191.225s2.733-1.763,4.414-1.257a73.5,73.5,0,0,0,9.074,1.517c1.763.123,5.3-3.034,5.931-3.539s1.011-1.64,1.763-2.391,1.134-.629,1.134-2.009,1.367-2.651,2.009-3.28,3.157-2.145,2.911-3.28-1.517-.506-2.268-.26-3.662,2.911-4.92,3.662a15.8,15.8,0,0,1-5.794,1.886,12.86,12.86,0,0,1-2.911-.369s-.369,0,1.134-.506a19.533,19.533,0,0,1,3.662-.383c1.257-.246,1.886-1.011,1.763-1.64s-1.763-.629-2.391-.629a50.945,50.945,0,0,1-5.931-.123c-1.5-.26-4.031,2.268-4.537,2.733a11.958,11.958,0,0,1-4.537,1.367C203.841,182.9,204.7,191.225,204.7,191.225Z" transform="translate(46.711 45.492)" fill="#ff9f75"/>
    <path id="Path_307" data-name="Path 307" d="M165.082,189.083s2.637,8.7,13.665,8.377,38.468-5.466,41.256-5.6a10.755,10.755,0,0,0,.67-11.561s-17.506.2-25.964-.519S160.559,174.324,165.082,189.083Z" transform="translate(32.092 46.282)" fill="#e1e8f2"/>
    <path id="Path_308" data-name="Path 308" d="M129.965,208.163s-4.605-26.8-7.571-29.873c-3.621-3.621-9.566-6.45-15.565-2.036a13.351,13.351,0,0,0-5.1,15.2c1.544,4.1,16.713,38.181,21.263,42.035s10.755,2.432,11.971-4.906S129.965,208.163,129.965,208.163Z" transform="translate(8.817 44.639)" fill="#e1e8f2"/>
    <path id="Path_309" data-name="Path 309" d="M156.4,209.6s3.621.219,4.892.219,11.069-.847,12.764-.847,1.708,1.913,1.708,1.913a13.2,13.2,0,0,1,1.695,3.826,10.289,10.289,0,0,0,.437,3.621c.424,1.066-.219,1.913-.642,2.733s-1.49,1.271-2.555,1.913a3.416,3.416,0,0,1-3.184.219c-.861-.424-.861-.642.2-1.285a10.606,10.606,0,0,0,1.913-1.49,5.753,5.753,0,0,1-3.184,1.49,13.761,13.761,0,0,1-6.6-.629l-4.674-2.35-3.4-.424Z" transform="translate(28.873 57.457)" fill="#ff9f75"/>
    <path id="Path_310" data-name="Path 310" d="M116.721,217.721s2.637,8.7,13.665,8.377,38.468-5.466,41.256-5.6a10.727,10.727,0,0,0,.67-11.547s-17.505.191-25.9-.533S112.2,202.976,116.721,217.721Z" transform="translate(14.367 56.781)" fill="#e1e8f2"/>
  </g>
</svg>
