<svg xmlns="http://www.w3.org/2000/svg" width="94.675" height="115" viewBox="0 0 94.675 115">
  <g id="Layer_2" transform="translate(151.035 -13.5) rotate(90)">
    <g id="Group_354" data-name="Group 354" transform="translate(13.5 56.36)">
      <g id="Group_353" data-name="Group 353" transform="translate(0 0)">
        <g id="Group_341" data-name="Group 341">
          <path id="Path_984" data-name="Path 984" d="M39.013,139.108a1.659,1.659,0,0,1-1.66-1.66,10.267,10.267,0,1,0-20.534,0,1.66,1.66,0,0,1-3.32,0v-67.5a13.587,13.587,0,0,1,27.173,0v67.5A1.659,1.659,0,0,1,39.013,139.108ZM27.087,123.861a13.558,13.558,0,0,1,10.267,4.7V69.947a10.267,10.267,0,0,0-20.534,0v58.612A13.558,13.558,0,0,1,27.087,123.861Z" transform="translate(-13.5 -56.36)" fill="#0f4c81"/>
        </g>
        <g id="Group_342" data-name="Group 342" transform="translate(0 11.927)">
          <path id="Path_985" data-name="Path 985" d="M126.84,189.408a1.659,1.659,0,0,1-1.66-1.66V109.98H40.673v65.842a1.66,1.66,0,0,1-3.32,0,10.267,10.267,0,1,0-10.267,10.267h90.262a1.66,1.66,0,0,1,0,3.32H27.087a13.587,13.587,0,1,1,10.267-22.476V108.32a1.659,1.659,0,0,1,1.66-1.66H126.84a1.659,1.659,0,0,1,1.66,1.66v79.428A1.659,1.659,0,0,1,126.84,189.408Z" transform="translate(-13.5 -106.66)" fill="#0f4c81"/>
        </g>
        <g id="Group_350" data-name="Group 350" transform="translate(32.809 22.974)">
          <g id="Group_343" data-name="Group 343">
            <path id="Path_986" data-name="Path 986" d="M169.755,172.8H153.53a1.659,1.659,0,0,1-1.66-1.66V154.91a1.659,1.659,0,0,1,1.66-1.66h16.226a1.659,1.659,0,0,1,1.66,1.66v16.226A1.66,1.66,0,0,1,169.755,172.8Zm-14.566-3.32H168.1V156.57H155.19Z" transform="translate(-151.87 -153.25)" fill="#0f4c81"/>
          </g>
          <g id="Group_344" data-name="Group 344" transform="translate(0 26.277)">
            <path id="Path_987" data-name="Path 987" d="M183.8,297.66H171.51a1.66,1.66,0,1,1,0-3.32h10.63V267.39H155.19v26.95H157.4a1.66,1.66,0,0,1,0,3.32H153.53a1.659,1.659,0,0,1-1.66-1.66V265.73a1.659,1.659,0,0,1,1.66-1.66H183.8a1.659,1.659,0,0,1,1.66,1.66V296A1.66,1.66,0,0,1,183.8,297.66Z" transform="translate(-151.87 -264.07)" fill="#0f4c81"/>
          </g>
          <g id="Group_345" data-name="Group 345" transform="translate(10.141 56.547)">
            <path id="Path_988" data-name="Path 988" d="M196.3,395.05a1.67,1.67,0,0,1-1.174-.486,1.635,1.635,0,0,1-.206-.254,1.6,1.6,0,0,1-.247-.6,1.6,1.6,0,0,1,0-.647,1.738,1.738,0,0,1,.092-.311,1.85,1.85,0,0,1,.154-.287,1.615,1.615,0,0,1,.206-.251,1.66,1.66,0,0,1,2.347,0,1.764,1.764,0,0,1,.206.251,1.658,1.658,0,0,1,.152.287,1.566,1.566,0,0,1,.095.311,1.593,1.593,0,0,1,0,.647,1.71,1.71,0,0,1-.247.6,1.788,1.788,0,0,1-.206.254A1.679,1.679,0,0,1,196.3,395.05Z" transform="translate(-194.64 -391.73)" fill="#0f4c81"/>
          </g>
          <g id="Group_346" data-name="Group 346" transform="translate(23.031)">
            <path id="Path_989" data-name="Path 989" d="M293.5,172.8H250.66a1.659,1.659,0,0,1-1.66-1.66V154.91a1.659,1.659,0,0,1,1.66-1.66h20.961a1.66,1.66,0,0,1,0,3.32h-19.3v12.906h39.517V156.57h-7.664a1.66,1.66,0,0,1,0-3.32H293.5a1.659,1.659,0,0,1,1.66,1.66v16.226A1.659,1.659,0,0,1,293.5,172.8Z" transform="translate(-249 -153.25)" fill="#20b0e0"/>
          </g>
          <g id="Group_347" data-name="Group 347" transform="translate(49.884 0.002)">
            <path id="Path_990" data-name="Path 990" d="M363.912,156.578a1.659,1.659,0,0,1-.325-.033,1.564,1.564,0,0,1-.311-.095,1.66,1.66,0,0,1-.287-.152,1.766,1.766,0,0,1-.251-.206,1.51,1.51,0,0,1-.206-.254,1.65,1.65,0,0,1-.154-.285,1.873,1.873,0,0,1-.095-.311,1.7,1.7,0,0,1-.033-.325,1.66,1.66,0,0,1,.033-.325,1.747,1.747,0,0,1,.095-.311,1.677,1.677,0,0,1,.154-.287,1.494,1.494,0,0,1,.206-.251,1.616,1.616,0,0,1,.251-.206,1.853,1.853,0,0,1,.287-.154,1.736,1.736,0,0,1,.311-.092,1.567,1.567,0,0,1,.647,0,1.738,1.738,0,0,1,.311.092,1.85,1.85,0,0,1,.287.154,1.71,1.71,0,0,1,.46.458,1.842,1.842,0,0,1,.152.287,1.737,1.737,0,0,1,.095.311,1.658,1.658,0,0,1,.031.325,1.693,1.693,0,0,1-.031.325,1.868,1.868,0,0,1-.095.311,1.815,1.815,0,0,1-.152.285,1.648,1.648,0,0,1-.209.254,1.766,1.766,0,0,1-.251.206,1.661,1.661,0,0,1-.287.152,1.565,1.565,0,0,1-.311.095A1.653,1.653,0,0,1,363.912,156.578Z" transform="translate(-362.25 -153.258)" fill="#0f4c81"/>
          </g>
          <g id="Group_348" data-name="Group 348" transform="translate(40.561 26.277)">
            <path id="Path_991" data-name="Path 991" d="M333.671,298.444H324.59a1.659,1.659,0,0,1-1.66-1.66V265.73a1.659,1.659,0,0,1,1.66-1.66h9.081a1.659,1.659,0,0,1,1.66,1.66v31.057A1.658,1.658,0,0,1,333.671,298.444Zm-7.419-3.32h5.762V267.39h-5.762Z" transform="translate(-322.93 -264.07)" fill="#0f4c81"/>
          </g>
          <g id="Group_349" data-name="Group 349" transform="translate(56.786 26.277)">
            <path id="Path_992" data-name="Path 992" d="M402.1,298.444H393.02a1.659,1.659,0,0,1-1.66-1.66V265.73a1.659,1.659,0,0,1,1.66-1.66H402.1a1.659,1.659,0,0,1,1.66,1.66v31.057A1.658,1.658,0,0,1,402.1,298.444Zm-7.422-3.32h5.762V267.39H394.68Z" transform="translate(-391.36 -264.07)" fill="#0f4c81"/>
          </g>
        </g>
        <g id="Group_351" data-name="Group 351" transform="translate(11.218 13.743)">
          <path id="Path_993" data-name="Path 993" d="M62.47,161.873a1.659,1.659,0,0,1-1.66-1.66V115.98a1.66,1.66,0,0,1,3.32,0v44.234A1.66,1.66,0,0,1,62.47,161.873Z" transform="translate(-60.81 -114.32)" fill="#0f4c81"/>
        </g>
        <g id="Group_352" data-name="Group 352" transform="translate(11.218 8.508)">
          <path id="Path_994" data-name="Path 994" d="M62.47,95.56a1.66,1.66,0,1,1,.325-3.289,1.87,1.87,0,0,1,.311.095,1.65,1.65,0,0,1,.285.154,1.42,1.42,0,0,1,.254.206,1.654,1.654,0,0,1-.254,2.554,1.639,1.639,0,0,1-.285.152,1.676,1.676,0,0,1-.635.128Z" transform="translate(-60.81 -92.24)" fill="#0f4c81"/>
        </g>
      </g>
    </g>
  </g>
</svg>
