<svg xmlns="http://www.w3.org/2000/svg" width="288.081" height="267.197" viewBox="0 0 288.081 267.197">
  <g id="Stress-pana" transform="translate(-20.38 -43.22)">
    <g id="freepik--background-complete--inject-35" transform="translate(32.361 43.22)">
      <rect id="Rectangle_302" data-name="Rectangle 302" width="130.411" height="116.677" transform="translate(0.352 0.352)" fill="#fafafa"/>
      <path id="Path_1313" data-name="Path 1313" d="M170.2,160.243s0-.748-.031-2.162,0-3.526,0-6.254c0-5.475-.044-13.483-.082-23.685-.031-20.385-.088-49.513-.151-84.569l.3.3-130.443.05h0l.346-.346c0,42.448,0,82.388-.038,116.671l-.308-.3,94.325.151,26.6.082,7.046.038h.075l-6.984.038-26.539.082-94.526.22h-.308v-.308c0-34.283,0-74.223-.044-116.671V43.22h.352l130.4.05h.3v.3c-.063,35.131-.113,64.329-.151,84.758,0,10.17-.057,18.16-.075,23.622,0,2.7,0,4.771-.031,6.192S170.2,160.243,170.2,160.243Z" transform="translate(-39.44 -43.22)" fill="#e0e0e0"/>
      <path id="Path_1314" data-name="Path 1314" d="M101.432,76.552c0,.189-6.864.346-15.331.346s-15.331-.157-15.331-.346S77.634,76.2,86.1,76.2,101.432,76.357,101.432,76.552Z" transform="translate(-51.077 -55.469)" fill="#e0e0e0"/>
      <path id="Path_1315" data-name="Path 1315" d="M157.69,90.486c0,.195-18.857.352-42.115.352s-42.115-.157-42.115-.352,18.857-.346,42.115-.346S157.69,90.3,157.69,90.486Z" transform="translate(-52.076 -60.647)" fill="#e0e0e0"/>
      <rect id="Rectangle_303" data-name="Rectangle 303" width="5.494" height="5.494" transform="translate(19.92 44.679)" fill="#e0e0e0"/>
      <rect id="Rectangle_304" data-name="Rectangle 304" width="5.494" height="5.494" transform="translate(33.44 44.679)" fill="#e0e0e0"/>
      <rect id="Rectangle_305" data-name="Rectangle 305" width="5.494" height="5.494" transform="translate(47.219 44.428)" fill="#e0e0e0"/>
      <rect id="Rectangle_306" data-name="Rectangle 306" width="5.494" height="5.494" transform="translate(60.494 44.679)" fill="#e0e0e0"/>
      <rect id="Rectangle_307" data-name="Rectangle 307" width="5.494" height="5.494" transform="translate(74.015 44.679)" fill="#e0e0e0"/>
      <rect id="Rectangle_308" data-name="Rectangle 308" width="5.494" height="5.494" transform="translate(87.542 44.679)" fill="#e0e0e0"/>
      <rect id="Rectangle_309" data-name="Rectangle 309" width="5.494" height="5.494" transform="translate(101.063 44.679)" fill="#ebebeb"/>
      <rect id="Rectangle_310" data-name="Rectangle 310" width="5.494" height="5.494" transform="translate(19.92 56.358)" fill="#ebebeb"/>
      <rect id="Rectangle_311" data-name="Rectangle 311" width="5.494" height="5.494" transform="translate(33.44 56.358)" fill="#e0e0e0"/>
      <rect id="Rectangle_312" data-name="Rectangle 312" width="5.494" height="5.494" transform="translate(46.967 56.358)" fill="#ebebeb"/>
      <rect id="Rectangle_313" data-name="Rectangle 313" width="5.494" height="5.494" transform="translate(60.494 56.358)" fill="#e0e0e0"/>
      <rect id="Rectangle_314" data-name="Rectangle 314" width="5.494" height="5.494" transform="translate(74.015 56.358)" fill="#e0e0e0"/>
      <rect id="Rectangle_315" data-name="Rectangle 315" width="5.494" height="5.494" transform="translate(87.794 56.113)" fill="#e0e0e0"/>
      <rect id="Rectangle_316" data-name="Rectangle 316" width="5.494" height="5.494" transform="translate(101.063 56.358)" fill="#e0e0e0"/>
      <rect id="Rectangle_317" data-name="Rectangle 317" width="5.494" height="5.494" transform="translate(19.92 68.044)" fill="#e0e0e0"/>
      <rect id="Rectangle_318" data-name="Rectangle 318" width="5.494" height="5.494" transform="translate(33.692 67.792)" fill="#e0e0e0"/>
      <rect id="Rectangle_319" data-name="Rectangle 319" width="5.494" height="5.494" transform="translate(46.967 68.044)" fill="#e0e0e0"/>
      <rect id="Rectangle_320" data-name="Rectangle 320" width="5.494" height="5.494" transform="translate(60.494 68.044)" fill="#ebebeb"/>
      <rect id="Rectangle_321" data-name="Rectangle 321" width="5.494" height="5.494" transform="translate(74.015 68.044)" fill="#e0e0e0"/>
      <rect id="Rectangle_322" data-name="Rectangle 322" width="5.494" height="5.494" transform="translate(87.542 68.044)" fill="#e0e0e0"/>
      <rect id="Rectangle_323" data-name="Rectangle 323" width="5.494" height="5.494" transform="translate(101.063 68.044)" fill="#e0e0e0"/>
      <rect id="Rectangle_324" data-name="Rectangle 324" width="5.494" height="5.494" transform="translate(19.92 79.723)" fill="#e0e0e0"/>
      <rect id="Rectangle_325" data-name="Rectangle 325" width="5.494" height="5.494" transform="translate(33.44 79.723)" fill="#e0e0e0"/>
      <rect id="Rectangle_326" data-name="Rectangle 326" width="5.494" height="5.494" transform="translate(46.967 79.723)" fill="#e0e0e0"/>
      <rect id="Rectangle_327" data-name="Rectangle 327" width="5.494" height="5.494" transform="translate(60.74 79.471)" fill="#e0e0e0"/>
      <rect id="Rectangle_328" data-name="Rectangle 328" width="5.494" height="5.494" transform="translate(74.015 79.723)" fill="#e0e0e0"/>
      <rect id="Rectangle_329" data-name="Rectangle 329" width="5.494" height="5.494" transform="translate(87.542 79.723)" fill="#ebebeb"/>
      <rect id="Rectangle_330" data-name="Rectangle 330" width="5.494" height="5.494" transform="translate(101.063 79.723)" fill="#e0e0e0"/>
      <rect id="Rectangle_331" data-name="Rectangle 331" width="5.494" height="5.494" transform="translate(19.92 91.402)" fill="#e0e0e0"/>
      <rect id="Rectangle_332" data-name="Rectangle 332" width="5.494" height="5.494" transform="translate(33.44 91.402)" fill="#ebebeb"/>
      <rect id="Rectangle_333" data-name="Rectangle 333" width="5.494" height="5.494" transform="translate(46.967 91.402)" fill="#e0e0e0"/>
      <rect id="Rectangle_334" data-name="Rectangle 334" width="5.494" height="5.494" transform="translate(60.494 91.402)" fill="#e0e0e0"/>
      <rect id="Rectangle_335" data-name="Rectangle 335" width="5.494" height="5.494" transform="translate(74.015 91.402)" fill="#e0e0e0"/>
      <rect id="Rectangle_336" data-name="Rectangle 336" width="5.494" height="5.494" transform="translate(87.794 91.15)" fill="#e0e0e0"/>
      <rect id="Rectangle_337" data-name="Rectangle 337" width="5.494" height="5.494" transform="translate(101.063 91.402)" fill="#e0e0e0"/>
      <path id="Path_1316" data-name="Path 1316" d="M426.06,291.59c5.814-3,12.653-3.388,19.109-2.319,3.464.572,7.078,1.609,9.429,4.211s2.8,7.185.1,9.429c-1.615,1.333-3.866,1.534-5.953,1.509-5.029-.057-10.654-.949-14.69,2.093-2.3,1.729-3.834,4.614-6.588,5.469s-5.733-.754-7.16-3.187a11.16,11.16,0,0,1-.811-8.209,12.571,12.571,0,0,1,6.562-8.995Z" transform="translate(-180.448 -134.408)" fill="#ebebeb"/>
      <path id="Path_1317" data-name="Path 1317" d="M407.017,221.239c3.552,5.079,10.46,3.394,13.665.3s4.551-7.593,5.783-11.874c2.816-9.781,5.657-20.045,3.564-30a16.779,16.779,0,0,0-3.834-8.172,8.685,8.685,0,0,0-8.253-2.747c-3.482.918-5.657,4.331-7.21,7.543a71.5,71.5,0,0,0-7.072,30.694c0,4.947.566,10.133,3.357,14.212" transform="translate(-174.719 -89.759)" fill="#ebebeb"/>
      <path id="Path_1318" data-name="Path 1318" d="M369.306,238.217c3.859-4.582,4.589-11.258,2.873-16.972s-5.594-10.617-10.057-14.6a54.058,54.058,0,0,0-18.028-10.636,19.155,19.155,0,0,0-8.1-1.377,8.513,8.513,0,0,0-6.8,4.111c-1.886,3.621-.082,8.008,1.886,11.585a137.032,137.032,0,0,0,11.836,18.028c3.551,4.576,7.612,9.089,13.024,11.157s11.025,1.823,13.892-1.93" transform="translate(-146.763 -99.439)" fill="#ebebeb"/>
      <path id="Path_1319" data-name="Path 1319" d="M408.558,346.6a11.374,11.374,0,0,0,.321-2.307q.245-2.517.629-6.286a91.775,91.775,0,0,1,1.421-9.228,70.884,70.884,0,0,1,3.35-10.893,40.11,40.11,0,0,1,5.569-9.862,20.743,20.743,0,0,1,7.034-5.846,19.781,19.781,0,0,1,5.921-1.848,11.552,11.552,0,0,0,2.294-.327,10.176,10.176,0,0,0-2.338-.038,17.9,17.9,0,0,0-6.173,1.609,20.687,20.687,0,0,0-7.424,5.9,39.279,39.279,0,0,0-5.764,10.057,66.564,66.564,0,0,0-3.332,11.076,77.678,77.678,0,0,0-1.27,9.334c-.2,2.672-.277,4.834-.314,6.33a11.1,11.1,0,0,0,.075,2.332Z" transform="translate(-176.499 -138.564)" fill="#e0e0e0"/>
      <path id="Path_1320" data-name="Path 1320" d="M409.026,305a4.887,4.887,0,0,0,.063-1.069v-3.061c0-2.653,0-6.5.138-11.245.233-9.492,1.05-19.706,2.634-34.107,1.49-13.54,3.5-29.3,5.613-39.544.459-2.332.911-4.4,1.345-6.286s.761-3.426,1.1-4.714.522-2.194.71-2.973a4.4,4.4,0,0,0,.189-1.056,4.767,4.767,0,0,0-.371,1.006l-.886,2.929c-.4,1.257-.8,2.847-1.257,4.683s-.981,3.922-1.477,6.248a346.7,346.7,0,0,0-5.909,36.7c-1.584,14.426-2.294,27.57-2.357,37.086-.057,4.758.044,8.612.163,11.27.082,1.257.138,2.25.189,3.055a4.791,4.791,0,0,0,.113,1.081Z" transform="translate(-176.533 -101.8)" fill="#e0e0e0"/>
      <path id="Path_1321" data-name="Path 1321" d="M389.392,284.251a20.465,20.465,0,0,0,0-3.2,87.12,87.12,0,0,0-.974-8.662,115.181,115.181,0,0,0-2.816-12.616,103.142,103.142,0,0,0-5.28-14.929,80.174,80.174,0,0,0-15.494-24.131,39.342,39.342,0,0,0-3.646-3.388c-.559-.471-1.05-.943-1.553-1.314l-1.414-.974a20.589,20.589,0,0,0-2.7-1.729c-.151.207,3.815,2.546,8.8,7.87A83.483,83.483,0,0,1,379.4,245.223a117.718,117.718,0,0,1,5.33,14.79,126.028,126.028,0,0,1,3,12.5c.66,3.6,1.043,6.537,1.257,8.574a21.167,21.167,0,0,0,.4,3.168Z" transform="translate(-156.836 -106.395)" fill="#e0e0e0"/>
      <path id="Path_1322" data-name="Path 1322" d="M370.44,397.28l2.539,34.792h44.692l2.539-34.792Z" transform="translate(-162.38 -174.725)" fill="#e0e0e0"/>
      <rect id="Rectangle_338" data-name="Rectangle 338" width="59.42" height="13.716" transform="translate(203.742 208.846)" fill="#e0e0e0"/>
      <path id="Path_1323" data-name="Path 1323" d="M363.57,450.51v3.8h58.445v-3.8Z" transform="translate(-159.828 -194.496)" fill="#ebebeb"/>
      <path id="Path_1324" data-name="Path 1324" d="M370.751,463.248l-2.741-6.688h53.524l-3.193,6.688Z" transform="translate(-161.478 -196.743)" fill="#e0e0e0"/>
      <path id="Path_1325" data-name="Path 1325" d="M419.838,412.491a2.124,2.124,0,0,1-.207.321l-.666.886-2.6,3.331-.119.151-.113-.157-6.393-8.844h.365l-6.286,8.913-.2.283-.22-.264-7.468-8.888h.427l-.409.515c-2.319,2.9-4.557,5.72-6.682,8.373l-.22.283-.207-.289c-2.263-3.212-4.4-6.21-6.286-8.92h.365l-7.757,8.844-.138.157-.107-.182c-1.025-1.716-1.835-3.086-2.426-4.08l-.629-1.087a1.691,1.691,0,0,1-.189-.39,1.934,1.934,0,0,1,.264.346c.176.277.409.629.685,1.05l2.552,4h-.245l7.637-8.957.195-.22.17.239,6.361,8.876h-.427l6.663-8.385.409-.515.214-.264.22.258,7.442,8.907h-.415l6.361-8.869.182-.258.182.258,6.286,8.945h-.233l2.709-3.25.729-.842a1.881,1.881,0,0,1,.226-.277Z" transform="translate(-162.837 -178.566)" fill="#f5f5f5"/>
      <path id="Path_1326" data-name="Path 1326" d="M421.052,396.757c0,.151-11.2.277-25.011.277s-25.011-.126-25.011-.277,11.2-.277,25.011-.277S421.052,396.6,421.052,396.757Z" transform="translate(-162.599 -174.428)" fill="#f5f5f5"/>
      <path id="Path_1327" data-name="Path 1327" d="M422.08,456.993c0,.151-12.169.277-27.18.277s-27.18-.126-27.18-.277,12.169-.283,27.18-.283S422.08,456.836,422.08,456.993Z" transform="translate(-161.37 -196.799)" fill="#f5f5f5"/>
    </g>
    <g id="freepik--Character--inject-35" transform="translate(44.622 87.869)">
      <path id="Path_1328" data-name="Path 1328" d="M151.013,247.14l-5.029,2.7L134.852,258.4s-34.088,4.526-35.4,5.506S81.228,272.943,78.9,283.748s-7,81.275-7,81.275l6.185,20.819,124.151.195,29.116-.415s11.182-26.13,11.182-33.315-3.269-61.2-3.269-61.2l-34.918-24.621Z" transform="translate(-63.757 -163.609)" fill="#0f4c81"/>
      <path id="Path_1329" data-name="Path 1329" d="M165.341,264.25a1.5,1.5,0,0,1-.17.289c-.151.214-.327.478-.547.8-.49.679-1.157,1.7-1.93,2.973-.377.629-.8,1.345-1.2,2.131s-.823,1.622-1.257,2.514a51.049,51.049,0,0,0-2.257,6.022,81.507,81.507,0,0,0-2.414,11.428c-.214,1.446-.383,2.634-.509,3.514-.057.383-.1.7-.138.955a1.144,1.144,0,0,1-.075.327,1.332,1.332,0,0,1,0-.333c0-.258.05-.578.082-.968.075-.836.214-2.043.4-3.526a73.1,73.1,0,0,1,2.363-11.5,48.777,48.777,0,0,1,2.294-6.041c.427-.905.842-1.754,1.257-2.514s.849-1.483,1.257-2.125c.811-1.257,1.5-2.269,2.024-2.929l.6-.761A1.492,1.492,0,0,1,165.341,264.25Z" transform="translate(-94.561 -169.964)" fill="#263238"/>
      <g id="Group_526" data-name="Group 526" transform="translate(60.642 113.266)" opacity="0.3">
        <path id="Path_1330" data-name="Path 1330" d="M166.332,296.183c-.207-.666-.471-1.414-1.119-1.672-.5-.207-.3.119-.8.333-4.714,1.942-6.99,6.286-8.989,11.214l.113-.119a1.967,1.967,0,0,0,.773,2.282,3.72,3.72,0,0,0,3.52-.283,16.114,16.114,0,0,1,3.287-1.653c2.577-.666,5.148,1.1,6.971,3.049s3.457,4.262,5.946,5.223a57.333,57.333,0,0,1-9.7-18.373Z" transform="translate(-155.42 -294.445)"/>
      </g>
      <path id="Path_1331" data-name="Path 1331" d="M154.83,304.49a30.3,30.3,0,0,1,2-4,29.969,29.969,0,0,1,2.992-4.3,17.381,17.381,0,0,1,2.351-2.294,7.819,7.819,0,0,1,3.319-1.59h.094l.038.094c.786,2.055,1.615,4.3,2.577,6.663a52.244,52.244,0,0,0,3.514,7.279,35.2,35.2,0,0,0,5.406,6.99,44.315,44.315,0,0,0,7.4,5.871c.911.534,1.791,1.106,2.7,1.609l2.722,1.452h-.163l4.538-3.143,2.2-1.515c.729-.5,1.439-.993,2.112-1.521a55.532,55.532,0,0,0,7.04-6.619h0a26.5,26.5,0,0,0,6.468-7.065,24.187,24.187,0,0,0,2.91-6.77,24.934,24.934,0,0,0,.742-4.689c.038-.553,0-.974.044-1.257a1.057,1.057,0,0,0,0-.427v1.685a23.132,23.132,0,0,1-.666,4.727,24.138,24.138,0,0,1-2.873,6.852,26.639,26.639,0,0,1-6.443,7.147h0a55.7,55.7,0,0,1-7.065,6.682c-.679.534-1.389,1.037-2.118,1.534l-2.2,1.521-4.538,3.143-.075.057-.088-.044-2.734-1.458c-.918-.5-1.8-1.075-2.715-1.615a43.862,43.862,0,0,1-7.461-5.921,35.346,35.346,0,0,1-5.437-7.059,52.28,52.28,0,0,1-3.476-7.354c-.955-2.376-1.773-4.626-2.546-6.682l.132.075a7.637,7.637,0,0,0-3.225,1.527,17.368,17.368,0,0,0-2.338,2.244,31.184,31.184,0,0,0-3.023,4.243c-.735,1.257-1.257,2.225-1.59,2.9l-.383.773a1.088,1.088,0,0,1-.138.258Z" transform="translate(-94.559 -179.253)" fill="#263238"/>
      <path id="Path_1332" data-name="Path 1332" d="M251.609,288.87a62.4,62.4,0,0,1-.453,9.586,73.345,73.345,0,0,1-1.917,10.29,87.208,87.208,0,0,1-4.161,12.182l-.239.566-.075-.629c-.044-.365-.075-.761-.138-1.163a33.56,33.56,0,0,0-1.565-6.625c-.358-1.043-.767-2.049-1.207-3.017-.22-.484-.453-.955-.691-1.421a8.6,8.6,0,0,0-.767-1.307,2.565,2.565,0,0,0-1.106-.905,1.257,1.257,0,0,0-1.257.239,9.226,9.226,0,0,0-.955,1.018l-.911,1.037-3.325,3.771-4.834,5.475-1.289,1.509-.352.377-.126.119a.945.945,0,0,1,.1-.145l.327-.4,1.257-1.521,4.752-5.544,3.294-3.822c.3-.346.629-.691.905-1.05a9.676,9.676,0,0,1,.993-1.056,1.534,1.534,0,0,1,1.515-.289,2.841,2.841,0,0,1,1.219,1,8.914,8.914,0,0,1,.8,1.351c.239.465.478.943.7,1.427.446.974.861,1.993,1.257,3.042a34.2,34.2,0,0,1,1.584,6.7c.063.4.094.8.138,1.175l-.314-.044a89.625,89.625,0,0,0,4.174-12.132,76.7,76.7,0,0,0,1.98-10.24c.365-2.942.515-5.337.578-6.99.044-.83.044-1.471.063-1.886v-.5A.323.323,0,0,1,251.609,288.87Z" transform="translate(-121.082 -179.108)" fill="#263238"/>
      <path id="Path_1333" data-name="Path 1333" d="M187.694,261.24s0,.05-.094.126l-.3.339c-.277.289-.629.748-1.1,1.345a24.96,24.96,0,0,0-3.017,5.657,36.2,36.2,0,0,0-2.257,9.19,36.847,36.847,0,0,0,.5,11.553,30.649,30.649,0,0,0,1.76,5.739,29.977,29.977,0,0,0,2.621,4.934,31.863,31.863,0,0,0,6.286,7.053c1.012.893,2.043,1.559,2.9,2.2a20.89,20.89,0,0,0,2.345,1.452l1.527.842.4.226a.546.546,0,0,1,.132.088.324.324,0,0,1-.145-.057l-.409-.2-1.565-.786c-.666-.358-1.452-.861-2.382-1.414a20.754,20.754,0,0,1-2.948-2.175,31.5,31.5,0,0,1-6.4-7.065,30.053,30.053,0,0,1-2.621-5.029,30.883,30.883,0,0,1-1.785-5.789,36.565,36.565,0,0,1-.478-11.66,35.831,35.831,0,0,1,2.338-9.24,23.886,23.886,0,0,1,3.143-5.619,13.2,13.2,0,0,1,1.163-1.314l.321-.321Z" transform="translate(-104.059 -168.846)" fill="#263238"/>
      <path id="Path_1334" data-name="Path 1334" d="M103.608,338.031a1,1,0,0,1,.126.176l.333.585h-.094c-.446-2.112-1.666-8.586-3.055-16.249-.83-4.714-1.584-8.982-2.143-12.132-.251-1.521-.459-2.766-.629-3.683-.057-.409-.107-.735-.145-1.006a1.345,1.345,0,0,1-.031-.352,1.735,1.735,0,0,1,.094.346c.057.258.126.591.207.993.182.905.421,2.15.717,3.665.585,3.143,1.37,7.4,2.244,12.113,1.383,7.656,2.514,14.156,2.829,16.286l.05.321-.145-.289-.3-.629a.92.92,0,0,1-.063-.145Z" transform="translate(-73.44 -185.236)" fill="#263238"/>
      <path id="Path_1335" data-name="Path 1335" d="M100.524,346.783c-.082.038-1.666-3.143-3.539-7.109s-3.319-7.216-3.237-7.254,1.666,3.143,3.539,7.109S100.606,346.745,100.524,346.783Z" transform="translate(-71.871 -195.283)" fill="#263238"/>
      <g id="Group_527" data-name="Group 527" transform="translate(28.006 146.177)" opacity="0.3">
        <path id="Path_1336" data-name="Path 1336" d="M103.5,421.237c3.941,1.98,13.081-1.515,16.4-5.871s4.281-10.026,5.029-15.457q1.628-12.276,2.326-24.647a37.463,37.463,0,0,0,23.6,7.128c5.33-.245,11.409-2.363,13.062-7.436s-1.886-10.189-5.531-14a85.966,85.966,0,0,0-11.314-9.932c-2.659-1.949-5.575-3.771-8.857-4.155a13.155,13.155,0,0,0-9.806,3.394,23.354,23.354,0,0,0-5.946,8.756c-4.205,10.026-3.979,21.246-4.84,32.058s-2.005,22.057-11.6,29.109" transform="translate(-103.5 -346.802)"/>
      </g>
      <path id="Path_1337" data-name="Path 1337" d="M103.91,431.841a1.589,1.589,0,0,1,.27-.126l.792-.346a14.392,14.392,0,0,0,2.69-1.848,37.489,37.489,0,0,0,7.26-9.052v.05c.572-4.306,1.257-9.334,1.955-14.677,1.157-8.473,2.175-16.142,3-21.686.509-2.734.918-4.953,1.213-6.525.145-.748.258-1.339.346-1.773l.094-.459a.628.628,0,0,1,.044-.151.433.433,0,0,1,0,.157,4.668,4.668,0,0,1-.069.465l-.283,1.785c-.27,1.571-.629,3.771-1.113,6.537-.742,5.576-1.766,13.2-2.9,21.692-.729,5.343-1.414,10.365-2,14.671v.031h0a36.678,36.678,0,0,1-7.4,9.045,13.4,13.4,0,0,1-2.759,1.8c-.352.145-.629.239-.817.3A.924.924,0,0,1,103.91,431.841Z" transform="translate(-75.647 -211.191)" fill="#263238"/>
      <path id="Path_1338" data-name="Path 1338" d="M199.239,420.837a.818.818,0,0,1-.063-.195c-.038-.151-.082-.346-.138-.591-.113-.522-.321-1.257-.484-2.275a57.039,57.039,0,0,1-.867-8.536,82.589,82.589,0,0,1,.679-12.685c.578-4.752,1.54-9.925,2.659-15.331s2.42-10.5,3.514-15.149a72,72,0,0,0,2.018-12.5,45.466,45.466,0,0,0-.314-8.524c-.107-1.006-.277-1.773-.352-2.3l-.088-.6a.867.867,0,0,1,0-.207.811.811,0,0,1,.05.2c.031.151.075.346.126.591.088.522.283,1.257.409,2.294a43.656,43.656,0,0,1,.421,8.555,70.626,70.626,0,0,1-1.955,12.572c-1.081,4.658-2.42,9.737-3.489,15.149s-2.087,10.56-2.684,15.3a84.469,84.469,0,0,0-.761,12.628,60.511,60.511,0,0,0,.761,8.5c.145,1,.333,1.76.421,2.288.044.245.082.446.107.6S199.239,420.837,199.239,420.837Z" transform="translate(-110.469 -198.823)" fill="#263238"/>
      <path id="Path_1339" data-name="Path 1339" d="M217,349.965c-.075-.05,1.006-1.779,2.213-3.985s2.081-4.048,2.169-4.01a4.808,4.808,0,0,1-.453,1.257c-.327.761-.823,1.791-1.427,2.9s-1.213,2.081-1.678,2.766a4.91,4.91,0,0,1-.823,1.069Z" transform="translate(-117.648 -198.83)" fill="#263238"/>
      <g id="Group_528" data-name="Group 528" transform="translate(101.009 126.525)" opacity="0.3">
        <path id="Path_1340" data-name="Path 1340" d="M220,337.54a105.214,105.214,0,0,1,10.617-10.755,7.493,7.493,0,0,1,3.526-2.062,5.232,5.232,0,0,1,4.5,1.81,15.525,15.525,0,0,1,2.565,4.325c1.647-4.048-.063-8.612-1.76-12.641-.553-1.314-1.509-2.873-2.917-2.659a3.256,3.256,0,0,0-1.81,1.295A196.3,196.3,0,0,0,219.64,336.81" transform="translate(-219.64 -315.538)"/>
      </g>
      <g id="Group_529" data-name="Group 529" transform="translate(145.398 116.595)" opacity="0.3">
        <path id="Path_1341" data-name="Path 1341" d="M301.5,301.733l.233-1.993c-2.395.226-5.337.509-7.248,1.967-2.231,1.7-3.143,4.6-3.859,7.3-1.71,6.148,3.143,37.8,2.891,44.177,2.118-.9,3.614-14.457,3.991-16.758.93-5.538-.949-8.995-.377-10.541a15.054,15.054,0,0,0,.6-4.865c.207-7.348.937-12.515,3.771-19.291" transform="translate(-290.258 -299.74)"/>
      </g>
      <path id="Path_1342" data-name="Path 1342" d="M240.428,131.26c-3.042-3.771-2.043-9.8,1.439-13.2s8.8-4.343,13.558-3.539a22.3,22.3,0,0,1,16.161,12.226c1.634,3.426,2.514,7.474,5.513,9.8,2.627,2.049,6.248,2.225,9.24,3.7,4.01,1.961,6.6,6.166,7.543,10.535s.365,8.92-.559,13.294c-.849,4.01-1.98,8.348-.258,12.062s5.6,5.607,8.172,8.662c4.865,5.739,3.771,15.507-2.257,20.02-1.917,1.439-4.344,2.514-5.261,4.752-.836,2.024-.126,4.318-.17,6.506-.107,5.657-6.323,10.277-11.761,8.8-2.741-.754-5.267-2.778-8.09-2.395s-4.67,2.973-6.914,4.651a12.176,12.176,0,0,1-15.312-1.15c-1.647-1.641-2.973-3.872-5.223-4.469s-4.607.691-6.914.377c-3.011-.409-4.991-3.4-5.883-6.286s-1.125-6.06-2.627-8.7c-1.98-3.495-5.751-5.437-8.894-7.889a30.8,30.8,0,0,1-2.64-46.452" transform="translate(-115.036 -114.251)" fill="#263238"/>
      <path id="Path_1343" data-name="Path 1343" d="M187.245,261.27a28.965,28.965,0,0,0-6.148,25.671c2.244,8.869,9.661,21.837,18.229,25.055,5.557-4.073,12.7-9.762,17.877-14.3,3.35-2.935,5.129-7.229,6.789-11.365.955-2.389,1.93-4.966,1.333-7.468a10.8,10.8,0,0,0-3-4.739,38.425,38.425,0,0,0-33.277-11.1" transform="translate(-104.012 -168.857)" fill="#ef9d78"/>
      <path id="Path_1344" data-name="Path 1344" d="M216.082,154.653h0a15.249,15.249,0,0,1,17.443-8.033l21.441,5.469c10.717,3.451,19.109,20.039,12.792,34.572-4.991,11.472-10.1,25.885-15.224,33.805-10.309,15.916-24.4,12.276-24.4,12.276l-7.606,16.972-31.1-29.16Z" transform="translate(-107.41 -126.097)" fill="#ef9d78"/>
      <path id="Path_1345" data-name="Path 1345" d="M289.355,217.725c.4-.151,1.458,1.886,3.771,2.973s4.6.779,4.714,1.188c.063.189-.459.566-1.465.742a6.543,6.543,0,0,1-3.941-.629,6.285,6.285,0,0,1-2.841-2.715C289.154,218.417,289.16,217.788,289.355,217.725Z" transform="translate(-144.478 -152.68)" fill="#263238"/>
      <path id="Path_1346" data-name="Path 1346" d="M250.7,200.139c.453-.088,1.5,2.143,4,3.7s5.029,1.6,5.135,2.03c.057.2-.541.5-1.666.509a8.366,8.366,0,0,1-4.318-1.3,7.863,7.863,0,0,1-2.973-3.275C250.44,200.811,250.484,200.17,250.7,200.139Z" transform="translate(-130.109 -146.15)" fill="#263238"/>
      <path id="Path_1347" data-name="Path 1347" d="M267.169,225.941c.05-.138,1.628.258,4.142,1.012.629.2,1.257.339,1.54-.031a3.819,3.819,0,0,0,.39-1.967c.082-1.71.17-3.5.251-5.387.427-7.637,1.012-13.829,1.32-13.8s.22,6.229-.2,13.873q-.176,2.822-.339,5.381a3.876,3.876,0,0,1-.735,2.514,1.666,1.666,0,0,1-1.389.44,4.489,4.489,0,0,1-1.087-.308C268.609,226.727,267.119,226.079,267.169,225.941Z" transform="translate(-136.284 -148.243)" fill="#263238"/>
      <path id="Path_1348" data-name="Path 1348" d="M238.713,274.206A49.579,49.579,0,0,1,217.92,257.63s.471,14.558,18.9,20.844Z" transform="translate(-117.992 -167.505)" fill="#d37a57"/>
      <path id="Path_1349" data-name="Path 1349" d="M253.877,187.187c.39-.629,2.847.226,5.89.5s5.613-.031,5.877.666c.113.333-.44.893-1.546,1.351a10.29,10.29,0,0,1-8.97-.886C254.135,188.142,253.7,187.488,253.877,187.187Z" transform="translate(-131.333 -141.257)" fill="#263238"/>
      <path id="Path_1350" data-name="Path 1350" d="M297.192,198.32c.792,0,1.773,1.955,3.47,3.822s3.451,3.143,3.338,3.935c-.075.358-.735.515-1.779.207a8.171,8.171,0,0,1-3.551-2.426,8.027,8.027,0,0,1-1.93-3.822C296.576,198.967,296.821,198.345,297.192,198.32Z" transform="translate(-147.248 -145.476)" fill="#263238"/>
      <path id="Path_1351" data-name="Path 1351" d="M254.184,243.882s1.458-.761.779-3.564-4.237-5.337-6.493-3.03c0,0-2.275.17-1.383,2.8s6.085,6.336,7.053,4.224" transform="translate(-128.749 -159.615)" fill="#d37a57"/>
      <path id="Path_1352" data-name="Path 1352" d="M253.327,246.527c-.415-.075.214-2.81-1.672-5.293s-4.865-2.86-4.8-3.25c0-.182.773-.377,2.011-.126a6.959,6.959,0,0,1,4.035,2.558,6.072,6.072,0,0,1,1.226,4.4C253.975,245.98,253.51,246.584,253.327,246.527Z" transform="translate(-128.74 -160.117)" fill="#263238"/>
      <path id="Path_1353" data-name="Path 1353" d="M184.084,145.47a13.414,13.414,0,0,0-5.154,10.981c.094,2.351.666,5.123-1.062,6.72s-4.538.748-6.914.761a8.913,8.913,0,0,0-8.53,7.644c-.17,1.483,0,3.086-.729,4.4s-2.37,1.942-3.7,2.753a11.088,11.088,0,0,0,.371,19.184c1.54.849,3.338,1.383,4.463,2.734,1.257,1.553,1.333,3.771,1.967,5.657a9.316,9.316,0,0,0,17.651.126" transform="translate(-93.749 -125.846)" fill="#263238"/>
      <path id="Path_1354" data-name="Path 1354" d="M257.016,134.545a13.269,13.269,0,0,0,10.629,17.437c2.979.434,6.537.057,8.461,2.376,2.024,2.439.823,6.324,2.426,9.064,2.282,3.9,6.185,7.021,9.881,9.636,2.86,2.018-.409,7.631.836,10.9s6.368,10.73,9.862,10.862c.767-2.923,5.117-15.765,5.192-18.782a13.377,13.377,0,0,0-2.477-8.536,49.259,49.259,0,0,1-3.256-3.734c-1.917-3.023-1.257-6.914-1.886-10.453a14.52,14.52,0,0,0-8.172-10.535c-3.489-1.6-7.581-1.773-10.805-3.853-2.382-1.54-4.086-4-6.556-5.393-4.809-2.715-10.83-.629-15.8,1.76" transform="translate(-131.895 -120.937)" fill="#263238"/>
      <path id="Path_1355" data-name="Path 1355" d="M205.666,169.112c-.5-.333-3.771,2.162-.541,4.155,5.7,3.482,10.6-8.3,10.39-12.213a39.763,39.763,0,0,0,8.4-4.4c2.558-1.93,6.38-8.285,7.065-11.516,2.181.886,12.722.968,11.8.333-2.081-1.439-6.286-4.526-6.845-6.914-1.213-5.249-4.941-9.818-9.869-11.189a12.27,12.27,0,0,0-13.571,5.657,17.612,17.612,0,0,0-17.493,4.4,20.441,20.441,0,0,0-5.576,18.191c.339,1.672.905,3.419.371,5.079-.666,2.049-2.728,3.143-4.369,4.488-4.469,3.627-6.393,10.057-5.846,15.821s1.54,8.084,4.4,10.177c5.6,4.086-6.041,14.533,4.4,18.065" transform="translate(-103.721 -118.984)" fill="#263238"/>
      <path id="Path_1356" data-name="Path 1356" d="M312.456,208.943c0-.038.371-.258.981-.83a8.8,8.8,0,0,0,2.106-2.954,8.976,8.976,0,0,0,.585-5.607,11.575,11.575,0,0,0-4.356-6.06c-2.213-1.779-4.972-3.495-6.971-6.405s-2.357-6.914-1.716-10.686,2.225-7.543,3.243-11.509a21.786,21.786,0,0,0,.773-6.135,12.119,12.119,0,0,0-1.647-5.99,11.107,11.107,0,0,0-4.677-4.054,21.756,21.756,0,0,0-5.909-1.8,42.6,42.6,0,0,1-6.034-1.157,7.543,7.543,0,0,1-4.7-3.7,22.222,22.222,0,0,1-1.509-5.431,10.88,10.88,0,0,0-2.037-4.614,12.6,12.6,0,0,0-7.738-4.589,13.238,13.238,0,0,0-7.455.893,16.972,16.972,0,0,0-4.828,3.143,25.821,25.821,0,0,0-3.193,3.8,1.51,1.51,0,0,1,.138-.3,9.372,9.372,0,0,1,.484-.836,16.06,16.06,0,0,1,2.345-2.9,16.971,16.971,0,0,1,4.872-3.331,13.7,13.7,0,0,1,7.738-1.05,13.15,13.15,0,0,1,8.14,4.765,11.591,11.591,0,0,1,2.2,4.878,21.656,21.656,0,0,0,1.477,5.242,6.807,6.807,0,0,0,4.262,3.294,41.488,41.488,0,0,0,5.928,1.113,22.629,22.629,0,0,1,6.141,1.886,11.943,11.943,0,0,1,5.029,4.356,12.924,12.924,0,0,1,1.76,6.4,22.441,22.441,0,0,1-.8,6.361c-1.062,4.042-2.659,7.732-3.281,11.434s-.327,7.43,1.534,10.164,4.614,4.438,6.782,6.336,3.954,4.061,4.4,6.405a9.227,9.227,0,0,1-.748,5.839,8.454,8.454,0,0,1-2.282,2.948A4.331,4.331,0,0,1,312.456,208.943Z" transform="translate(-132.649 -118.868)" fill="#455a64"/>
      <path id="Path_1357" data-name="Path 1357" d="M313.335,197.17c.069.031-.308.9-.691,2.546a18.636,18.636,0,0,0-.22,7.084,17.6,17.6,0,0,0,1.421,4.67,23.329,23.329,0,0,0,3.08,4.714,13.877,13.877,0,0,1,1.678,2.7,6.638,6.638,0,0,1,.591,3.331c-.182,2.338-1.333,4.4-2.187,6.531s-1.4,4.331-.578,6.286a15.63,15.63,0,0,0,3.734,4.827,19.3,19.3,0,0,1,3.7,4.488,6.984,6.984,0,0,1,.629,5.06,8.392,8.392,0,0,1-4.5,5.6,6.549,6.549,0,0,1-1.917.534,2.4,2.4,0,0,1-.691,0,12.806,12.806,0,0,0,2.47-.817,8.247,8.247,0,0,0,4.067-5.45,6.5,6.5,0,0,0-.629-4.607,18.7,18.7,0,0,0-3.621-4.262,15.5,15.5,0,0,1-3.954-5.085,6.952,6.952,0,0,1-.421-3.482,13.551,13.551,0,0,1,.993-3.4c.886-2.169,1.98-4.186,2.143-6.286a8.27,8.27,0,0,0-2.074-5.519,23.258,23.258,0,0,1-3.093-4.89,18.04,18.04,0,0,1-.886-12.113,12.393,12.393,0,0,1,.673-1.886,2.106,2.106,0,0,1,.289-.572Z" transform="translate(-152.831 -145.049)" fill="#455a64"/>
      <path id="Path_1358" data-name="Path 1358" d="M162.145,194.677a2.369,2.369,0,0,1-.358-.264,6.981,6.981,0,0,1-.918-.924,9.887,9.887,0,0,1-2.087-4.469,9.6,9.6,0,0,1,1.54-7.461,10.372,10.372,0,0,1,8.844-4.331l-.346.465a15.928,15.928,0,0,1-1.062-6.544,8.391,8.391,0,0,1,3.363-6.286,6.286,6.286,0,0,1,3.677-1.257,9.259,9.259,0,0,1,3.8,1.075,14.739,14.739,0,0,0,3.5,1.358,3.772,3.772,0,0,0,3.325-.987,7.354,7.354,0,0,0,2.062-4.947c.145-1.848-.031-3.727.163-5.607a15.715,15.715,0,0,1,4.626-9.529,14.985,14.985,0,0,1,8.511-4.13,15.425,15.425,0,0,1,7.989,1l-.352.145a8.247,8.247,0,0,1,4.325-3.973,9.027,9.027,0,0,1,4.356-.629,7.612,7.612,0,0,1,2.646.767,3.733,3.733,0,0,1,.8.528,9.535,9.535,0,0,0-3.47-.993,8.932,8.932,0,0,0-4.161.748,7.794,7.794,0,0,0-3.991,3.8l-.113.233-.245-.094a15.086,15.086,0,0,0-7.687-.861,14.457,14.457,0,0,0-8.077,4.01,14.992,14.992,0,0,0-4.356,9.07c-.182,1.779,0,3.652-.145,5.6a8.134,8.134,0,0,1-2.319,5.481,4.633,4.633,0,0,1-4.017,1.194,15.405,15.405,0,0,1-3.727-1.427,8.467,8.467,0,0,0-3.457-1.012,5.525,5.525,0,0,0-3.212,1.094,7.606,7.606,0,0,0-3.08,5.733,15.407,15.407,0,0,0,.962,6.248l.176.49h-.522a9.793,9.793,0,0,0-8.341,3.966,9.221,9.221,0,0,0-1.6,7.065,10.057,10.057,0,0,0,1.886,4.4C161.711,194.249,162.176,194.639,162.145,194.677Z" transform="translate(-95.953 -122.824)" fill="#455a64"/>
      <path id="Path_1359" data-name="Path 1359" d="M232.476,143.408a6.745,6.745,0,0,0-2.835,1.1c-1.578,1.163-3,3.885-3.407,7.38l-.031.3h-.3a11.277,11.277,0,0,0-9.253,3.866,8.718,8.718,0,0,0-1.49,2.514,17.124,17.124,0,0,0-.629,3.042,23.885,23.885,0,0,1-.629,3.287,5.513,5.513,0,0,1-1.98,2.973c-2.087,1.628-4.651,1.886-6.914,2.263a19.631,19.631,0,0,0-6.286,1.628,14.564,14.564,0,0,0-7.273,7.838,15.218,15.218,0,0,0-.861,7.329c.226,1.76.629,2.69.522,2.715a2.35,2.35,0,0,1-.308-.66,13.018,13.018,0,0,1-.528-2.005,14.8,14.8,0,0,1,.629-7.581,15,15,0,0,1,7.486-8.36,20.159,20.159,0,0,1,6.493-1.741c2.238-.358,4.67-.673,6.493-2.112,1.8-1.257,1.993-3.646,2.338-5.739a18.041,18.041,0,0,1,.7-3.187,9.693,9.693,0,0,1,1.647-2.734,11.861,11.861,0,0,1,9.9-3.979l-.333.277c.5-3.639,2.037-6.456,3.822-7.6a4.84,4.84,0,0,1,2.206-.823A2.74,2.74,0,0,1,232.476,143.408Z" transform="translate(-107.638 -125.066)" fill="#455a64"/>
      <path id="Path_1360" data-name="Path 1360" d="M215.754,192.19c1.791-3.507-.629-7.926-4.557-7.92-2.169,0-4.494,1.182-6.43,4.89-5.161,9.894,5.839,13.037,6,12.76C210.87,201.751,213.655,196.307,215.754,192.19Z" transform="translate(-112.596 -140.257)" fill="#ef9d78"/>
      <path id="Path_1361" data-name="Path 1361" d="M211.5,198.588c0-.057-.233.031-.629,0a1.936,1.936,0,0,1-1.3-.629c-.842-.93-.861-3.049,0-4.853a6.286,6.286,0,0,1,1.766-2.219,2.244,2.244,0,0,1,1.986-.629.993.993,0,0,1,.773,1.006c0,.346-.176.509-.138.553s.3-.057.434-.5a1.257,1.257,0,0,0-.019-.823,1.452,1.452,0,0,0-.823-.748,2.728,2.728,0,0,0-2.6.591,6.675,6.675,0,0,0-2.037,2.445c-.974,2.03-.924,4.4.289,5.588a2.1,2.1,0,0,0,1.71.559C211.359,198.814,211.523,198.626,211.5,198.588Z" transform="translate(-114.392 -142.249)" fill="#d37a57"/>
      <path id="Path_1362" data-name="Path 1362" d="M196.379,399.489a7.535,7.535,0,0,0-3.143-2.621l-1.886-4.62a5.029,5.029,0,0,0,0-3.627c-.748-2-6.248-13.609-6.122-13.986l-1.421-.082s5.066,12.289,5.563,12.917,1.257,4.281,0,4.777-3.9-.849-5.029-1.974-4.7-9.58-5.324-11.314.484-4.18.484-4.18l1-2.37h-1.333a46.082,46.082,0,0,0-1.377,4.865c-.5,2.376,5.123,12.741,6,13.866s3.872,2,5.494,3.143,1.377,4.626,1.377,4.626a8.662,8.662,0,0,0-1.5,4.117c-.126,2.25,4.871,12.867,8.241,15.086s7.373.629,7.744.754,1.257-1.754,1.257-1.754S197.253,401.111,196.379,399.489Zm4.6,18.549a7.04,7.04,0,0,1-4.639-2.684c-.409-.541-4.783-8.172-5.349-9.567-.981-2.47-.3-3.841.057-5.286.522-2.106,3.771-.874,3.771-.874s9.567,16.532,9.347,17.035A3.308,3.308,0,0,1,200.98,418.039Z" transform="translate(-103.076 -210.136)" fill="#263238"/>
      <path id="Path_1363" data-name="Path 1363" d="M222.516,431.741s27.852-10.6,29.154-11.8,6-8.1,6-8.1,2.3.4,2,1-4.7,7.505-9.429,9.5-29,11.151-29,11.151Z" transform="translate(-119.225 -224.782)" fill="#263238"/>
      <path id="Path_1364" data-name="Path 1364" d="M74.1,304.55,62.626,370.714s-4.224,12.873-3.621,15.714,2.734,14.96,9.171,18.782,19.184,1.326,21.8-1.257,7.769-7.4,8.373-9.617,4.834-35.829,4.834-35.829l1.678-9.429s-6.236,2.011-10.057-.629-8.85-13.879-8.85-13.879l-5.6,8.605Z" transform="translate(-58.946 -184.932)" fill="#0f4c81"/>
      <path id="Path_1365" data-name="Path 1365" d="M88.728,352.21a1.816,1.816,0,0,1-.214.371l-.685,1.037c-.591.893-1.446,2.194-2.47,3.815-2.062,3.243-4.815,7.776-7.826,12.81s-5.72,9.592-7.75,12.867c-1.006,1.634-1.835,2.948-2.42,3.853-.283.421-.515.767-.685,1.031a2.791,2.791,0,0,1-.258.346,1.685,1.685,0,0,1,.2-.383l.629-1.062,2.338-3.9,7.662-12.917c3.011-5.029,5.8-9.554,7.914-12.766,1.056-1.609,1.936-2.891,2.565-3.771l.729-1a2.363,2.363,0,0,1,.27-.327Z" transform="translate(-61.722 -202.634)" fill="#263238"/>
      <path id="Path_1366" data-name="Path 1366" d="M116.183,379.654a1.747,1.747,0,0,1-.239.27c-.17.17-.4.44-.735.735a12.78,12.78,0,0,1-3.174,2.143,9.983,9.983,0,0,1-2.514.8,9.492,9.492,0,0,1-3.055.075,12.437,12.437,0,0,1-3.256-.88,17.882,17.882,0,0,1-3.143-1.754,16.836,16.836,0,0,1-2.659-2.451,17.261,17.261,0,0,1-3.822-8.121,16.438,16.438,0,0,1-.258-3.815,9.271,9.271,0,0,1,.094-1.037,2.2,2.2,0,0,1,.063-.358,13.828,13.828,0,0,1,0,1.4,18.36,18.36,0,0,0,.358,3.771,17.934,17.934,0,0,0,1.936,5.249,18.231,18.231,0,0,0,1.886,2.7,17.092,17.092,0,0,0,2.615,2.4,17.725,17.725,0,0,0,3.093,1.722,12.4,12.4,0,0,0,3.143.88,9.566,9.566,0,0,0,2.942-.063,10.271,10.271,0,0,0,2.514-.742,13.478,13.478,0,0,0,3.181-2.03C115.806,379.981,116.165,379.629,116.183,379.654Z" transform="translate(-71.709 -207.481)" fill="#263238"/>
      <path id="Path_1367" data-name="Path 1367" d="M101.91,342.638l8.586-5.519s22.88-9.3,25.206-9.831,5.029-1.609,6.286,0,14.3,11.082,14.3,11.082,7.688,14.457,7.688,16.45,2.143,4.482,0,5.192l-2.169.723s-.717,3.507-3.4,3.9-3.577,0-3.577,0-.176,3.507-2.319,3.294-5.72-3.294-5.72-3.294-1.609,1.823-2.86,1.823-5.186-2.678-5.186-2.678l-7.606-6.619-6.7-2.319-3.614,2.282s-7.732.66-8.894,0S101.91,342.638,101.91,342.638Z" transform="translate(-74.904 -193.062)" fill="#ef9d78"/>
      <path id="Path_1368" data-name="Path 1368" d="M161.357,376.237a6.388,6.388,0,0,1-.4-1.018c-.113-.327-.258-.729-.453-1.188s-.383-.987-.66-1.546-.547-1.188-.9-1.823-.748-1.32-1.169-2.03a35.755,35.755,0,0,0-3.187-4.293,37.028,37.028,0,0,0-3.841-3.721,23.144,23.144,0,0,0-1.886-1.421c-.629-.409-1.163-.8-1.691-1.131s-1.025-.629-1.452-.855-.8-.453-1.119-.629a7.278,7.278,0,0,1-.955-.522,6.093,6.093,0,0,1,1.012.409,12.109,12.109,0,0,1,1.15.553c.44.233.949.484,1.483.817s1.125.679,1.729,1.113,1.257.9,1.886,1.408a31.48,31.48,0,0,1,7.1,8.09c.421.717.83,1.389,1.15,2.062s.629,1.257.874,1.886.446,1.113.629,1.578a12.082,12.082,0,0,1,.4,1.213A6.951,6.951,0,0,1,161.357,376.237Z" transform="translate(-90.407 -204.064)" fill="#d37a57"/>
      <path id="Path_1369" data-name="Path 1369" d="M175.673,372.054a2.635,2.635,0,0,1-.195-.277c-.119-.189-.3-.459-.49-.83a23.468,23.468,0,0,1-1.4-3.256c-.5-1.408-.981-3.143-1.546-5.029a26.4,26.4,0,0,0-2.414-5.877,15.457,15.457,0,0,0-4.3-4.614c-1.584-1.15-3.111-2.081-4.274-3.036a10.849,10.849,0,0,1-2.426-2.577,6.288,6.288,0,0,1-.453-.855,1.17,1.17,0,0,1-.119-.314c.031,0,.207.415.679,1.1a11.51,11.51,0,0,0,2.464,2.464c1.169.918,2.7,1.823,4.306,2.979a15.337,15.337,0,0,1,4.4,4.683,25.858,25.858,0,0,1,2.426,5.959c.553,1.886,1.012,3.608,1.477,5.029a28.283,28.283,0,0,0,1.257,3.269A11.943,11.943,0,0,1,175.673,372.054Z" transform="translate(-95.759 -200.101)" fill="#d37a57"/>
      <path id="Path_1370" data-name="Path 1370" d="M186.055,366.078a1.188,1.188,0,0,1-.1-.308c-.057-.245-.126-.541-.214-.905s-.195-.874-.352-1.421-.308-1.188-.553-1.886-.465-1.427-.786-2.213-.673-1.615-1.056-2.483a38.972,38.972,0,0,0-6.914-10.177c-.666-.679-1.289-1.339-1.923-1.886s-1.213-1.087-1.773-1.546-1.075-.842-1.527-1.194-.855-.629-1.188-.855l-.767-.528c-.17-.126-.258-.195-.251-.207a1.451,1.451,0,0,1,.289.151l.8.484c.346.207.761.471,1.226.811s1.012.7,1.571,1.163,1.182.943,1.8,1.527,1.257,1.207,1.955,1.886a41.332,41.332,0,0,1,3.922,4.84,40.631,40.631,0,0,1,3.055,5.418c.383.88.761,1.71,1.037,2.514s.547,1.546.754,2.244.365,1.326.509,1.886a14.608,14.608,0,0,1,.3,1.439c.063.365.113.673.157.918a1.126,1.126,0,0,1,.025.327Z" transform="translate(-99.692 -198.273)" fill="#d37a57"/>
      <path id="Path_1371" data-name="Path 1371" d="M140.059,342.383c0,.05-.446.119-1.106.409a5.3,5.3,0,0,0-3.212,4.237c-.094.717-.038,1.169-.088,1.175a2.288,2.288,0,0,1-.138-1.194,4.985,4.985,0,0,1,3.357-4.438A2.382,2.382,0,0,1,140.059,342.383Z" transform="translate(-87.376 -198.98)" fill="#d37a57"/>
      <path id="Path_1372" data-name="Path 1372" d="M150.545,332.75c.05.088-1.056.786-2.15,1.955s-1.747,2.3-1.835,2.257a7.958,7.958,0,0,1,3.985-4.212Z" transform="translate(-91.488 -195.406)" fill="#d37a57"/>
      <path id="Path_1373" data-name="Path 1373" d="M294.848,203.864c-1.087.453-1.307,1.754-1.289,2.929,0,1.471.39,1.71,1.59,4.174a107.2,107.2,0,0,1,4.318,11.673s-1.93,19.3-.629,23.829a7.669,7.669,0,0,0,5.029,5.135l-1.76,14.9h21.051s-.748-14.457-1.2-18.857c-.478-4.651-.163-32.78-.163-32.78l-2.068-15.017-4.871-8.436a3.8,3.8,0,0,0-1.439,4.62,56.314,56.314,0,0,1,1.823,9.014L303.051,186.71s-2.395.572-2.514,5.029a4.336,4.336,0,0,0-1.257,6.053c2.464,4.186,5.117,16.758,4.186,16.758l-7.543-11.107Z" transform="translate(-146.086 -141.164)" fill="#ef9d78"/>
      <path id="Path_1374" data-name="Path 1374" d="M301.96,266.412a7.775,7.775,0,0,1,.094-.987c.094-.654.182-1.628.321-2.885.289-2.546.717-6.286,1.257-11.044l.057.088a7.964,7.964,0,0,1-2.678-1.483A7.26,7.26,0,0,1,299,247.441a10.22,10.22,0,0,1-.742-3.514q-.107-1.886-.088-3.834c.057-5.268.465-11.164,1.062-17.563v.05c-.987-3.105-2.081-6.38-3.451-9.7-.346-.83-.71-1.653-1.125-2.47a19.95,19.95,0,0,1-1.207-2.514,5.319,5.319,0,0,1-.151-1.439,5.028,5.028,0,0,1,.214-1.446,2.15,2.15,0,0,1,.88-1.213,4.285,4.285,0,0,1,.673-.314l.666-.277.113-.044.069.1,7.882,11.56-.289.063a12.214,12.214,0,0,0-.038-2.91,25.02,25.02,0,0,0-.5-2.942,45.623,45.623,0,0,0-1.76-5.839c-.691-1.942-1.565-3.828-2.414-5.77a5.167,5.167,0,0,1-.339-3.2,4.721,4.721,0,0,1,1.8-2.715l-.069.119a11.66,11.66,0,0,1,.666-2.835,5.837,5.837,0,0,1,.742-1.339,2.659,2.659,0,0,1,1.257-.974l.1-.031.069.1.145.214L315.2,204.9l-.3.107a64.681,64.681,0,0,0-1.289-7.185c-.145-.585-.308-1.157-.5-1.716a4.9,4.9,0,0,1-.3-1.81,3.935,3.935,0,0,1,1.779-3.074l.132-.088.082.145,4.872,8.436h0q1.075,7.882,2.055,15.023h0c-.088,7.782-.132,14.9-.119,21.2,0,3.143,0,6.1.094,8.8.038,1.358.113,2.653.239,3.9s.182,2.433.258,3.558c.3,4.5.471,8.033.6,10.441.057,1.2.1,2.118.126,2.747s.031.943.031.943-.031-.321-.069-.943-.1-1.546-.17-2.741c-.151-2.407-.358-5.94-.673-10.441-.082-1.125-.163-2.307-.27-3.551s-.22-2.546-.258-3.9c-.088-2.728-.113-5.657-.132-8.8-.031-6.286,0-13.42.075-21.2h0q-.987-7.128-2.081-15.017v.05l-4.884-8.423.214.057a3.658,3.658,0,0,0-1.628,2.816,4.821,4.821,0,0,0,.289,1.7q.3.855.509,1.735a65.989,65.989,0,0,1,1.3,7.229l.088.685-.383-.578-12.05-18.128-.138-.214.17.069a2.4,2.4,0,0,0-1.069.855,5.324,5.324,0,0,0-.691,1.257,11.382,11.382,0,0,0-.629,2.753v.069l-.063.05a4.4,4.4,0,0,0-1.666,2.514,4.9,4.9,0,0,0,.327,3c.836,1.917,1.722,3.828,2.414,5.777a46.005,46.005,0,0,1,1.773,5.883,25.406,25.406,0,0,1,.522,3.055,12.572,12.572,0,0,1,.038,3l-.057.4-.233-.339c-2.722-4.01-5.374-7.908-7.876-11.585l.182.05c-.434.195-.93.358-1.3.566a1.836,1.836,0,0,0-.754,1.056,4.7,4.7,0,0,0-.2,1.358,5.029,5.029,0,0,0,.138,1.351,20.3,20.3,0,0,0,1.182,2.514c.415.823.786,1.659,1.131,2.514,1.37,3.338,2.458,6.613,3.438,9.73v.05c-.629,6.393-1.031,12.282-1.106,17.544q0,1.967.075,3.815a9.932,9.932,0,0,0,.71,3.451,7.543,7.543,0,0,0,4.557,4.061h.069v.063c-.585,4.771-1.037,8.492-1.345,11.032l-.358,2.885C302.017,266.078,301.96,266.412,301.96,266.412Z" transform="translate(-145.988 -141.067)" fill="#d37a57"/>
      <path id="Path_1375" data-name="Path 1375" d="M315.44,219.128a6.207,6.207,0,0,1-.226-1.037c-.119-.673-.321-1.641-.591-2.835a47.552,47.552,0,0,0-3.111-8.989,61.025,61.025,0,0,0-4.746-8.272c-.679-1.012-1.257-1.823-1.641-2.382a7.958,7.958,0,0,1-.585-.893,6.2,6.2,0,0,1,.685.817c.427.534,1.025,1.326,1.735,2.326a53.141,53.141,0,0,1,4.846,8.266,42.868,42.868,0,0,1,3.042,9.077c.239,1.2.415,2.181.49,2.866a5.954,5.954,0,0,1,.1,1.056Z" transform="translate(-150.165 -144.139)" fill="#d37a57"/>
      <path id="Path_1376" data-name="Path 1376" d="M330.627,222.167a19.952,19.952,0,0,1-1.54-3.269,19.269,19.269,0,0,1-1.257-3.388,43.475,43.475,0,0,1,2.8,6.657Z" transform="translate(-158.815 -151.861)" fill="#d37a57"/>
      <path id="Path_1377" data-name="Path 1377" d="M296.116,302.317h0c-3.7,32.611-8.5,67.321-14.036,103.376h42.85c8.058-17.839,3.143-33.4.981-55.585l-7.065-50.368Z" transform="translate(-141.823 -183.145)" fill="#0f4c81"/>
      <path id="Path_1378" data-name="Path 1378" d="M282.077,420.16a1.031,1.031,0,0,1,0-.207l.075-.629c.082-.559.189-1.358.327-2.37.3-2.081.735-5.029,1.257-8.725,1.081-7.38,2.577-17.537,4.224-28.764s2.986-21.422,3.885-28.808c.459-3.7.8-6.682,1.037-8.75.119-1.018.214-1.817.283-2.382l.075-.629a1.11,1.11,0,0,1,.044-.207v.207l-.05.629c-.05.566-.126,1.37-.22,2.389-.195,2.068-.5,5.066-.937,8.762-.836,7.392-2.169,17.6-3.771,28.833s-3.181,21.372-4.325,28.751c-.572,3.658-1.043,6.625-1.37,8.706-.163,1.006-.3,1.8-.383,2.363-.044.251-.082.459-.107.629a1.162,1.162,0,0,1-.044.2Z" transform="translate(-141.819 -197.612)" fill="#263238"/>
    </g>
    <g id="freepik--Device--inject-35" transform="translate(109.179 219.076)">
      <path id="Path_1379" data-name="Path 1379" d="M357.58,414.076H235.39l15.765-85.757a6.411,6.411,0,0,1,6.286-5.249H367.253a6.412,6.412,0,0,1,6.286,7.612Z" transform="translate(-189.039 -323.018)" fill="#455a64"/>
      <path id="Path_1380" data-name="Path 1380" d="M208,464.221H161.65l.189-.138a25.143,25.143,0,0,1,14.294-5.029l33.139-.974Z" transform="translate(-161.65 -373.164)" fill="#455a64"/>
      <path id="Path_1381" data-name="Path 1381" d="M267.357,323.152c0,.031-.339-.063-.987-.069a6.141,6.141,0,0,0-2.715.679,8.31,8.31,0,0,0-3.256,2.961,15.714,15.714,0,0,0-2,5.544c-.4,2.169-.748,4.576-1.182,7.147s-.911,5.312-1.452,8.172c-1.062,5.764-2.326,12.088-3.7,18.707-2.759,13.244-5.318,25.219-6.984,33.943-.842,4.35-1.49,7.876-1.93,10.315-.22,1.194-.39,2.131-.509,2.8-.063.3-.107.541-.145.729a1.351,1.351,0,0,1-.063.245v-.251c0-.17.063-.434.1-.735.107-.679.245-1.622.427-2.822.383-2.445.987-5.984,1.785-10.346,1.59-8.718,4.1-20.712,6.858-33.943,1.37-6.619,2.64-12.93,3.727-18.688.553-2.873,1.037-5.613,1.5-8.172s.817-4.96,1.257-7.147a15.752,15.752,0,0,1,2.1-5.62,8.423,8.423,0,0,1,3.394-2.986,5.9,5.9,0,0,1,2.791-.629A3.488,3.488,0,0,1,267.357,323.152Z" transform="translate(-191.657 -322.987)" fill="#263238"/>
      <path id="Path_1382" data-name="Path 1382" d="M357.2,388.9a5.909,5.909,0,1,1-5.909-5.909A5.909,5.909,0,0,1,357.2,388.9Z" transform="translate(-229.891 -345.274)" fill="#f5f5f5"/>
    </g>
    <g id="freepik--Desk--inject-35" transform="translate(20.38 310.065)">
      <path id="Path_1383" data-name="Path 1383" d="M307.792,467.9c0,.088-64.348.163-143.7.163S20.38,468,20.38,467.9s64.329-.163,143.712-.163S307.792,467.815,307.792,467.9Z" transform="translate(-20.38 -467.74)" fill="#263238"/>
    </g>
    <g id="freepik--lighting-bolts--inject-35" transform="translate(114.328 58.853)">
      <path id="Path_1384" data-name="Path 1384" d="M196.73,94.314l-1.678-15.784L187,80.347,180.06,68.09l4.325,16.569,8.165-1.873Z" transform="translate(-173.636 -68.09)" fill="#ff725e"/>
      <path id="Path_1385" data-name="Path 1385" d="M189.653,110l-7.48-7.7-3.526,4.331L169.84,103l9.215,7.015,3.564-4.406Z" transform="translate(-169.84 -80.796)" fill="#ff725e"/>
      <path id="Path_1386" data-name="Path 1386" d="M330,116.054l6.8-12.37,5.978,4.255,9.9-7.669-9.234,12.106-6.06-4.337Z" transform="translate(-229.327 -80.042)" fill="#ff725e"/>
      <path id="Path_1387" data-name="Path 1387" d="M349.85,134.838l7.034-3,1.125,3.809,6.782.044-7.983,2.068-1.131-3.872Z" transform="translate(-236.699 -91.768)" fill="#ff725e"/>
    </g>
    <g id="freepik--Line--inject-35" transform="translate(158.378 49.047)">
      <path id="Path_1388" data-name="Path 1388" d="M260.229,57.3s.283-.182.849-.522a22.987,22.987,0,0,1,2.621-1.314,25.42,25.42,0,0,1,11.12-2.03,18.6,18.6,0,0,1,1.917.157,12.082,12.082,0,0,1,2,.365,8.171,8.171,0,0,1,1.98.8,4.4,4.4,0,0,1,1.615,1.553,3.382,3.382,0,0,1,.39,2.3,4.57,4.57,0,0,1-1.163,2.156,10.686,10.686,0,0,1-4.4,2.671A27.513,27.513,0,0,1,265.8,65.074,27.877,27.877,0,0,1,253.416,61.3l-.088-.057.057-.088a17.141,17.141,0,0,1,6.525-6,22.9,22.9,0,0,1,9.1-2.6,34.937,34.937,0,0,1,9.988.811c1.685.358,3.369.8,5.029,1.326a28.529,28.529,0,0,1,5.029,1.886,9.692,9.692,0,0,1,4.029,3.69,6.7,6.7,0,0,1,.874,2.671,5.657,5.657,0,0,1-.465,2.8,8.75,8.75,0,0,1-4.079,3.947,22.729,22.729,0,0,1-5.506,1.93,57.515,57.515,0,0,1-24.225.629c-.522-.088-1.031-.214-1.553-.321s-1.031-.226-1.546-.358a20.909,20.909,0,0,1-3.061-.937,10.378,10.378,0,0,1-2.8-1.641,4.8,4.8,0,0,1-1.691-2.8,4.438,4.438,0,0,1,.7-3.212,8.85,8.85,0,0,1,2.345-2.345,17.749,17.749,0,0,1,2.9-1.622c.49-.251,1.006-.471,1.515-.685s1.025-.434,1.553-.629a39.481,39.481,0,0,1,13.263-2.514,40.122,40.122,0,0,1,6.877.478c.572.088,1.144.182,1.716.314s1.138.226,1.7.383a19.694,19.694,0,0,1,3.338,1.081,11.151,11.151,0,0,1,3.017,1.854,5.89,5.89,0,0,1,1.886,3.011l.094.446.038.459a6.318,6.318,0,0,1,0,.911,5.556,5.556,0,0,1-.528,1.735,8.592,8.592,0,0,1-2.275,2.791,15.715,15.715,0,0,1-3.017,1.98c-.534.283-1.087.522-1.641.754s-1.106.471-1.672.685a49.41,49.41,0,0,1-6.927,2.106,50.682,50.682,0,0,1-14.6,1.207,17.041,17.041,0,0,1-7.185-1.886,7.82,7.82,0,0,1-2.81-2.514,6.028,6.028,0,0,1-.905-3.671,6.694,6.694,0,0,1,.987-2.942,10.786,10.786,0,0,1,2.024-2.345,18.569,18.569,0,0,1,5.236-3.143,36.822,36.822,0,0,1,11.729-2.829,37.282,37.282,0,0,1,5.984.044c.993.088,1.98.214,2.961.383a16.079,16.079,0,0,1,2.9.723,10.177,10.177,0,0,1,2.665,1.333,5.356,5.356,0,0,1,1.923,2.282,4.13,4.13,0,0,1,.094,2.967,5.827,5.827,0,0,1-1.666,2.445,12.143,12.143,0,0,1-5.312,2.345c-1.854.459-3.727.886-5.588,1.295a81.5,81.5,0,0,1-11.17,1.791A40.229,40.229,0,0,1,250.1,71.14a27.029,27.029,0,0,1-10.02-4.092l-.163-.107.145-.132a34.993,34.993,0,0,1,18.084-8.172A34.465,34.465,0,0,1,276.9,60.982a9.221,9.221,0,0,1,1.961,1.257,4.557,4.557,0,0,1,1.364,1.886,3.262,3.262,0,0,1-.113,2.326,4.708,4.708,0,0,1-1.483,1.766,13.829,13.829,0,0,1-4.073,1.886,28.574,28.574,0,0,1-4.293,1.018,27.9,27.9,0,0,1-8.586,0,4.23,4.23,0,0,1-1.986-.71,2.087,2.087,0,0,1-.723-1.98,3.608,3.608,0,0,1,1.119-1.791,7.367,7.367,0,0,1,1.7-1.188,29.688,29.688,0,0,1,15.274-2.42,13.83,13.83,0,0,1,3.627.836,6.587,6.587,0,0,1,2.935,2.143,4.872,4.872,0,0,1,.981,3.4,4.645,4.645,0,0,1-1.76,2.948,17.667,17.667,0,0,1-2.8,1.823,26.862,26.862,0,0,1-2.979,1.408,28.45,28.45,0,0,1-6.034,1.666,27.9,27.9,0,0,1-11.314-.49h-.119l.069-.094a13.59,13.59,0,0,1,6.286-4.7,13.37,13.37,0,0,1,6.864-.679,7.021,7.021,0,0,1,2.9,1.094,3.847,3.847,0,0,1,1.025,1.043,3.143,3.143,0,0,1,.465,1.326,3.772,3.772,0,0,1-.691,2.477,6.913,6.913,0,0,1-1.622,1.678,13.766,13.766,0,0,1-3.476,1.685,18.885,18.885,0,0,0-2.527,1.125,7.147,7.147,0,0,0-1.37.987c-.138.126-.233.233-.3.3l-.1.1a5.558,5.558,0,0,1,.39-.421,6.958,6.958,0,0,1,1.358-1.006,18.286,18.286,0,0,1,2.514-1.157,14.174,14.174,0,0,0,3.451-1.7,6.72,6.72,0,0,0,1.59-1.666,3.627,3.627,0,0,0,.666-2.407,2.917,2.917,0,0,0-.453-1.257,3.564,3.564,0,0,0-1-1.012,6.851,6.851,0,0,0-2.854-1.062,13.244,13.244,0,0,0-6.795.685,13.471,13.471,0,0,0-6.21,4.658l-.044-.126a27.809,27.809,0,0,0,11.239.465A28.62,28.62,0,0,0,277,75.439a27.725,27.725,0,0,0,2.942-1.383,17.387,17.387,0,0,0,2.785-1.823,4.476,4.476,0,0,0,1.685-2.816,4.676,4.676,0,0,0-.968-3.231,6.349,6.349,0,0,0-2.822-2.081,13.294,13.294,0,0,0-3.564-.842,29.361,29.361,0,0,0-15.18,2.395,6.957,6.957,0,0,0-1.634,1.144,3.388,3.388,0,0,0-1.025,1.666,1.823,1.823,0,0,0,.629,1.735,3.991,3.991,0,0,0,1.886.748,27.721,27.721,0,0,0,8.5,0,28.915,28.915,0,0,0,4.255-1.018,13.464,13.464,0,0,0,3.991-1.886,4.444,4.444,0,0,0,1.4-1.659,2.979,2.979,0,0,0,.1-2.125,4.167,4.167,0,0,0-1.257-1.779,8.656,8.656,0,0,0-1.886-1.257A34.214,34.214,0,0,0,258.2,58.876a34.7,34.7,0,0,0-17.921,8.172V66.8a26.853,26.853,0,0,0,9.913,4.035,39.833,39.833,0,0,0,10.988.528,81.364,81.364,0,0,0,11.126-1.81c1.886-.409,3.721-.849,5.582-1.295a11.51,11.51,0,0,0,5.173-2.269,5.5,5.5,0,0,0,1.54-2.332,3.866,3.866,0,0,0-.094-2.747,5.029,5.029,0,0,0-1.81-2.137,10.057,10.057,0,0,0-2.583-1.289,15.544,15.544,0,0,0-2.847-.685c-.968-.17-1.949-.3-2.929-.383a37.469,37.469,0,0,0-5.94-.038,36.5,36.5,0,0,0-11.616,2.8,18.147,18.147,0,0,0-5.154,3.093,7.961,7.961,0,0,0-2.929,5.073,5.7,5.7,0,0,0,.855,3.463,7.543,7.543,0,0,0,2.69,2.407,16.752,16.752,0,0,0,7.046,1.848A50.519,50.519,0,0,0,273.8,73.874a49.889,49.889,0,0,0,6.914-2.118q.836-.321,1.659-.679c.553-.233,1.094-.471,1.622-.748a15.645,15.645,0,0,0,2.954-1.936,8.354,8.354,0,0,0,2.194-2.684,5.35,5.35,0,0,0,.5-1.634,5.559,5.559,0,0,0,0-.855l-.038-.427-.088-.421a5.563,5.563,0,0,0-1.773-2.847,10.906,10.906,0,0,0-2.935-1.8,19.484,19.484,0,0,0-3.287-1.069c-.559-.151-1.125-.264-1.691-.383s-1.125-.22-1.7-.308a39.531,39.531,0,0,0-19.983,2.011,16.155,16.155,0,0,0-1.54.629c-.509.239-1.012.427-1.5.679a17.6,17.6,0,0,0-2.86,1.6,8.492,8.492,0,0,0-2.263,2.257,4.149,4.149,0,0,0-.666,3,4.538,4.538,0,0,0,1.59,2.621,9.976,9.976,0,0,0,2.715,1.59,20,20,0,0,0,3.023.924c.509.132,1.018.258,1.534.358s1.025.233,1.54.321a57.264,57.264,0,0,0,24.106-.629,22.271,22.271,0,0,0,5.444-1.886,8.483,8.483,0,0,0,3.973-3.815,5.412,5.412,0,0,0,.44-2.665,6.424,6.424,0,0,0-.855-2.6,9.517,9.517,0,0,0-3.922-3.589,28.915,28.915,0,0,0-4.953-1.886c-1.678-.522-3.357-.968-5.029-1.326A34.736,34.736,0,0,0,269,52.735a22.629,22.629,0,0,0-9,2.59,16.915,16.915,0,0,0-6.456,5.909l-.038-.145a27.8,27.8,0,0,0,23.584,2.2,10.567,10.567,0,0,0,4.369-2.634,4.513,4.513,0,0,0,1.138-2.081,3.225,3.225,0,0,0-.371-2.206,4.237,4.237,0,0,0-1.565-1.509,7.907,7.907,0,0,0-1.949-.8,12.308,12.308,0,0,0-1.98-.371c-.629-.088-1.257-.132-1.886-.163a25.6,25.6,0,0,0-11.094,1.993,25.208,25.208,0,0,0-2.627,1.257C260.525,57.142,260.229,57.3,260.229,57.3Z" transform="translate(-239.92 -52.49)" fill="#263238"/>
    </g>
  </g>
</svg>
