<svg xmlns="http://www.w3.org/2000/svg" width="115" height="118.978" viewBox="0 0 115 118.978">
  <g id="Layer_2" transform="translate(-78 -63)">
    <g id="Group_340" data-name="Group 340" transform="translate(78 63)">
      <g id="Group_329" data-name="Group 329" transform="translate(3.23 0)">
        <g id="Group_320" data-name="Group 320" transform="translate(20.19)">
          <path id="Path_970" data-name="Path 970" d="M236.427,133.1h-83.5a2.423,2.423,0,0,1,0-4.846H234V67.846H155.346V81.187a2.423,2.423,0,1,1-4.846,0V65.423A2.44,2.44,0,0,1,152.923,63h83.5a2.44,2.44,0,0,1,2.423,2.423v65.253A2.44,2.44,0,0,1,236.427,133.1Z" transform="translate(-150.5 -63)" fill="#0f4c81"/>
        </g>
        <g id="Group_321" data-name="Group 321" transform="translate(31.496 8.819)">
          <path id="Path_971" data-name="Path 971" d="M248.815,142.728a2.44,2.44,0,0,1-2.423-2.423V95.146H187.923a2.423,2.423,0,0,1,0-4.846h60.86a2.44,2.44,0,0,1,2.423,2.423v47.583A2.392,2.392,0,0,1,248.815,142.728Z" transform="translate(-185.5 -90.3)" fill="#20b0e0"/>
        </g>
        <g id="Group_325" data-name="Group 325" transform="translate(0 14.956)">
          <g id="Group_322" data-name="Group 322" transform="translate(7.785)">
            <path id="Path_972" data-name="Path 972" d="M123.212,131.525a11.112,11.112,0,1,1,11.112-11.112A11.112,11.112,0,0,1,123.212,131.525Zm0-17.412a6.267,6.267,0,1,0,6.267,6.267A6.273,6.273,0,0,0,123.212,114.113Z" transform="translate(-112.1 -109.3)" fill="#0f4c81"/>
          </g>
          <g id="Group_323" data-name="Group 323" transform="translate(0 25.423)">
            <path id="Path_973" data-name="Path 973" d="M123.372,217.719H90.423A2.44,2.44,0,0,1,88,215.3v-8.4a18.9,18.9,0,0,1,37.795,0v8.4A2.419,2.419,0,0,1,123.372,217.719Zm-30.527-4.845h28.1V206.9a14.052,14.052,0,1,0-28.1,0Z" transform="translate(-88 -188)" fill="#0f4c81"/>
          </g>
          <g id="Group_324" data-name="Group 324" transform="translate(9.388 26.993)">
            <path id="Path_974" data-name="Path 974" d="M126.571,208.573a2.472,2.472,0,0,1-2.035-1.1l-7.074-10.854a2.428,2.428,0,0,1,4.07-2.649l5.039,7.753,5.039-7.753a2.428,2.428,0,0,1,4.07,2.649l-7.074,10.854A2.429,2.429,0,0,1,126.571,208.573Z" transform="translate(-117.062 -192.862)" fill="#0f4c81"/>
          </g>
        </g>
        <g id="Group_326" data-name="Group 326" transform="translate(39.507 18.736)">
          <path id="Path_975" data-name="Path 975" d="M222.737,125.846H212.723a2.423,2.423,0,0,1,0-4.845h10.014a2.423,2.423,0,0,1,0,4.845Z" transform="translate(-210.3 -121)" fill="#0f4c81"/>
        </g>
        <g id="Group_327" data-name="Group 327" transform="translate(39.507 32.336)">
          <path id="Path_976" data-name="Path 976" d="M240.827,167.946h-28.1a2.423,2.423,0,0,1,0-4.846h28.1a2.423,2.423,0,0,1,0,4.846Z" transform="translate(-210.3 -163.1)" fill="#0f4c81"/>
        </g>
        <g id="Group_328" data-name="Group 328" transform="translate(39.507 45.968)">
          <path id="Path_977" data-name="Path 977" d="M240.827,210.146h-28.1a2.423,2.423,0,1,1,0-4.846h28.1a2.423,2.423,0,0,1,0,4.846Z" transform="translate(-210.3 -205.3)" fill="#0f4c81"/>
        </g>
      </g>
      <g id="Group_339" data-name="Group 339" transform="translate(0 80.149)">
        <g id="Group_332" data-name="Group 332">
          <g id="Group_330" data-name="Group 330" transform="translate(8.625)">
            <path id="Path_978" data-name="Path 978" d="M113.228,345.856a8.528,8.528,0,1,1,8.528-8.528A8.52,8.52,0,0,1,113.228,345.856Zm0-12.211a3.683,3.683,0,1,0,3.683,3.683A3.681,3.681,0,0,0,113.228,333.646Z" transform="translate(-104.7 -328.8)" fill="#0f4c81"/>
          </g>
          <g id="Group_331" data-name="Group 331" transform="translate(0 19.608)">
            <path id="Path_979" data-name="Path 979" d="M109.916,408.721H80.423A2.44,2.44,0,0,1,78,406.3a16.806,16.806,0,0,1,16.8-16.8h.743a16.806,16.806,0,0,1,16.8,16.8A2.419,2.419,0,0,1,109.916,408.721Zm-26.844-4.846h24.163a11.981,11.981,0,0,0-11.694-9.529H94.8A11.99,11.99,0,0,0,83.072,403.875Z" transform="translate(-78 -389.5)" fill="#0f4c81"/>
          </g>
        </g>
        <g id="Group_335" data-name="Group 335" transform="translate(40.347)">
          <g id="Group_333" data-name="Group 333" transform="translate(8.625)">
            <path id="Path_980" data-name="Path 980" d="M238.128,345.856a8.528,8.528,0,1,1,8.528-8.528A8.52,8.52,0,0,1,238.128,345.856Zm0-12.211a3.683,3.683,0,1,0,3.683,3.683A3.681,3.681,0,0,0,238.128,333.646Z" transform="translate(-229.6 -328.8)" fill="#0f4c81"/>
          </g>
          <g id="Group_334" data-name="Group 334" transform="translate(0 19.608)">
            <path id="Path_981" data-name="Path 981" d="M234.816,408.721H205.323A2.44,2.44,0,0,1,202.9,406.3a16.806,16.806,0,0,1,16.8-16.8h.743a16.806,16.806,0,0,1,16.8,16.8A2.419,2.419,0,0,1,234.816,408.721Zm-26.844-4.846h24.163a11.981,11.981,0,0,0-11.694-9.529H219.7A11.99,11.99,0,0,0,207.972,403.875Z" transform="translate(-202.9 -389.5)" fill="#0f4c81"/>
          </g>
        </g>
        <g id="Group_338" data-name="Group 338" transform="translate(80.662)">
          <g id="Group_336" data-name="Group 336" transform="translate(8.657)">
            <path id="Path_982" data-name="Path 982" d="M363.028,345.856a8.528,8.528,0,1,1,8.528-8.528A8.52,8.52,0,0,1,363.028,345.856Zm0-12.211a3.683,3.683,0,1,0,3.683,3.683A3.681,3.681,0,0,0,363.028,333.646Z" transform="translate(-354.5 -328.8)" fill="#0f4c81"/>
          </g>
          <g id="Group_337" data-name="Group 337" transform="translate(0 19.608)">
            <path id="Path_983" data-name="Path 983" d="M359.616,408.721H330.123A2.44,2.44,0,0,1,327.7,406.3a16.805,16.805,0,0,1,16.8-16.8h.743a16.805,16.805,0,0,1,16.8,16.8A2.4,2.4,0,0,1,359.616,408.721ZM332.8,403.875h24.163a11.981,11.981,0,0,0-11.694-9.529h-.743A11.963,11.963,0,0,0,332.8,403.875Z" transform="translate(-327.7 -389.5)" fill="#0f4c81"/>
          </g>
        </g>
      </g>
    </g>
  </g>
</svg>
