<svg xmlns="http://www.w3.org/2000/svg" width="560.416" height="280.369" viewBox="0 0 560.416 280.369">
  <g id="Live_collaboration-pana" data-name="Live collaboration-pana" transform="translate(-33.029 -65.371)">
    <g id="freepik--background-complete--inject-5" transform="translate(33.029 147.833)">
      <path id="Path_1389" data-name="Path 1389" d="M701.672,245.6l-5.032-8.76L688.771,238l-6.483-8.168,3.347-8.1-8.776-5.827-6.556,6.6-8.63-1.507-3.493-10.154-10.494,1.11-.591,8.873-7.82,3.922L631,218.887l-8.4,6.118,4.36,9.392-4.992,7.528-9.068-.486L610.53,252.63l8.63,3.323.746,9.4-8.914,5.146,4.279,9.724,9.263-1.442,6.134,7.083-3.241,8.833,8.485,5.989,6.621-7.164,9.19,2.488,2.861,9.481,10.211-.689,1.313-8.517,8.76-5.024,7.164,5.713,9.06-6.75-4.595-7.942,4.465-8,9.19.673,2.812-10.413-7.885-4.263-1.045-9.489ZM666.1,276.236a20.64,20.64,0,1,1,7.625-28.176A20.64,20.64,0,0,1,666.1,276.236Z" transform="translate(-142.544 -175.419)" fill="#f5f5f5"/>
      <path id="Path_1390" data-name="Path 1390" d="M113.92,355.742c15.527-13.42,17.082-35.5,14.408-54.943-.446-3.241-.446-6.71-2.285-9.408s-5.673-4.271-8.436-2.6c-2.3,1.386-3.063,4.311-4.173,6.775a19.165,19.165,0,0,1-6.88,8.1c-1.969,1.288-4.465,2.212-6.629,1.3-2.966-1.264-3.7-5.105-4.052-8.347l-1.71-18.12c-.316-3.241-.648-6.54-1.969-9.514s-3.849-5.592-7.018-6.134-6.791,1.621-7.115,4.862a29.78,29.78,0,0,0,.324,4.052c.049,1.361-.421,2.909-1.621,3.412s-2.642-.267-3.711-1.118c-3.679-2.925-6.378-6.9-8.914-10.875s-5.049-8.039-8.452-11.3-7.885-5.673-12.553-5.429-9.311,3.59-10.008,8.266,2.431,9.036,5.713,12.431a72.521,72.521,0,0,0,16.531,12.8,6.047,6.047,0,0,1,2.8,2.431c.924,2.083-.9,4.441-2.958,5.373-2.334,1.045-4.976,1.07-7.472,1.621s-5.113,1.953-5.818,4.433c-.989,3.452,2.139,6.629,5.1,8.622a62.3,62.3,0,0,0,19.449,8.687c2.431.624,5.057,1.135,7.147,2.609s3.549,4.262,2.626,6.661-3.825,3.444-6.369,3.241-4.911-1.329-7.382-1.977c-4.627-1.224-10.34-.324-12.8,3.817-1.621,2.723-1.41,6.256-.154,9.173a23.591,23.591,0,0,0,5.737,7.5,62.573,62.573,0,0,0,28.509,15.94c10.681,2.512,20.356,2.5,30.227-2.31" transform="translate(-33.029 -182.17)" fill="#f5f5f5"/>
      <path id="Path_1391" data-name="Path 1391" d="M116.668,370.95a142.316,142.316,0,0,0-8.039-26.142,291.512,291.512,0,0,0-14.741-30.048q-2.164-3.89-4.271-7.674c-1.4-2.52-2.8-5.016-4.311-7.374a146.2,146.2,0,0,0-9.481-13.039c-3.241-4-6.418-7.69-9.433-11.11s-5.908-6.548-8.647-9.254A116.946,116.946,0,0,0,43.84,254.314c-1.75-1.272-3.136-2.22-4.052-2.853-.454-.3-.81-.535-1.086-.7a2.493,2.493,0,0,0-.373-.227,1.789,1.789,0,0,0,.34.276l1.053.754c.924.665,2.285,1.621,4.052,2.95a122.686,122.686,0,0,1,13.776,12.074c2.715,2.747,5.575,5.891,8.574,9.311s6.175,7.123,9.376,11.126a147.335,147.335,0,0,1,9.416,13.014c1.5,2.342,2.885,4.822,4.295,7.342s2.82,5.089,4.263,7.674a298.308,298.308,0,0,1,14.749,29.984,144.875,144.875,0,0,1,8.1,26.013" transform="translate(-34.034 -182.946)" fill="#e0e0e0"/>
      <path id="Path_1392" data-name="Path 1392" d="M96.056,302.77a6.418,6.418,0,0,0,.178-1.418c.081-.908.146-2.237.211-3.874.122-3.241.138-7.788.146-12.779s.081-9.5.259-12.755c.081-1.621.162-2.95.227-3.865a6.117,6.117,0,0,0,0-1.418,6.687,6.687,0,0,0-.267,1.394c-.138.908-.284,2.228-.413,3.857-.292,3.241-.438,7.8-.438,12.788v16.645a6.889,6.889,0,0,0,.1,1.426Z" transform="translate(-44.962 -186.004)" fill="#e0e0e0"/>
      <path id="Path_1393" data-name="Path 1393" d="M43.72,306.806a7.879,7.879,0,0,0,1.686,0c1.078,0,2.634-.049,4.562,0,3.857,0,9.181.235,15.048.721s11.151,1.183,14.959,1.783c1.912.292,3.452.559,4.514.746a9.385,9.385,0,0,0,1.621.235,8.046,8.046,0,0,0-1.621-.462c-1.053-.259-2.585-.6-4.489-.94-3.809-.713-9.1-1.459-14.984-1.961a147.888,147.888,0,0,0-15.1-.551c-1.937,0-3.5.13-4.579.219A9.878,9.878,0,0,0,43.72,306.806Z" transform="translate(-35.056 -193.533)" fill="#e0e0e0"/>
      <path id="Path_1394" data-name="Path 1394" d="M124.35,353.052a2.43,2.43,0,0,0,.235-.535c.146-.43.332-.948.551-1.58.478-1.378,1.118-3.379,1.872-5.867,1.523-4.976,3.4-11.92,5.365-19.6s3.784-14.635,5.194-19.635c.7-2.431,1.264-4.433,1.686-5.916.186-.648.332-1.183.454-1.621a1.775,1.775,0,0,0,.113-.575,2.73,2.73,0,0,0-.227.543c-.154.43-.34.948-.559,1.58-.478,1.37-1.118,3.379-1.872,5.867-1.515,4.976-3.4,11.912-5.365,19.6s-3.784,14.635-5.194,19.635c-.689,2.431-1.264,4.433-1.686,5.916l-.446,1.621a2.489,2.489,0,0,0-.122.567Z" transform="translate(-50.347 -191.895)" fill="#e0e0e0"/>
      <path id="Path_1395" data-name="Path 1395" d="M53.82,351a1.9,1.9,0,0,0,.567.17l1.669.373,6.118,1.313c5.17,1.1,12.293,2.715,20.154,4.506s15.016,3.331,20.21,4.327c2.593.5,4.7.891,6.159,1.126l1.686.259a2.171,2.171,0,0,0,.592.049,2.434,2.434,0,0,0-.575-.17l-1.621-.373-6.191-1.28c-5.17-1.11-12.293-2.715-20.162-4.506s-14.976-3.363-20.17-4.335c-2.593-.5-4.7-.883-6.159-1.118l-1.686-.267A2.69,2.69,0,0,0,53.82,351Z" transform="translate(-36.972 -201.998)" fill="#e0e0e0"/>
      <path id="Path_1396" data-name="Path 1396" d="M600.319,187.982l-2.99-5.2-4.684.689-3.865-4.862,1.994-4.862-5.211-3.444-3.882,3.938-5.13-.9-2.075-6.029-6.24.656-.357,5.275-4.643,2.366-4.919-3.485-5,3.63,2.593,5.591-2.966,4.473-5.4-.292-1.418,6.653,5.138,1.977.438,5.592-5.316,3.055,2.545,5.77,5.5-.859,3.647,4.214-1.9,5.251,5.048,3.557,3.93-4.254,5.47,1.475,1.694,5.673,6.07-.413.81-5.065,5.2-2.982,4.263,3.4,5.389-4.052-2.723-4.749,2.65-4.749,5.462.4,1.686-6.183-4.692-2.536-.624-5.673ZM579.169,206.2a8.987,8.987,0,1,1,.008,0Z" transform="translate(-130.331 -167.164)" fill="none"/>
      <path id="Path_1397" data-name="Path 1397" d="M582.567,209.892a21.147,21.147,0,0,0,2.35-1.88,11.688,11.688,0,0,0,2.115-2.8,12.107,12.107,0,0,0-2.771-15.178,11.289,11.289,0,0,0-2.95-1.831,11.41,11.41,0,0,0-3.493-.932,12.01,12.01,0,0,0-12.366,7.1,12.117,12.117,0,0,0,10.835,17.018,11.694,11.694,0,0,0,3.485-.413,19.22,19.22,0,0,0,2.812-1.086.827.827,0,0,1-.162.113l-.519.284a5.082,5.082,0,0,1-.859.405,8.436,8.436,0,0,1-1.224.438,11.482,11.482,0,0,1-3.533.494A12.37,12.37,0,0,1,564.2,201.4a11.751,11.751,0,0,1-.105-3.582,11.53,11.53,0,0,1,.972-3.606,12.427,12.427,0,1,1,22.188,11.118,11.346,11.346,0,0,1-2.212,2.8,7.774,7.774,0,0,1-1,.81,4.681,4.681,0,0,1-.81.535l-.5.3C582.64,209.868,582.575,209.9,582.567,209.892Z" transform="translate(-133.722 -170.857)" fill="#e0e0e0"/>
      <path id="Path_1398" data-name="Path 1398" d="M600.256,187.948l-.276.2-.81.592-3.379,2.334v-.065c.178,1.532.4,3.428.648,5.673l-.049-.073,4.7,2.528h.073v.081c-.494,1.864-1.054,3.955-1.621,6.191v.105h-.1l-5.462-.389.13-.073-2.771,4.757v-.146c.851,1.467,1.775,3.079,2.731,4.741l.073.122-.114.081-5.381,4.052-.1.073-.105-.081-4.262-3.4h.194l-5.2,3,.089-.13c-.235,1.564-.5,3.3-.81,5.065v.146h-.081l-6.07.421h-.154l-.049-.146-1.7-5.673.138.138-5.462-1.475.2-.057-3.938,4.254-.122.138-.146-.105-5.049-3.557-.13-.1.057-.146c.6-1.621,1.248-3.444,1.9-5.251l.041.211-3.647-4.214.186.073-5.5.859h-.162l-.065-.154c-.81-1.823-1.677-3.793-2.545-5.762l-.081-.178.17-.1.113-.065c1.742-1,3.484-1.993,5.2-2.99l-.105.2q-.219-2.82-.438-5.592l.138.178-5.2-1.912-.162-.065v-.17q.721-3.363,1.41-6.653v-.17h.178l5.389.284-.178.1,2.974-4.473v.195c-.883-1.9-1.742-3.752-2.593-5.592l-.065-.146.13-.089,4.992-3.63.113-.081.113.073,4.911,3.493h-.186l4.643-2.358-.1.154c.121-1.815.243-3.566.357-5.284v-.146h.146l6.232-.648h.138v.13l2.075,6.037-.122-.105,5.13.908h-.138l3.906-3.914.081-.081.1.057,5.211,3.476.081.057v.1c-.754,1.815-1.4,3.371-2,4.862v-.113l3.849,4.862h-.081l4.684-.664h.041v.041l2.228,3.963.535.964c.122.211.17.308.17.308s-.073-.105-.2-.316-.316-.543-.567-.956l-2.277-3.9h.065l-4.676.705h-.049v-.041l-3.882-4.862v-.113c.6-1.451,1.232-3.015,1.977-4.862l.049.146-5.227-3.444h.17c-1.215,1.24-2.488,2.528-3.89,3.938l-.049.057h-.081l-5.065-.859h-.089v-.089c-.673-1.929-1.361-3.93-2.091-6.037l.178.113-6.24.665.162-.162c-.113,1.718-.227,3.468-.348,5.284v.1l-.089.049-4.643,2.366-.105.049-.089-.065-4.976-3.533h.227l-4.984,3.639.065-.243,2.593,5.583.049.105-.065.089-2.966,4.481-.065.1h-.114l-5.4-.284.211-.162q-.7,3.282-1.4,6.653l-.13-.243,5.13,1.977.122.049v.13q.219,2.771.438,5.592v.13l-.122.073-5.2,2.982-.114.073.089-.267,2.536,5.762-.219-.122,5.5-.851h.114l.081.081c1.256,1.451,2.5,2.893,3.647,4.214l.081.1v.113c-.665,1.807-1.313,3.6-1.912,5.243l-.073-.235,5.04,3.566h-.267l3.938-4.254.081-.089h.122l5.462,1.483h.105v.105c.583,1.961,1.167,3.89,1.694,5.673l-.195-.138,6.07-.405-.17.162c.276-1.767.543-3.5.81-5.065v-.089l.073-.04,5.211-2.982.1-.057.1.073,4.254,3.4h-.2l5.389-4v.2c-.956-1.621-1.88-3.241-2.715-4.749l-.041-.073.041-.073,2.658-4.749.049-.073h.081l5.462.413-.13.089c.608-2.237,1.183-4.319,1.694-6.183l.049.122-4.676-2.553h0v-.049l-.6-5.673v-.041h0l3.4-2.253.875-.575Z" transform="translate(-130.268 -167.13)" fill="#e0e0e0"/>
    </g>
    <g id="freepik--Floor--inject-5" transform="translate(54.164 337.685)">
      <path id="Path_1399" data-name="Path 1399" d="M574.737,401.621c0,.122-115.436.211-257.8.211s-257.826-.089-257.826-.211,115.412-.211,257.826-.211S574.737,401.507,574.737,401.621Z" transform="translate(-59.11 -401.41)" fill="#263238"/>
    </g>
    <g id="freepik--character-2--inject-5" transform="translate(282.195 126.91)">
      <path id="Path_1400" data-name="Path 1400" d="M628.779,263.211l-44.57,111.482H459L498.789,261.68a2.05,2.05,0,0,1,1.929-1.37l126.158.081a2.05,2.05,0,0,1,1.9,2.82Z" transform="translate(-362.974 -163.877)" fill="#263238"/>
      <path id="Path_1401" data-name="Path 1401" d="M623.218,267.494,582.3,367.371a1.167,1.167,0,0,1-1.086.721H467.207a1.143,1.143,0,0,1-1.1-1.523l36.28-99.877a1.159,1.159,0,0,1,1.094-.762H622.165a1.143,1.143,0,0,1,1.054,1.564Z" transform="translate(-364.309 -164.943)" fill="#455a64"/>
      <path id="Path_1402" data-name="Path 1402" d="M573.675,399.844H403.58V392H569.056Z" transform="translate(-352.464 -188.85)" fill="#263238"/>
      <path id="Path_1403" data-name="Path 1403" d="M432.566,269.23s-3.428,40.745-10.81,42.731c-20.1,5.4-43.087,1.4-51.158-.186-.908-.81-1.953-1.718-3.136-2.885a12.576,12.576,0,0,1-2.431-3.485,19.564,19.564,0,0,1-1.839-5.016c-.195-1.621-2.229-2.188-2.95-.883s-1.021,6.288,1.686,10.826a2.139,2.139,0,0,1-1.475,2.9c-3.412,1.264-15.437,5-17.382,5.916-1.726.81-3.4,2.285-1.58,2.585s11.75-1.135,11.75-1.135-13.055,1.621-12.731,3.5c.219,1.3,3.736,1.929,12.261,0,0,0-10.745,1.4-11.864,2.528-2.536,2.545,10.405.981,10.405.981-9.06,1.175-8.963.705-9.06,1.945-.073.932,1.977,1.3,6.953,1.361,4.052.049,8.2.908,14.343,1.321h0s77.673,21.969,88.33-12.212c5.762-18.428,5.794-25.437,7.788-37.512" transform="translate(-340.503 -165.568)" fill="#ffbe9d"/>
      <path id="Path_1404" data-name="Path 1404" d="M357.641,340.532c0,.227-2.731.705-6.175,1.062s-6.248.47-6.256.235,2.747-.705,6.175-1.062S357.609,340.305,357.641,340.532Z" transform="translate(-341.395 -179.067)" fill="#a36957"/>
      <path id="Path_1405" data-name="Path 1405" d="M357.376,336.192c0,.227-2.885.9-6.483,1.5s-6.613.908-6.653.689,2.877-.9,6.483-1.507S357.335,335.965,357.376,336.192Z" transform="translate(-341.211 -178.253)" fill="#a36957"/>
      <path id="Path_1406" data-name="Path 1406" d="M357.4,331.673c.04.227-2.707.908-6.134,1.523s-6.248.932-6.288.713,2.707-.916,6.135-1.532S357.362,331.446,357.4,331.673Z" transform="translate(-341.352 -177.396)" fill="#a36957"/>
      <path id="Path_1407" data-name="Path 1407" d="M561.251,355.05l5.049,29.408H487.54l3.015-22.852Z" transform="translate(-368.386 -181.843)" fill="#263238"/>
      <path id="Path_1408" data-name="Path 1408" d="M461.485,230.41s-11.45,34.384-10.713,35.753l25.194,5.843Z" transform="translate(-361.407 -158.207)" fill="#ff725e"/>
      <path id="Path_1409" data-name="Path 1409" d="M461.485,230.41s-11.45,34.384-10.713,35.753l25.194,5.843Z" transform="translate(-361.407 -158.207)" fill="#0f4c81" opacity="0.73"/>
      <path id="Path_1410" data-name="Path 1410" d="M485.547,292.3l-2.431,49.213L559.2,332.9l-11.9-47.568s-8.185-55.153-23.1-61.264a141.7,141.7,0,0,0-15.826-5.1,72.933,72.933,0,0,0-29.254-2.172l-1.532.2A16.329,16.329,0,0,0,464,227.715s-.267,16.937,4.935,28.152Z" transform="translate(-363.922 -155.512)" fill="#0f4c81"/>
      <path id="Path_1411" data-name="Path 1411" d="M512.719,386.018c-.113,0-.284-4-.373-8.914s-.073-8.914,0-8.914.292,4,.381,8.914S512.864,386.018,512.719,386.018Z" transform="translate(-373.079 -184.335)" fill="#455a64"/>
      <path id="Path_1412" data-name="Path 1412" d="M517.687,370.818a.65.65,0,0,1,.332-.219,1.5,1.5,0,0,1,1.9,1.491,1.766,1.766,0,0,1-1.175,1.621,1.9,1.9,0,0,1-1.912-.535,1.839,1.839,0,0,1-.462-1.54c.17-.94.746-1.256.754-1.207a3.241,3.241,0,0,0-.454,1.24,1.548,1.548,0,0,0,1.945,1.621,1.427,1.427,0,0,0,.924-1.207,1.183,1.183,0,0,0-.592-1.1A1.718,1.718,0,0,0,517.687,370.818Z" transform="translate(-373.85 -184.759)" fill="#455a64"/>
      <path id="Path_1413" data-name="Path 1413" d="M572.757,374.5a1.62,1.62,0,0,1-.308.235,9.8,9.8,0,0,1-.916.608,18.963,18.963,0,0,1-3.679,1.71,20.681,20.681,0,0,1-23.784-7.674,18.889,18.889,0,0,1-1.977-3.525c-.2-.438-.308-.81-.4-1.029a.823.823,0,0,1-.1-.373c.016-.008.235.478.64,1.329a21.928,21.928,0,0,0,6.191,7.666,20.259,20.259,0,0,0,13.509,4.36,21.557,21.557,0,0,0,5.827-1.037,21.314,21.314,0,0,0,3.679-1.572A11.961,11.961,0,0,1,572.757,374.5Z" transform="translate(-378.637 -183.626)" fill="#455a64"/>
      <path id="Path_1414" data-name="Path 1414" d="M497.4,257.395a7.125,7.125,0,0,1-.908.883,24.572,24.572,0,0,1-2.715,2.131A10.947,10.947,0,0,1,489,262.3a12.406,12.406,0,0,1-6.159-1.24c-2.05-.9-3.89-1.945-5.673-2.593a10.219,10.219,0,0,0-4.927-.7,6.555,6.555,0,0,0-3.12,1.207c-.632.486-.9.859-.932.81a1,1,0,0,1,.178-.276,4.378,4.378,0,0,1,.656-.681,6.354,6.354,0,0,1,3.177-1.37,10.276,10.276,0,0,1,5.1.624c1.84.64,3.7,1.686,5.713,2.569a12.156,12.156,0,0,0,5.956,1.24,10.794,10.794,0,0,0,4.66-1.75,31.6,31.6,0,0,0,2.771-2.01A8.108,8.108,0,0,1,497.4,257.395Z" transform="translate(-364.717 -163.32)" fill="#fafafa"/>
      <path id="Path_1415" data-name="Path 1415" d="M476.722,233.649a5.282,5.282,0,0,1-1.459,1.288,12.39,12.39,0,0,1-9.019,1.969,5.2,5.2,0,0,1-1.864-.567c0-.065.737.138,1.9.276a14,14,0,0,0,8.817-1.929C476.114,234.078,476.673,233.592,476.722,233.649Z" transform="translate(-363.994 -158.82)" fill="#fafafa"/>
      <path id="Path_1416" data-name="Path 1416" d="M549.168,290.74a4.762,4.762,0,0,1-.527.446,8.912,8.912,0,0,1-1.742.972,14.334,14.334,0,0,1-7.237.656,45.644,45.644,0,0,1-4.943-1.021,39.3,39.3,0,0,0-5.673-1.094,20.057,20.057,0,0,0-6.272.454,40.006,40.006,0,0,0-6.483,2.156c-4.319,1.791-8.4,3.744-12.439,4.579a23.5,23.5,0,0,1-10.786-.275,55.659,55.659,0,0,1-6.945-2.229l-1.848-.737a4.417,4.417,0,0,1-.624-.284,4.189,4.189,0,0,1,.656.2l1.872.664a62.06,62.06,0,0,0,6.953,2.091,23.6,23.6,0,0,0,10.64.186c3.971-.81,8.023-2.788,12.358-4.595a39.777,39.777,0,0,1,6.531-2.164,20.349,20.349,0,0,1,6.4-.438,39.006,39.006,0,0,1,5.673,1.143,48.738,48.738,0,0,0,4.862,1.07,14.514,14.514,0,0,0,7.139-.519A11.566,11.566,0,0,0,549.168,290.74Z" transform="translate(-367.648 -169.55)" fill="#fafafa"/>
      <path id="Path_1417" data-name="Path 1417" d="M490.09,326.709s0-.057.105-.154l.348-.446a8.743,8.743,0,0,1,1.621-1.41,10.978,10.978,0,0,1,3.087-1.442,14.585,14.585,0,0,1,4.481-.551c3.387.049,7.2,1.451,11.207,3.242a62.906,62.906,0,0,0,6.394,2.528,19.294,19.294,0,0,0,7.212,1.013,17.154,17.154,0,0,0,6.888-2.285c2.1-1.135,4.011-2.431,5.948-3.493a20.1,20.1,0,0,1,5.851-2.285,15.13,15.13,0,0,1,12.528,3.444,11.111,11.111,0,0,1,1.953,2.139.585.585,0,0,1-.138-.138c-.105-.105-.227-.243-.373-.405a6.532,6.532,0,0,0-.632-.648,9.7,9.7,0,0,0-.916-.81,15.4,15.4,0,0,0-7.01-3.242,15.027,15.027,0,0,0-5.348,0,19.619,19.619,0,0,0-5.721,2.277c-1.921,1.062-3.825,2.366-5.94,3.517a17.447,17.447,0,0,1-7.058,2.342,19.805,19.805,0,0,1-7.366-1.037,63.573,63.573,0,0,1-6.426-2.569c-3.987-1.8-7.747-3.2-11.07-3.3a14.734,14.734,0,0,0-4.4.486,10.9,10.9,0,0,0-3.055,1.353A11.143,11.143,0,0,0,490.09,326.709Z" transform="translate(-368.87 -175.423)" fill="#fafafa"/>
      <path id="Path_1418" data-name="Path 1418" d="M558.483,358.164a13.713,13.713,0,0,0-1.434-2.618,12.966,12.966,0,0,0-6.6-4.522,15.754,15.754,0,0,0-5.527-.737,24.583,24.583,0,0,0-6.329,1.143,50.989,50.989,0,0,0-6.645,2.642c-2.253,1.045-4.554,2.22-6.985,3.282a37.944,37.944,0,0,1-7.293,2.472,27.726,27.726,0,0,1-7.2.47,41.92,41.92,0,0,1-11.872-2.763c-3.241-1.224-5.786-2.431-7.544-3.241l-2-.972-.519-.267-.17-.105a.623.623,0,0,1,.194.065l.527.227,2.042.908c1.767.81,4.327,1.921,7.577,3.112a42.538,42.538,0,0,0,11.775,2.65,27.193,27.193,0,0,0,7.083-.486,37.719,37.719,0,0,0,7.293-2.431c2.431-1.053,4.716-2.22,6.985-3.241a50.759,50.759,0,0,1,6.7-2.642,24.519,24.519,0,0,1,6.426-1.118,16.086,16.086,0,0,1,5.673.81,12.966,12.966,0,0,1,6.637,4.708,10,10,0,0,1,1.062,1.969c.073.227.138.405.186.551A.812.812,0,0,1,558.483,358.164Z" transform="translate(-368.544 -180.881)" fill="#fafafa"/>
      <g id="Group_530" data-name="Group 530" transform="translate(125.987 116.895)" opacity="0.2">
        <path id="Path_1419" data-name="Path 1419" d="M501.935,353.039A35.385,35.385,0,0,0,523.3,345.17c8.1-6.823,12.082-17.536,12.966-28.087s-1-21.069-2.869-31.523a142.818,142.818,0,0,0-17.48,32.82c-2.869,7.65-5.389,16-11.742,21.134-2.269,1.831-4.976,3.2-6.75,5.51s-2.156,6.118.2,7.836l2.091.681" transform="translate(-495.972 -285.56)"/>
      </g>
      <path id="Path_1420" data-name="Path 1420" d="M432.784,348.529a18.282,18.282,0,0,0,4.862,1.564,12.033,12.033,0,0,0,4.052.178c.632-.081,1.224-.17,1.791-.259a14.173,14.173,0,0,0,7.042-3.3c8.776-7.626,32.536-31.726,36.774-37.18,5.105-6.556,6.54-49.894,6.54-49.894l28.509,4.668s-.511,31.231-7.52,55.534c-4.465,15.454-58.346,47.244-58.411,47.277a148.17,148.17,0,0,1-11.248,11.426c-5.745,4.814-6.183,4.311-6.629,3.541-1.2-2.05,9.781-8.849,6.572-8.76s-12.463,9.878-13.63,7.682c-1.523-2.869,10.113-9.773,11.053-10.429s0-2.042-.81-1.4c-1.175.916-13.776,10.259-15.283,7.463-.81-1.556,2.083-2.812,2.083-2.812s12.423-7.869,11.661-9.165-8.217,3.055-10.632,4.708-4.117,1.167-3.971-.486c.105-1.126,7.358-6.369,9.781-7.95s9.125-5.794,4.125-6.4-8.606-2.974-9.141-4.287S431.447,347.7,432.784,348.529Z" transform="translate(-356.636 -163.75)" fill="#ffbe9d"/>
      <path id="Path_1421" data-name="Path 1421" d="M519.387,224.712a16.329,16.329,0,0,1,14.984,4.611c3.323,3.46,6.661,9.254,6.378,18.436-.559,17.917-1.969,24.027-1.969,24.027l-35.129-1.216,1.378-30.105S507.742,227.168,519.387,224.712Z" transform="translate(-371.441 -157.063)" fill="#ff725e"/>
      <path id="Path_1422" data-name="Path 1422" d="M519.387,224.712a16.329,16.329,0,0,1,14.984,4.611c3.323,3.46,6.71,9.724,6.426,18.89-.551,17.917-2.018,23.574-2.018,23.574l-35.129-1.216,1.426-29.643S507.742,227.168,519.387,224.712Z" transform="translate(-371.441 -157.063)" fill="#0f4c81" opacity="0.74"/>
      <path id="Path_1423" data-name="Path 1423" d="M540.22,269.224c0,.04-.405-.357-1.183-.908a11.572,11.572,0,0,0-3.687-1.621,14.23,14.23,0,0,0-5.956-.2,33.223,33.223,0,0,0-6.945,2.472,41.751,41.751,0,0,1-6.993,2.634,16.743,16.743,0,0,1-6.094.292,10.86,10.86,0,0,1-3.906-1.3,6.772,6.772,0,0,1-.924-.64,1.538,1.538,0,0,1-.292-.259c0-.04.438.308,1.288.754A11.9,11.9,0,0,0,509.4,271.6a16.969,16.969,0,0,0,5.964-.381,43.017,43.017,0,0,0,6.912-2.642,33.064,33.064,0,0,1,7.05-2.472,14.191,14.191,0,0,1,6.094.308,10.9,10.9,0,0,1,3.7,1.791,6.6,6.6,0,0,1,.81.754A1.854,1.854,0,0,1,540.22,269.224Z" transform="translate(-371.553 -164.939)" fill="#fafafa"/>
      <path id="Path_1424" data-name="Path 1424" d="M539.616,238.364a7.717,7.717,0,0,1-1.159.494,13.51,13.51,0,0,1-1.394.478c-.583.17-1.175.365-1.88.519a38.775,38.775,0,0,1-5.008.883,49.433,49.433,0,0,1-6.232.227,44.108,44.108,0,0,1-6.191-.681,32.718,32.718,0,0,1-4.911-1.329,16.221,16.221,0,0,1-1.815-.729,11.393,11.393,0,0,1-1.329-.648,6.165,6.165,0,0,1-1.078-.648,7.845,7.845,0,0,1,1.151.5,12.833,12.833,0,0,0,1.345.575,17.7,17.7,0,0,0,1.823.664A35.927,35.927,0,0,0,517.8,239.9a47.572,47.572,0,0,0,6.135.64,52.054,52.054,0,0,0,6.175-.195,43.007,43.007,0,0,0,4.976-.81c.713-.138,1.337-.3,1.888-.454s1.029-.276,1.41-.405A6.679,6.679,0,0,1,539.616,238.364Z" transform="translate(-372.384 -159.443)" fill="#fafafa"/>
      <path id="Path_1425" data-name="Path 1425" d="M489.573,169.973a2.431,2.431,0,0,0,3.768,2.277c1.442-1.037,1.3-3.241.721-4.862s-1.451-3.42-.981-5.13c.365-1.3,1.442-2.269,2.228-3.371a7.674,7.674,0,0,0,1.094-6.742,6.483,6.483,0,0,0-5.154-4.311c-2.391-.275-5.113.867-7.075-.527-1.426-1-1.815-2.966-3-4.254-1.831-1.993-5.032-1.856-7.634-1.078s-5.162,2.058-7.869,1.815c-2.253-.194-4.279-1.434-6.483-2.05a11.872,11.872,0,0,0-12.731,18.468,7.561,7.561,0,0,0,4.206,3.031" transform="translate(-360.16 -141.31)" fill="#263238"/>
      <path id="Path_1426" data-name="Path 1426" d="M487.311,223.182h0a13.484,13.484,0,0,1-15.689-10.794c-.81-4.173-1.426-7.7-1.426-7.7s-10.851.162-12.788-10.389-4.1-33.727-4.1-33.727l-.138-1.4c11.345-7.35,25.932-6.823,37.893-.494l.357,2.18,6.864,47.552A13.484,13.484,0,0,1,487.311,223.182Z" transform="translate(-361.868 -143.678)" fill="#ffbe9d"/>
      <path id="Path_1427" data-name="Path 1427" d="M479.093,193.88l-6.783,3.29a4.052,4.052,0,0,0,5.016.81C480.292,196.262,479.093,193.88,479.093,193.88Z" transform="translate(-365.498 -151.279)" fill="#fff"/>
      <path id="Path_1428" data-name="Path 1428" d="M474.12,214.954a25.008,25.008,0,0,0,13.12-6.264s-1.961,8.16-12.674,9Z" transform="translate(-365.841 -154.088)" fill="#eb996e"/>
      <path id="Path_1429" data-name="Path 1429" d="M500.755,171.238c.219-.113,7.779-1.929,8.031,7.2s-9.052,6.361-9.076,6.1S500.755,171.238,500.755,171.238Z" transform="translate(-370.694 -146.944)" fill="#ffbe9d"/>
      <path id="Path_1430" data-name="Path 1430" d="M503.088,181.951c.041,0,.162.105.438.227a1.621,1.621,0,0,0,1.191,0c.948-.381,1.718-1.937,1.718-3.582a5.338,5.338,0,0,0-.5-2.269,1.847,1.847,0,0,0-1.232-1.183.81.81,0,0,0-.924.462c-.122.259-.057.438-.105.454s-.2-.146-.138-.527a1.053,1.053,0,0,1,.348-.583,1.191,1.191,0,0,1,.867-.251,2.22,2.22,0,0,1,1.7,1.37,5.43,5.43,0,0,1,.624,2.528c0,1.84-.908,3.59-2.212,4a1.677,1.677,0,0,1-1.459-.2C503.112,182.17,503.056,181.967,503.088,181.951Z" transform="translate(-371.333 -147.641)" fill="#eb996e"/>
      <path id="Path_1431" data-name="Path 1431" d="M450.792,164.676s6.831,2.22,14.587-3.079c5.1-3.485,11.3-5.673,12.852-4.781s2.626,6.483,8.274,7.407c0,0,1.094,10.81,5.332,9.838s-.721-17.261-.721-17.261l-10.786-5.737-11.75-.592-12.439,3.136-6.58,5.332Z" transform="translate(-361.184 -143.047)" fill="#263238"/>
      <path id="Path_1432" data-name="Path 1432" d="M499.3,146.99a7.35,7.35,0,0,0-4.173,2.35A3.914,3.914,0,0,1,499.3,146.99Z" transform="translate(-369.825 -142.38)" fill="#263238"/>
      <path id="Path_1433" data-name="Path 1433" d="M494.08,142.57a7.017,7.017,0,0,1,.729,3.339,6.749,6.749,0,0,1-.405,2.431,2.115,2.115,0,0,1-.494.883,17.31,17.31,0,0,0,.478-3.29C494.356,144.085,493.983,142.6,494.08,142.57Z" transform="translate(-369.594 -141.549)" fill="#263238"/>
      <path id="Path_1434" data-name="Path 1434" d="M457.34,180.774a1.564,1.564,0,0,0,1.621,1.491,1.491,1.491,0,0,0,1.524-1.483,1.548,1.548,0,0,0-1.572-1.483,1.483,1.483,0,0,0-1.572,1.475Z" transform="translate(-362.659 -148.514)" fill="#263238"/>
      <path id="Path_1435" data-name="Path 1435" d="M457.284,179.233c.2.194,1.329-.737,3-.81s2.934.7,3.1.478c.081-.089-.13-.446-.681-.81a4.278,4.278,0,0,0-2.5-.632,4.052,4.052,0,0,0-2.374.9C457.34,178.771,457.186,179.144,457.284,179.233Z" transform="translate(-362.643 -148.164)" fill="#263238"/>
      <path id="Path_1436" data-name="Path 1436" d="M477.6,179.7a1.548,1.548,0,0,0,1.621,1.41,1.483,1.483,0,0,0,1.459-1.548,1.548,1.548,0,0,0-1.621-1.41A1.475,1.475,0,0,0,477.6,179.7Z" transform="translate(-366.501 -148.296)" fill="#263238"/>
      <path id="Path_1437" data-name="Path 1437" d="M477,178.108c.211.178,1.3-.81,2.958-.956s2.966.551,3.128.332-.154-.446-.721-.81a4.279,4.279,0,0,0-2.528-.519,4.141,4.141,0,0,0-2.326,1.013C477.06,177.646,476.914,178.027,477,178.108Z" transform="translate(-366.382 -147.914)" fill="#263238"/>
      <path id="Path_1438" data-name="Path 1438" d="M470.049,191.242a10.981,10.981,0,0,0-2.747-.219c-.43,0-.81-.049-.94-.332a2.213,2.213,0,0,1,.162-1.288c.3-1.062.616-2.18.94-3.355,1.3-4.765,2.188-8.671,1.993-8.728s-1.394,3.793-2.707,8.549c-.308,1.175-.608,2.293-.883,3.371a2.431,2.431,0,0,0-.057,1.686,1.094,1.094,0,0,0,.754.551,2.884,2.884,0,0,0,.729,0,10.616,10.616,0,0,0,2.755-.235Z" transform="translate(-364.242 -148.139)" fill="#263238"/>
      <path id="Path_1439" data-name="Path 1439" d="M475.757,172.07c.211.438,1.848.065,3.817.105s3.606.43,3.825,0c.1-.2-.219-.6-.9-.972a6.629,6.629,0,0,0-5.818-.081C475.992,171.479,475.667,171.867,475.757,172.07Z" transform="translate(-366.149 -146.844)" fill="#263238"/>
      <path id="Path_1440" data-name="Path 1440" d="M456.988,173.667c.332.348,1.434-.154,2.812-.308s2.569,0,2.8-.413c.1-.2-.122-.567-.665-.875a4.125,4.125,0,0,0-4.522.583C456.988,173.092,456.85,173.5,456.988,173.667Z" transform="translate(-362.583 -147.063)" fill="#263238"/>
    </g>
    <g id="freepik--character-1--inject-5" transform="translate(82.538 136.01)">
      <path id="Path_1441" data-name="Path 1441" d="M94.258,267.036l43.427,108.589H259.581L220.853,265.577a1.985,1.985,0,0,0-1.88-1.337l-122.867.081a1.994,1.994,0,0,0-1.848,2.715Z" transform="translate(-94.123 -173.723)" fill="#263238"/>
      <path id="Path_1442" data-name="Path 1442" d="M102.521,270.993,142.4,368.237a1.135,1.135,0,0,0,1.053.7h111.02a1.118,1.118,0,0,0,1.07-1.483l-35.332-97.244a1.143,1.143,0,0,0-1.07-.737H103.575a1.11,1.11,0,0,0-1.053,1.523Z" transform="translate(-95.701 -174.715)" fill="#455a64"/>
      <path id="Path_1443" data-name="Path 1443" d="M147.88,399.892H313.535V392.25H152.386Z" transform="translate(-104.318 -197.998)" fill="#263238"/>
      <path id="Path_1444" data-name="Path 1444" d="M363.186,262.987a8.8,8.8,0,0,0,.989-8.493c-2.05-4.546-7.569-9.724-7.569-9.724-1.621-.413.519-9.57,1.451-12.609s-.113-4.684-1.775-4.052c-1.126.454-4.2,9.668-5.049,12.682a33.616,33.616,0,0,1-2.383,6.661c-.875,1.467-1.88,1.929-2.893-.373-2.228-5.073-5.81-8.152-7.293-8.322s-2.261,1.937-.989,3.087a20.48,20.48,0,0,1,3.152,4.6,13.4,13.4,0,0,1,1.491,4.222c.219,1.28.373,2.431.494,3.452a32.821,32.821,0,0,1-.065,7.658L312.133,297.84l-6.661-24.416-.616-1.88-26.272,9.773c-.81.2,5.673,19.327,9.724,31.207a21.548,21.548,0,0,0,12.228,12.966h0A21.564,21.564,0,0,0,326.16,318.2l32.682-47.447-.705-.478.664.3Z" transform="translate(-129.09 -166.846)" fill="#b78876"/>
      <path id="Path_1445" data-name="Path 1445" d="M376.466,251.064a3.848,3.848,0,0,1-.259.891l-.867,2.374-1.321,3.533a7.052,7.052,0,0,1-1,2.034,1.88,1.88,0,0,1-1.126.64,1.386,1.386,0,0,1-1.256-.5,2.075,2.075,0,0,1-.47-1.232,4.546,4.546,0,0,1,.138-1.216c.186-.754.381-1.467.575-2.147.4-1.361.81-2.561,1.191-3.558s.721-1.8.972-2.342a3.475,3.475,0,0,1,.438-.81,4.653,4.653,0,0,1-.284.883c-.2.559-.5,1.37-.81,2.374s-.729,2.212-1.1,3.566c-.186.681-.373,1.394-.543,2.131a2.309,2.309,0,0,0,.251,2.083.973.973,0,0,0,.875.365,1.516,1.516,0,0,0,.875-.494,6.9,6.9,0,0,0,.94-1.913l1.41-3.468.989-2.326A4.633,4.633,0,0,1,376.466,251.064Z" transform="translate(-146.471 -170.782)" fill="#aa6550"/>
      <path id="Path_1446" data-name="Path 1446" d="M380.285,255.427a2.892,2.892,0,0,1-.227.81c-.17.494-.438,1.2-.81,2.075s-.729,1.912-1.2,3.063A3.37,3.37,0,0,1,376.833,263a1.848,1.848,0,0,1-1.086.324,1.621,1.621,0,0,1-1.078-.486,2.569,2.569,0,0,1-.664-2.091,10.633,10.633,0,0,1,.4-1.937,24.578,24.578,0,0,1,1.086-3.12c.365-.859.705-1.54.948-2.01a3.081,3.081,0,0,1,.421-.7c.065,0-.429,1.078-1.094,2.82a29.774,29.774,0,0,0-.989,3.112,11.492,11.492,0,0,0-.357,1.864,2.188,2.188,0,0,0,.543,1.758,1.272,1.272,0,0,0,1.621.113,3.055,3.055,0,0,0,1.078-1.426l1.28-3.023c.365-.859.673-1.548.891-2.026A3.12,3.12,0,0,1,380.285,255.427Z" transform="translate(-147.194 -171.588)" fill="#aa6550"/>
      <path id="Path_1447" data-name="Path 1447" d="M382.812,259.921a12.487,12.487,0,0,1-.616,2.31c-.219.713-.462,1.54-.81,2.472a2.163,2.163,0,0,1-1.029,1.28,1.2,1.2,0,0,1-.948,0,1.531,1.531,0,0,1-.729-.608,2.844,2.844,0,0,1-.324-1.71,9.936,9.936,0,0,1,1.062-4.052,8.823,8.823,0,0,1,.948-1.483c.259-.324.43-.486.454-.47a18.489,18.489,0,0,0-1.135,2.083,11.271,11.271,0,0,0-.754,2.431,10.649,10.649,0,0,0-.162,1.483,2.618,2.618,0,0,0,.267,1.467.908.908,0,0,0,1.151.421,1.783,1.783,0,0,0,.81-1.037c.308-.883.6-1.694.867-2.431A13.865,13.865,0,0,1,382.812,259.921Z" transform="translate(-148.02 -172.475)" fill="#aa6550"/>
      <path id="Path_1448" data-name="Path 1448" d="M369.875,267.877c-.073,0,0-.64-.081-1.621a10.2,10.2,0,0,0-3.444-6.84c-.762-.664-1.313-.98-1.28-1.037a3.848,3.848,0,0,1,1.467.81,9.157,9.157,0,0,1,3.557,7.05A4,4,0,0,1,369.875,267.877Z" transform="translate(-145.504 -172.612)" fill="#aa6550"/>
      <path id="Path_1449" data-name="Path 1449" d="M161,381.737l79.237.405.989-13.979-61.815-27.5A47.932,47.932,0,0,0,169.1,363.212L161,381.737" transform="translate(-106.806 -188.215)" fill="#263238"/>
      <path id="Path_1450" data-name="Path 1450" d="M201.269,358.149a4.862,4.862,0,0,1-.713.81,10.02,10.02,0,0,1-.924.875,14.982,14.982,0,0,1-1.3,1.07,16.3,16.3,0,0,1-1.677,1.159,22.473,22.473,0,0,1-2.034,1.159,24.773,24.773,0,0,1-10.34,2.65,22.236,22.236,0,0,1-2.342,0,17.928,17.928,0,0,1-2.026-.211,14.012,14.012,0,0,1-1.621-.316,8.563,8.563,0,0,1-1.232-.324,4.405,4.405,0,0,1-1.013-.365c0-.089,1.483.405,3.938.713.608.065,1.28.146,2,.154s1.5,0,2.31,0a26.271,26.271,0,0,0,10.154-2.634c.721-.373,1.41-.713,2.026-1.1a20.1,20.1,0,0,0,1.677-1.11C200.158,359.219,201.2,358.085,201.269,358.149Z" transform="translate(-109.66 -191.531)" fill="#455a64"/>
      <path id="Path_1451" data-name="Path 1451" d="M233.76,385.648a22.286,22.286,0,0,1,.956-2.69c.673-1.75,1.515-3.979,2.431-6.434s1.815-4.668,2.5-6.418a19.121,19.121,0,0,1,1.135-2.626,18.388,18.388,0,0,1-.859,2.731c-.583,1.621-1.418,3.946-2.382,6.483s-1.88,4.773-2.577,6.394c-.348.81-.64,1.459-.859,1.9a2.809,2.809,0,0,1-.348.656Z" transform="translate(-120.603 -193.301)" fill="#455a64"/>
      <path id="Path_1452" data-name="Path 1452" d="M233.944,366.657a2.3,2.3,0,0,0-1.062,1.013,1.5,1.5,0,0,0,.073,1.451,1.54,1.54,0,0,0,2.844-.446,1.5,1.5,0,0,0-.373-1.4,2.431,2.431,0,0,0-1.313-.648.847.847,0,0,1,.429-.065,1.831,1.831,0,0,1,1.094.5,1.766,1.766,0,0,1,.535,1.71,1.9,1.9,0,0,1-3.549.551,1.759,1.759,0,0,1,0-1.791,1.832,1.832,0,0,1,.883-.81C233.773,366.616,233.935,366.632,233.944,366.657Z" transform="translate(-120.341 -193.126)" fill="#455a64"/>
      <path id="Path_1453" data-name="Path 1453" d="M297.512,245.39s11.588,34.084,10.932,35.478L285,287.294Z" transform="translate(-130.32 -170.148)" fill="#ff725e"/>
      <path id="Path_1454" data-name="Path 1454" d="M297.512,245.39s11.588,34.084,10.932,35.478L285,287.294Z" transform="translate(-130.32 -170.148)" fill="#0f4c81" opacity="0.65"/>
      <path id="Path_1455" data-name="Path 1455" d="M259.305,298.838l-7.4,31.385L247.1,347.784,183.69,319.567l20.129-32.415s11.021-45.081,26.572-53.411a36.289,36.289,0,0,1,22.342-3.955l13.509,1.872c.3.041.592.089.883.146a14.878,14.878,0,0,1,11.718,15.478c-.292,5.867-1.272,15.794-4.506,23.217C270,280.475,259.305,298.838,259.305,298.838Z" transform="translate(-111.108 -167.122)" fill="#0f4c81"/>
      <path id="Path_1456" data-name="Path 1456" d="M251.617,357.128l-.462-.211a11.812,11.812,0,0,1-1.313-.713,15.741,15.741,0,0,1-7.309-12.3,11.345,11.345,0,0,1,1.078-5.559,8.1,8.1,0,0,1,1.848-2.512,5.964,5.964,0,0,1,2.95-1.451A6.929,6.929,0,0,1,256,340.6a7.7,7.7,0,0,1-.7,3.833,9.352,9.352,0,0,1-6.11,5.146,12.771,12.771,0,0,1-8.509-.81,19.733,19.733,0,0,1-7.034-5.673,30.108,30.108,0,0,1-2.674-3.849,16.3,16.3,0,0,1-1.831-4.433,10.583,10.583,0,0,1-.057-4.862,7.869,7.869,0,0,1,2.536-4.271,6.483,6.483,0,0,1,4.862-1.41,5.251,5.251,0,0,1,2.431.916,5.138,5.138,0,0,1,1.621,2.026,6.888,6.888,0,0,1,.089,5.1,9.117,9.117,0,0,1-3.1,3.971,19.627,19.627,0,0,1-18.476,2.1,16.507,16.507,0,0,1-6.993-5.673,14.757,14.757,0,0,1-2.747-8.1,11.158,11.158,0,0,1,.664-4.109,7.577,7.577,0,0,1,2.326-3.29,6.4,6.4,0,0,1,3.647-1.353,4.862,4.862,0,0,1,3.541,1.224,5.154,5.154,0,0,1,1.556,3.241,6.84,6.84,0,0,1-.5,3.412,8.226,8.226,0,0,1-4.676,4.206,15.8,15.8,0,0,1-5.575,1.021,21.3,21.3,0,0,1-8.849-1.8,20.584,20.584,0,0,1-4.862-3c-.511-.421-.875-.762-1.11-1s-.357-.365-.357-.365.138.105.389.332.616.559,1.126.964a21.4,21.4,0,0,0,13.671,4.627,15.471,15.471,0,0,0,5.478-1.037,9.775,9.775,0,0,0,2.609-1.548,6.589,6.589,0,0,0,1.888-2.52,6.483,6.483,0,0,0,.47-3.241,4.863,4.863,0,0,0-1.467-3.039,4.546,4.546,0,0,0-3.306-1.118,6.021,6.021,0,0,0-3.452,1.288,7.294,7.294,0,0,0-2.2,3.144,10.688,10.688,0,0,0-.624,3.971,14.408,14.408,0,0,0,2.69,7.909,16.061,16.061,0,0,0,6.839,5.543,19.165,19.165,0,0,0,18.055-2.058,8.7,8.7,0,0,0,2.966-3.784,6.434,6.434,0,0,0-.081-4.773,4.587,4.587,0,0,0-1.507-1.864,4.928,4.928,0,0,0-2.237-.81,6.1,6.1,0,0,0-4.5,1.321,7.479,7.479,0,0,0-2.431,4.052,10.194,10.194,0,0,0,.049,4.692,21.324,21.324,0,0,0,4.425,8.1,19.449,19.449,0,0,0,6.88,5.575,12.431,12.431,0,0,0,8.25.81,8.963,8.963,0,0,0,5.883-4.935,7.22,7.22,0,0,0,.681-3.655,6.6,6.6,0,0,0-7.2-5.956,5.673,5.673,0,0,0-2.812,1.37,8.006,8.006,0,0,0-1.8,2.431,11.207,11.207,0,0,0-1.078,5.421,15.4,15.4,0,0,0,3.015,8.347,15.706,15.706,0,0,0,4.109,3.906,14.143,14.143,0,0,0,1.28.737Z" transform="translate(-113.274 -183.508)" fill="#fafafa"/>
      <path id="Path_1457" data-name="Path 1457" d="M284.651,287.293s-.057-.057-.154-.178l-.43-.535a13.532,13.532,0,0,1-1.353-2.269,15.282,15.282,0,0,1-1.021-9.546,12.884,12.884,0,0,1,2.99-6,4.1,4.1,0,0,1,1.621-1.021,2.52,2.52,0,0,1,1.977.186,3.338,3.338,0,0,1,1.378,1.5,5.105,5.105,0,0,1,.43,2.026,12.755,12.755,0,0,1-2.877,7.958,12.535,12.535,0,0,1-3.428,2.982,9.246,9.246,0,0,1-4.489,1.329,6.572,6.572,0,0,1-4.376-1.621,8.727,8.727,0,0,1-2.561-3.76,12.722,12.722,0,0,1-.689-4.327,14.83,14.83,0,0,1,.519-4.165,5.777,5.777,0,0,1,.924-1.839,2.9,2.9,0,0,1,1.7-1.118,2.755,2.755,0,0,1,1.953.348,4.44,4.44,0,0,1,1.361,1.329,5.671,5.671,0,0,1,.737,1.621,6.991,6.991,0,0,1,.251,1.726,8.768,8.768,0,0,1-.535,3.2,11.5,11.5,0,0,1-3.112,4.579,21.315,21.315,0,0,1-3.363,2.48c-.989.592-1.775,1-2.31,1.28l-.608.308a.946.946,0,0,1-.219.1l.194-.13.592-.348c.519-.3,1.3-.737,2.261-1.345a21.559,21.559,0,0,0,3.29-2.52,11.345,11.345,0,0,0,2.99-4.5,8.624,8.624,0,0,0,.494-3.1,6.109,6.109,0,0,0-.259-1.621,5.154,5.154,0,0,0-.7-1.556,3.809,3.809,0,0,0-1.256-1.207,2.318,2.318,0,0,0-1.686-.3,3.605,3.605,0,0,0-2.342,2.707,15.09,15.09,0,0,0-.486,4.052,12.471,12.471,0,0,0,.681,4.19,8.314,8.314,0,0,0,2.431,3.574,6.159,6.159,0,0,0,4.109,1.515A8.914,8.914,0,0,0,283.565,282a12.22,12.22,0,0,0,3.323-2.877,12.447,12.447,0,0,0,2.8-7.69,4.661,4.661,0,0,0-.389-1.872,2.982,2.982,0,0,0-1.207-1.337,2.2,2.2,0,0,0-1.694-.17,3.817,3.817,0,0,0-1.459.932,12.739,12.739,0,0,0-2.982,5.843,14.942,14.942,0,0,0-.227,5.438,15.494,15.494,0,0,0,1.1,3.979,16.811,16.811,0,0,0,1.272,2.285l.4.559C284.618,287.228,284.659,287.285,284.651,287.293Z" transform="translate(-127.281 -174.216)" fill="#fafafa"/>
      <path id="Path_1458" data-name="Path 1458" d="M257.852,279.893s0,28.817,7.212,31.547c19.619,7.423,43.087,5.713,51.345,4.935.989-.689,2.131-1.532,3.428-2.585l2.731-2.277s12.966,2.472,12.771,3.152-5.057,2.253-10.065,1.126a2.164,2.164,0,0,0,1.2,3.063c3.3,1.621,14.984,6.556,16.839,7.674,1.621,1,3.177,2.634,1.329,2.747s-11.677-2.31-11.677-2.31,12.966,2.917,12.431,4.781c-.357,1.288-3.947,1.564-12.309-1.216,0,0,10.64,2.48,11.653,3.728,2.293,2.8-10.535-.065-10.535-.065,8.971,2.091,8.914,1.621,8.914,2.861,0,.94-2.115,1.11-7.107.673-4.052-.357-8.322.089-14.53-.113h0s-80.137,14.271-87.43-21.086c-3.938-19.068-3.241-26.1-4.052-38.419" transform="translate(-119.89 -176.353)" fill="#b78876"/>
      <path id="Path_1459" data-name="Path 1459" d="M351.88,345.915c-.057.219,2.674.972,6.094,1.686s6.216,1.086,6.256.859-2.69-.981-6.086-1.686S351.977,345.688,351.88,345.915Z" transform="translate(-143.003 -189.199)" fill="#aa6550"/>
      <path id="Path_1460" data-name="Path 1460" d="M352.42,341.56c-.057.227,2.8,1.191,6.386,2.164s6.548,1.572,6.6,1.345-2.8-1.191-6.386-2.156S352.485,341.341,352.42,341.56Z" transform="translate(-143.105 -188.377)" fill="#aa6550"/>
      <path id="Path_1461" data-name="Path 1461" d="M353,337.039c-.065.227,2.626,1.183,6,2.147s6.175,1.564,6.24,1.337-2.626-1.183-6-2.147S353.073,336.821,353,337.039Z" transform="translate(-143.215 -187.52)" fill="#aa6550"/>
      <path id="Path_1462" data-name="Path 1462" d="M241.97,245.507a14.87,14.87,0,0,0-13.46,6.264c-2.723,3.809-5.227,9.935-4,19.019,2.431,17.731,4.368,23.646,4.368,23.646l32.585-5.162-4.457-29.74S253.08,246.625,241.97,245.507Z" transform="translate(-118.789 -170.16)" fill="#ff725e"/>
      <path id="Path_1463" data-name="Path 1463" d="M241.97,245.507a14.87,14.87,0,0,0-13.46,6.264c-2.723,3.809-5.227,9.935-4,19.019,2.431,17.731,4.368,23.646,4.368,23.646l32.585-5.162-4.457-29.74S253.08,246.625,241.97,245.507Z" transform="translate(-118.789 -170.16)" fill="#0f4c81" opacity="0.78"/>
      <path id="Path_1464" data-name="Path 1464" d="M335.222,319.846a4.053,4.053,0,0,1-.7-.089c-.454-.073-1.135-.211-1.985-.332a2.334,2.334,0,0,0-1.264.5,12.909,12.909,0,0,0-1.337,1.045,36.258,36.258,0,0,0-2.925,2.958h0a29.321,29.321,0,0,1-7.763,1.183,88.179,88.179,0,0,1-9.271-.381c-7.472-.527-14.262-.94-19.141-1.621-2.431-.324-4.4-.664-5.745-.948-.681-.13-1.191-.267-1.548-.348a3.03,3.03,0,0,1-.535-.154,2.3,2.3,0,0,1,.551.073l1.556.267c1.353.235,3.323.527,5.762.81,4.862.6,11.645.972,19.133,1.5,3.241.251,6.361.478,9.23.405a29.74,29.74,0,0,0,7.674-1.1l-.073.049a33.4,33.4,0,0,1,3-2.933,10.855,10.855,0,0,1,1.394-1.037,2.431,2.431,0,0,1,1.4-.5c.875.162,1.523.324,1.977.421a3.478,3.478,0,0,1,.608.235Z" transform="translate(-129.943 -184.143)" fill="#aa6550"/>
      <path id="Path_1465" data-name="Path 1465" d="M259.663,275.965a1.06,1.06,0,0,1-.251.073l-.754.162-1.24.122a13.027,13.027,0,0,1-1.71-.073,12.708,12.708,0,0,1-6.88-3.006,11.451,11.451,0,0,1-2.2-2.431,10.129,10.129,0,0,1-1.515-3.29,5.988,5.988,0,0,1-.154-1.945,3.4,3.4,0,0,1,.762-1.912,2.731,2.731,0,0,1,1.945-.883,4.5,4.5,0,0,1,2.115.527,7.382,7.382,0,0,1,3.087,3.241,8.914,8.914,0,0,1,.924,4.595,8.225,8.225,0,0,1-1.71,4.57,10.308,10.308,0,0,1-9.165,3.865,12.35,12.35,0,0,1-8.574-5.275,9.416,9.416,0,0,1-1.807-4.538,5.575,5.575,0,0,1,.276-2.431,5.041,5.041,0,0,1,1.313-1.969,3.9,3.9,0,0,1,2.066-1.037,3.6,3.6,0,0,1,2.22.365,4.984,4.984,0,0,1,2.528,3.339,8.687,8.687,0,0,1,0,3.93,10.924,10.924,0,0,1-1.386,3.347,10.324,10.324,0,0,1-9.23,4.862,10.047,10.047,0,0,1-2.909-.527,5.879,5.879,0,0,1-.948-.4s.332.13.981.316a10.531,10.531,0,0,0,2.877.438,10.4,10.4,0,0,0,4.481-.9,10.178,10.178,0,0,0,4.489-3.971,10.4,10.4,0,0,0,1.329-3.241,8.485,8.485,0,0,0,0-3.776,4.611,4.611,0,0,0-2.35-3.087,3.242,3.242,0,0,0-2-.324,3.606,3.606,0,0,0-1.864.948,4.684,4.684,0,0,0-1.2,1.815,5.276,5.276,0,0,0-.251,2.228,9.271,9.271,0,0,0,1.742,4.344,11.961,11.961,0,0,0,8.258,5.13,9.887,9.887,0,0,0,8.792-3.7,8.314,8.314,0,0,0,.77-8.744,7.876,7.876,0,0,0-1.24-1.783,6.643,6.643,0,0,0-1.669-1.28,4.053,4.053,0,0,0-1.937-.494,2.31,2.31,0,0,0-1.686.754,3.015,3.015,0,0,0-.689,1.71,5.811,5.811,0,0,0,.13,1.84,9.967,9.967,0,0,0,1.442,3.193A11.6,11.6,0,0,0,249,273.1a12.545,12.545,0,0,0,2.366,1.621,12.878,12.878,0,0,0,4.368,1.41A12.724,12.724,0,0,0,259.663,275.965Z" transform="translate(-119.221 -173.446)" fill="#fafafa"/>
      <path id="Path_1466" data-name="Path 1466" d="M238.657,166.64a9.5,9.5,0,0,0-16.88-2.058c-1.232,1.864-1.759,4.052-2.536,6.2s-1.921,4.23-3.89,5.292c-2.3,1.248-5.332.81-7.423,2.431-2.334,1.742-2.431,5.591-.438,7.747a7.46,7.46,0,0,0,8.1,1.548,16.45,16.45,0,0,0-1.11,5.332,5.583,5.583,0,0,0,2.334,4.708,5.421,5.421,0,0,0,5.292-.1,12.8,12.8,0,0,0,4.011-3.768,13.394,13.394,0,0,0,1.337,3.687,4.562,4.562,0,0,0,3.055,2.269,4.433,4.433,0,0,0,4.109-2.018,10.033,10.033,0,0,0,1.483-4.546,32.747,32.747,0,0,0-.762-11.839c-.608-2.48-1.467-5.016-.989-7.52s2.942-4.862,5.381-4.1" transform="translate(-115.354 -154.015)" fill="#263238"/>
      <path id="Path_1467" data-name="Path 1467" d="M206.86,184.6a1.338,1.338,0,0,0,.413.194,9.985,9.985,0,0,0,1.256.365A12.415,12.415,0,0,0,219.672,182a12.8,12.8,0,0,0,2.545-3.412,17.334,17.334,0,0,0,1.426-4.319,24.157,24.157,0,0,1,1.183-4.254,7.164,7.164,0,0,1,2.431-3.12,7.877,7.877,0,0,1,6.483-1.256,9.578,9.578,0,0,1,4.052,2.2c.81.746,1.183,1.264,1.232,1.224s-.057-.154-.219-.405a7.835,7.835,0,0,0-.81-1,9.222,9.222,0,0,0-4.125-2.431,8.29,8.29,0,0,0-6.969,1.207,7.739,7.739,0,0,0-2.658,3.363,23.9,23.9,0,0,0-1.24,4.368,17.084,17.084,0,0,1-1.353,4.165,12.391,12.391,0,0,1-8.4,6.483,13.1,13.1,0,0,1-4.668.146A17.456,17.456,0,0,0,206.86,184.6Z" transform="translate(-115.502 -154.889)" fill="#455a64"/>
      <path id="Path_1468" data-name="Path 1468" d="M233.037,200.657a1.836,1.836,0,0,0,.324-.219,4.051,4.051,0,0,0,.81-.81,7.553,7.553,0,0,0,1.442-3.833,15.041,15.041,0,0,0-.689-6.021A53.388,53.388,0,0,1,233,182.739a10.292,10.292,0,0,1,1.329-6.856,9.967,9.967,0,0,1,4.23-3.906,10.964,10.964,0,0,1,3.809-1.062,13.441,13.441,0,0,0,1.475-.105,4.1,4.1,0,0,0-1.491-.154,10.081,10.081,0,0,0-3.987.9,10.2,10.2,0,0,0-4.562,4,10.794,10.794,0,0,0-1.459,7.293,46.939,46.939,0,0,0,2,7.115,15.2,15.2,0,0,1,.81,5.8,7.6,7.6,0,0,1-1.183,3.728C233.41,200.268,232.988,200.608,233.037,200.657Z" transform="translate(-120.31 -155.974)" fill="#455a64"/>
      <path id="Path_1469" data-name="Path 1469" d="M289.246,181.867c6.353-14.692-2.358-23.638-8.031-26.847-3.379-1.912-7.4-2.318-11.272-2.431a41.224,41.224,0,0,0-11.418,1.045,20.518,20.518,0,0,0-9.886,5.567c-4.643,4.976-5.673,12.342-5.267,19.133a53.315,53.315,0,0,0,6.767,22.852,5.672,5.672,0,0,0,1.985,2.318,2.091,2.091,0,0,0,2.747-.5" transform="translate(-122.411 -152.541)" fill="#263238"/>
      <path id="Path_1470" data-name="Path 1470" d="M280.215,220.887l-.235-7.731s9.036-1.5,10.908-13.29c.932-5.867.64-15.478.146-23.338a12.455,12.455,0,0,0-13.776-11.6l-20.445,2.164a4.141,4.141,0,0,0-3.711,4.206h0l2.715,50.607a12.156,12.156,0,0,0,12.155,11.54h0a12.155,12.155,0,0,0,12.245-12.553Z" transform="translate(-124.271 -154.875)" fill="#b78876"/>
      <path id="Path_1471" data-name="Path 1471" d="M296.683,187.16a1.523,1.523,0,0,1-1.459,1.532,1.459,1.459,0,0,1-1.564-1.37,1.515,1.515,0,0,1,1.459-1.523,1.451,1.451,0,0,1,1.564,1.361Z" transform="translate(-131.963 -158.847)" fill="#263238"/>
      <path id="Path_1472" data-name="Path 1472" d="M295.934,185.018c-.194.194-1.337-.656-2.966-.648s-2.82.81-2.99.616.1-.446.624-.81a4.149,4.149,0,0,1,2.431-.746,3.979,3.979,0,0,1,2.35.762C295.853,184.572,296.023,184.929,295.934,185.018Z" transform="translate(-131.255 -158.398)" fill="#263238"/>
      <path id="Path_1473" data-name="Path 1473" d="M276.563,187.68a1.523,1.523,0,0,1-1.459,1.532,1.459,1.459,0,0,1-1.564-1.369A1.515,1.515,0,0,1,275,186.319a1.459,1.459,0,0,1,1.564,1.361Z" transform="translate(-128.147 -158.946)" fill="#263238"/>
      <path id="Path_1474" data-name="Path 1474" d="M276.194,185.392c-.186.194-1.337-.648-2.958-.648s-2.82.81-3,.624.105-.446.624-.81a4.149,4.149,0,0,1,2.431-.737,4.052,4.052,0,0,1,2.358.762C276.113,184.946,276.283,185.3,276.194,185.392Z" transform="translate(-127.511 -158.472)" fill="#263238"/>
      <path id="Path_1475" data-name="Path 1475" d="M284.711,197.477a10.533,10.533,0,0,1,2.642-.478c.413-.041.81-.122.875-.405a2.1,2.1,0,0,0-.276-1.232l-1.232-3.169c-1.7-4.506-2.942-8.209-2.755-8.274s1.71,3.533,3.42,8.031c.405,1.118.81,2.172,1.175,3.185a2.431,2.431,0,0,1,.219,1.621,1.021,1.021,0,0,1-.689.608,2.617,2.617,0,0,1-.705.1A10.877,10.877,0,0,1,284.711,197.477Z" transform="translate(-130.121 -158.491)" fill="#263238"/>
      <path id="Path_1476" data-name="Path 1476" d="M282.576,223.424a29.984,29.984,0,0,1-15.786-4.214s3.833,8.1,15.632,6.993Z" transform="translate(-126.867 -165.184)" fill="#aa6550"/>
      <path id="Path_1477" data-name="Path 1477" d="M282.864,205.23a2.941,2.941,0,0,0-2.634-1.094,2.7,2.7,0,0,0-1.848,1,1.694,1.694,0,0,0-.13,1.937,1.985,1.985,0,0,0,2.139.543,6.2,6.2,0,0,0,2.075-1.248,1.758,1.758,0,0,0,.47-.478.551.551,0,0,0,0-.608" transform="translate(-128.995 -162.322)" fill="#aa6550"/>
      <path id="Path_1478" data-name="Path 1478" d="M278.937,202c.259,0,.267,1.75,1.775,3s3.4,1.062,3.412,1.313c0,.105-.421.34-1.216.365a4.409,4.409,0,0,1-2.844-1,3.785,3.785,0,0,1-1.378-2.512C278.6,202.462,278.8,202,278.937,202Z" transform="translate(-129.119 -161.92)" fill="#263238"/>
      <path id="Path_1479" data-name="Path 1479" d="M276.763,181.954c-.154.446-1.783.235-3.687.47s-3.46.746-3.711.348c-.113-.186.154-.608.81-1.029a6.2,6.2,0,0,1,2.747-.964,6.127,6.127,0,0,1,2.893.34C276.479,181.4,276.836,181.76,276.763,181.954Z" transform="translate(-127.35 -157.887)" fill="#263238"/>
      <path id="Path_1480" data-name="Path 1480" d="M295.3,179.182c-.292.373-1.41,0-2.755,0s-2.488.243-2.755-.146c-.113-.186.065-.551.567-.908a3.768,3.768,0,0,1,2.237-.6,3.817,3.817,0,0,1,2.2.737C295.27,178.623,295.424,179,295.3,179.182Z" transform="translate(-131.223 -157.279)" fill="#263238"/>
      <path id="Path_1481" data-name="Path 1481" d="M290.083,175.358c-2.058-10.049-4.862-6.07-8.031-10.867-4.587,4.643-15.146,9.992-21.588,11.045a4.222,4.222,0,0,0-1.888.608c-.989.737-1.07,2.164-1.07,3.4a43.939,43.939,0,0,1-.859,10.413,16.953,16.953,0,0,1-5.032,8.987c-3.89-8.193-4.279-17.723-2.536-26.629.713-3.639,1.912-7.447,4.814-9.724a16.651,16.651,0,0,1,7.358-2.8c6.442-1.183,13.258-1.467,19.392.81s10.9,5.13,11.718,11.629" transform="translate(-123.321 -153.747)" fill="#263238"/>
      <path id="Path_1482" data-name="Path 1482" d="M244.93,169.08a6.484,6.484,0,0,0,1.321.721,11.2,11.2,0,0,0,1.621.656l1.037.365,1.2.3a30.6,30.6,0,0,0,6.029.81,36.928,36.928,0,0,0,14.627-2.431c1.053-.47,2.075-.851,2.966-1.361l1.3-.7,1.151-.737a16.928,16.928,0,0,0,1.88-1.394l.746-.6.567-.575a7.292,7.292,0,0,0,1-1.118c-.105-.113-1.54,1.491-4.449,3.29l-1.143.689-1.3.648c-.883.486-1.9.81-2.933,1.28a40.943,40.943,0,0,1-7.083,1.88,42.373,42.373,0,0,1-7.293.527,33.418,33.418,0,0,1-5.948-.673A54.586,54.586,0,0,1,244.93,169.08Z" transform="translate(-122.722 -154.527)" fill="#455a64"/>
      <path id="Path_1483" data-name="Path 1483" d="M249.05,160.7a5.373,5.373,0,0,0,1.013.81,8.911,8.911,0,0,0,1.313.81l.851.462,1,.421a30.794,30.794,0,0,0,11.58,2.066,52.088,52.088,0,0,0,11.694-1.3c1.475-.332,2.65-.665,3.444-.932a4.951,4.951,0,0,0,1.224-.47c0-.105-1.823.389-4.757.94a61.966,61.966,0,0,1-11.6,1.1,33.363,33.363,0,0,1-11.41-1.84A47.245,47.245,0,0,1,249.05,160.7Z" transform="translate(-123.503 -154.088)" fill="#455a64"/>
      <path id="Path_1484" data-name="Path 1484" d="M292.8,157.519c0-.073-.405-.154-1.037,0a4.3,4.3,0,0,0-3.063,3.7c-.04.648.113,1.029.195,1.021a6.457,6.457,0,0,1,1.28-2.917C291.34,157.965,292.831,157.706,292.8,157.519Z" transform="translate(-131.02 -153.468)" fill="#455a64"/>
      <path id="Path_1485" data-name="Path 1485" d="M217.268,170.191a1.32,1.32,0,0,0-.348-.421,2.666,2.666,0,0,0-1.459-.64,3.687,3.687,0,0,0-2.431.559,3.128,3.128,0,0,0-1.434,2.982,4.344,4.344,0,0,0,2.261,3.347,4.481,4.481,0,0,0,4.587-.478,5.219,5.219,0,0,0,1.694-1.953,6.962,6.962,0,0,0,.624-2.593c.122-1.783-.186-3.582.138-5.332a9.927,9.927,0,0,1,6.3-7.293,9.1,9.1,0,0,1,7.893.972,10.219,10.219,0,0,1,3.728,4.1c.583,1.2.7,1.953.81,1.937a1.621,1.621,0,0,0-.065-.543,7.239,7.239,0,0,0-.478-1.5,10.033,10.033,0,0,0-3.711-4.384,10.162,10.162,0,0,0-3.728-1.515,9.1,9.1,0,0,0-4.619.357,10.446,10.446,0,0,0-6.75,7.731c-.34,1.912,0,3.728-.13,5.413a6.215,6.215,0,0,1-.551,2.35,4.562,4.562,0,0,1-1.467,1.734,3.955,3.955,0,0,1-3.987.494,3.865,3.865,0,0,1-2.042-2.909,2.739,2.739,0,0,1,1.167-2.626,3.46,3.46,0,0,1,2.229-.608A3.242,3.242,0,0,1,217.268,170.191Z" transform="translate(-116.397 -153.441)" fill="#263238"/>
      <path id="Path_1486" data-name="Path 1486" d="M256.81,176.848a4.135,4.135,0,0,0,1.224.1h3.355a36.077,36.077,0,0,0,10.907-1.88,18.865,18.865,0,0,0,8.914-6.523,12.446,12.446,0,0,0,1.58-2.982,4.052,4.052,0,0,0,.308-1.2,24.159,24.159,0,0,1-2.269,3.906,19.53,19.53,0,0,1-8.76,6.175,40.707,40.707,0,0,1-10.7,2.042A41.5,41.5,0,0,0,256.81,176.848Z" transform="translate(-124.975 -154.782)" fill="#263238"/>
      <path id="Path_1487" data-name="Path 1487" d="M236.16,213.793a2.3,2.3,0,0,0,.559,1.118,4.3,4.3,0,0,0,3.055,1.491,6.677,6.677,0,0,0,4.724-1.783,4.222,4.222,0,0,0,1.442-2.731,3.006,3.006,0,0,0-1.54-2.958,2.366,2.366,0,0,0-3.12,1.1,2.01,2.01,0,0,0,.122,1.718,2.52,2.52,0,0,0,1.159,1.11,3.776,3.776,0,0,0,2.8.049,5.065,5.065,0,0,0,2.018-1.3,5.348,5.348,0,0,0,1.5-3.055,2.358,2.358,0,0,0-.073-1.24c-.057,0,0,.446-.178,1.2a5.494,5.494,0,0,1-1.572,2.763,4.627,4.627,0,0,1-1.872,1.11,3.242,3.242,0,0,1-2.358-.073,1.694,1.694,0,0,1-.948-2.026,1.742,1.742,0,0,1,2.245-.754,2.383,2.383,0,0,1,1.167,2.318,3.72,3.72,0,0,1-1.216,2.334,6.345,6.345,0,0,1-4.287,1.75,4.254,4.254,0,0,1-2.885-1.191C236.371,214.19,236.217,213.769,236.16,213.793Z" transform="translate(-121.059 -162.927)" fill="#263238"/>
      <path id="Path_1488" data-name="Path 1488" d="M288.841,392.2c0,.113-29.416.211-65.7.211s-65.7-.1-65.7-.211,29.408-.211,65.7-.211S288.841,392.087,288.841,392.2Z" transform="translate(-106.13 -197.949)" fill="#455a64"/>
    </g>
    <g id="freepik--Plant--inject-5" transform="translate(81.191 283.22)">
      <path id="Path_1489" data-name="Path 1489" d="M106.339,334.2a10.583,10.583,0,0,1,7.018,4.449,18.7,18.7,0,0,1,3.047,7.893c.924,5.43-.527,11.6-2.52,16.734-5.551-2.577-8.533-8.979-9.822-12.39-2.058-5.316-2.545-16.207,2.277-16.685" transform="translate(-94.38 -334.2)" fill="#34b17f"/>
      <path id="Path_1490" data-name="Path 1490" d="M125.76,375.632a9.036,9.036,0,0,1,.413-9.076,12.058,12.058,0,0,1,7.739-5.13,5.068,5.068,0,0,1,4.222.6,3.857,3.857,0,0,1,1.151,3.752,7.763,7.763,0,0,1-1.993,3.549c-3.152,3.477-6.831,6.3-11.531,6.3" transform="translate(-98.582 -339.328)" fill="#34b17f"/>
      <path id="Path_1491" data-name="Path 1491" d="M124.567,394.786a5.671,5.671,0,0,1-.154-1.126c-.081-.81-.186-1.831-.316-3.071a31.677,31.677,0,0,1,.316-10.2,19.449,19.449,0,0,1,4.627-9.052,13.094,13.094,0,0,1,2.382-1.993,7.288,7.288,0,0,1,.729-.43,1.037,1.037,0,0,1,.267-.122,20.894,20.894,0,0,0-3.169,2.739,20.065,20.065,0,0,0-4.449,8.914,34.154,34.154,0,0,0-.421,10.089c.089,1.3.154,2.358.186,3.088A6.792,6.792,0,0,1,124.567,394.786Z" transform="translate(-98.41 -340.759)" fill="#263238"/>
      <path id="Path_1492" data-name="Path 1492" d="M108.59,344.36a3.093,3.093,0,0,1,.186.454c.122.348.284.81.478,1.329.4,1.159.964,2.844,1.621,4.935,1.353,4.173,3.144,9.959,4.984,16.4s3.363,12.309,4.408,16.564c.527,2.131.932,3.857,1.2,5.057.13.567.227,1.021.3,1.378a2.22,2.22,0,0,1,.081.494,3.323,3.323,0,0,1-.154-.47l-.373-1.361c-.324-1.24-.81-2.942-1.329-5.024-1.11-4.238-2.682-10.089-4.514-16.531s-3.59-12.228-4.862-16.426c-.632-2.058-1.143-3.744-1.523-4.967-.162-.551-.292-1-.4-1.353A1.945,1.945,0,0,1,108.59,344.36Z" transform="translate(-95.52 -336.127)" fill="#263238"/>
      <path id="Path_1493" data-name="Path 1493" d="M112.89,382.878a21.159,21.159,0,0,0-15.4-11.677c-1.686-.284-3.752-.186-4.651,1.264s-.049,3.355.989,4.716a18.1,18.1,0,0,0,19.1,6.159" transform="translate(-92.462 -341.192)" fill="#34b17f"/>
      <path id="Path_1494" data-name="Path 1494" d="M101.32,377.12a5.851,5.851,0,0,1,1.053.138,11.65,11.65,0,0,1,1.224.259c.47.138,1.021.235,1.621.454a18.792,18.792,0,0,1,1.888.721,21.062,21.062,0,0,1,2.075,1.013,23.793,23.793,0,0,1,4.295,3.112,23.331,23.331,0,0,1,3.4,4.052,20.088,20.088,0,0,1,1.151,2.018,15.339,15.339,0,0,1,.81,1.84,15.1,15.1,0,0,1,.535,1.572,9.662,9.662,0,0,1,.316,1.207,6.013,6.013,0,0,1,.178,1.053c-.089,0-.357-1.483-1.288-3.728a17.782,17.782,0,0,0-.859-1.8,20.57,20.57,0,0,0-1.159-1.961,22.309,22.309,0,0,0-7.569-7.05,21,21,0,0,0-2.034-1.037c-.64-.316-1.272-.535-1.84-.754C102.811,377.428,101.3,377.209,101.32,377.12Z" transform="translate(-94.142 -342.339)" fill="#263238"/>
    </g>
    <g id="freepik--light-bulb--inject-5" transform="translate(251.832 65.371)">
      <path id="Path_1495" data-name="Path 1495" d="M341.426,73.174a35.972,35.972,0,0,0-35.308,50.461c4.182,9.457,12.285,16.8,15.859,26.523,2.431,6.629,2.642,13.938,5.146,20.543,5.146,13.582,20.859,22.22,35.081,19.295,8.541-1.75,16.207-7.091,24.927-7.634,9.335-.583,19.967,4.165,27.366-1.572,5.17-4.011,6.045-11.71,4.173-17.974s-5.908-11.613-9.222-17.253-6.013-12.155-4.781-18.582c1.11-5.827,5.243-10.535,7.836-15.875a31.807,31.807,0,0,0-30.851-45.656c-7.423.527-14.384,3.622-21.523,5.673s-10.713,2.326-18.7,2.05" transform="translate(-303.035 -65.371)" fill="#f5f5f5"/>
      <path id="Path_1496" data-name="Path 1496" d="M367.62,104.384s-13.736-.138-18.46,11.8.689,17.7,2.8,21.207,7.8,11.143,7.844,18.339l18.452-.122a49.019,49.019,0,0,1,6.483-18.006c5.519-9.19,4.862-15.891,3.355-19.894S381.672,103.793,367.62,104.384Z" transform="translate(-311.425 -72.764)" fill="#f7922f"/>
      <path id="Path_1497" data-name="Path 1497" d="M373.941,159.186l-.049-.292a6.227,6.227,0,0,0-.13-.81c-.113-.762-.267-1.856-.47-3.241-.381-2.828-.948-6.937-1.3-12.042-.089-1.28-.162-2.617-.2-4.052s-.073-2.852,0-4.36a12.26,12.26,0,0,1,1.078-4.554,6.912,6.912,0,0,1,3.509-3.452,4.66,4.66,0,0,1,4.959,1,3.452,3.452,0,0,1,1.037,2.5,4.384,4.384,0,0,1-.956,2.6,5.843,5.843,0,0,1-2.212,1.75,11.425,11.425,0,0,1-2.715.875,32.415,32.415,0,0,1-5.77.616,34.308,34.308,0,0,1-5.786-.332,10.929,10.929,0,0,1-2.739-.81,7.034,7.034,0,0,1-2.285-1.621,5.276,5.276,0,0,1-1.3-2.431,4.125,4.125,0,0,1,.348-2.7,3.744,3.744,0,0,1,1.929-1.84,3.314,3.314,0,0,1,2.593.146,4.984,4.984,0,0,1,1.921,1.669,6.775,6.775,0,0,1,.964,2.2,27.387,27.387,0,0,1,.413,4.652c.13,3.006.251,5.8.357,8.363.211,5.1.373,9.23.494,12.1.049,1.426.089,2.528.122,3.29v.859a5.26,5.26,0,0,0-.049-.81c0-.762-.105-1.872-.178-3.29-.138-2.869-.332-7-.583-12.1-.113-2.553-.251-5.356-.389-8.355a27.266,27.266,0,0,0-.421-4.611,6.484,6.484,0,0,0-.916-2.2,4.635,4.635,0,0,0-1.823-1.572A3.031,3.031,0,0,0,361,126.2a3.444,3.444,0,0,0-1.775,1.71,3.816,3.816,0,0,0-.324,2.52,5.008,5.008,0,0,0,1.24,2.326A8.233,8.233,0,0,0,365,135.143a33.5,33.5,0,0,0,5.729.332,32.356,32.356,0,0,0,5.713-.608,11.345,11.345,0,0,0,2.658-.851,5.77,5.77,0,0,0,2.115-1.621,4.166,4.166,0,0,0,.9-2.431,3.185,3.185,0,0,0-.956-2.318,4.392,4.392,0,0,0-4.668-.94,6.686,6.686,0,0,0-3.387,3.314,12.154,12.154,0,0,0-1.062,4.465,40.7,40.7,0,0,0,0,4.335c.057,1.394.105,2.731.178,4,.332,5.105.875,9.206,1.224,12.05l.413,3.241q.065.543.1.851Q373.954,159.077,373.941,159.186Z" transform="translate(-313.557 -76.83)" fill="#263238"/>
      <path id="Path_1498" data-name="Path 1498" d="M362.73,167.352l18.517-.292.2,11.7-5.381,6.418-7.1.3-6.013-7.18Z" transform="translate(-314.355 -84.655)" fill="#e0e0e0"/>
      <path id="Path_1499" data-name="Path 1499" d="M377.5,189.067a5.016,5.016,0,0,0-3.711-1.507,4.862,4.862,0,0,0-3.509,1.831Z" transform="translate(-315.787 -88.542)" fill="#455a64"/>
      <path id="Path_1500" data-name="Path 1500" d="M381.073,179.753a3.144,3.144,0,0,1-.673-.284c-.421-.2-1.045-.47-1.831-.754a17.974,17.974,0,0,0-12.763.267c-.77.316-1.386.608-1.8.81a5.4,5.4,0,0,1-.656.316,3.183,3.183,0,0,1,.6-.413,14.445,14.445,0,0,1,1.783-.916,17.018,17.018,0,0,1,12.9-.267,15.905,15.905,0,0,1,1.815.81A4.539,4.539,0,0,1,381.073,179.753Z" transform="translate(-314.473 -86.61)" fill="#263238"/>
      <path id="Path_1501" data-name="Path 1501" d="M381.1,176.255a5.378,5.378,0,0,1-.673-.292c-.421-.194-1.045-.47-1.831-.746a18.33,18.33,0,0,0-6.4-1.037,18.137,18.137,0,0,0-6.361,1.3,18.915,18.915,0,0,0-1.8.81,3.146,3.146,0,0,1-.656.316,4.545,4.545,0,0,1,.6-.413,15.878,15.878,0,0,1,1.783-.908,17.018,17.018,0,0,1,12.9-.267,13.5,13.5,0,0,1,1.815.81,3.157,3.157,0,0,1,.624.421Z" transform="translate(-314.479 -85.949)" fill="#263238"/>
      <path id="Path_1502" data-name="Path 1502" d="M380.923,172.914a3.429,3.429,0,0,1-.665-.284c-.429-.2-1.053-.47-1.84-.754a18.257,18.257,0,0,0-6.4-1.037,18.46,18.46,0,0,0-6.353,1.3c-.81.316-1.386.608-1.8.81a4.545,4.545,0,0,1-.664.316,3.11,3.11,0,0,1,.608-.413,14.844,14.844,0,0,1,1.775-.916,17.066,17.066,0,0,1,12.909-.267,15.913,15.913,0,0,1,1.815.81A4.054,4.054,0,0,1,380.923,172.914Z" transform="translate(-314.445 -85.314)" fill="#263238"/>
      <g id="Group_531" data-name="Group 531" transform="translate(37.676 34.96)" opacity="0.2">
        <path id="Path_1503" data-name="Path 1503" d="M358.014,138.2c-.251.284-.891.235-1.815-.243a10.534,10.534,0,0,1-3.241-2.861,16.208,16.208,0,0,1-2.844-5.827,17.147,17.147,0,0,1,3.371-15.4,16.078,16.078,0,0,1,5.016-4.109,10.462,10.462,0,0,1,4.125-1.248c1.029-.049,1.621.17,1.75.535.235.81-1.491,1.9-3.549,3.987a21.823,21.823,0,0,0-3.12,3.922,17.6,17.6,0,0,0-2.237,5.413,17.935,17.935,0,0,0-.235,5.851,22.223,22.223,0,0,0,1.2,4.862C357.439,135.852,358.549,137.586,358.014,138.2Z" transform="translate(-349.528 -108.512)" fill="#fff"/>
      </g>
      <g id="Group_532" data-name="Group 532" transform="translate(46.906 68.329)" opacity="0.2">
        <path id="Path_1504" data-name="Path 1504" d="M366.09,152.559a2.593,2.593,0,1,1-2.545-2.869,2.731,2.731,0,0,1,2.545,2.869Z" transform="translate(-360.918 -149.69)" fill="#fff"/>
      </g>
      <path id="Path_1505" data-name="Path 1505" d="M342.632,107.894a63.22,63.22,0,0,1-5.251-3.793c-2.82-2.172-5.122-3.963-5.081-4.052a56.445,56.445,0,0,1,5.251,3.792C340.371,106.013,342.681,107.829,342.632,107.894Z" transform="translate(-308.585 -71.946)" fill="#263238"/>
      <path id="Path_1506" data-name="Path 1506" d="M348.861,102.17a19.734,19.734,0,0,1-2.2-2.5A20.264,20.264,0,0,1,344.68,97a19.446,19.446,0,0,1,2.2,2.5A19.135,19.135,0,0,1,348.861,102.17Z" transform="translate(-310.932 -71.369)" fill="#263238"/>
      <path id="Path_1507" data-name="Path 1507" d="M359.349,99.17c-.073,0-1.013-2.585-2.1-5.827s-1.9-5.9-1.831-5.924,1.013,2.585,2.1,5.827S359.422,99.146,359.349,99.17Z" transform="translate(-312.968 -69.552)" fill="#263238"/>
      <path id="Path_1508" data-name="Path 1508" d="M372.888,97.76a16.6,16.6,0,0,1-.551-2.95,15.517,15.517,0,0,1-.267-2.99,16.393,16.393,0,0,1,.551,2.95A15.512,15.512,0,0,1,372.888,97.76Z" transform="translate(-316.126 -70.387)" fill="#263238"/>
      <path id="Path_1509" data-name="Path 1509" d="M385.649,100.283c-.081,0,.705-3.1,1.75-6.888s1.961-6.839,2.034-6.815-.713,3.1-1.759,6.888S385.722,100.308,385.649,100.283Z" transform="translate(-318.701 -69.393)" fill="#263238"/>
      <path id="Path_1510" data-name="Path 1510" d="M396.24,107.408a20.336,20.336,0,0,1,1.726-2.885,19.055,19.055,0,0,1,1.961-2.723,20.331,20.331,0,0,1-1.726,2.885,19.059,19.059,0,0,1-1.961,2.723Z" transform="translate(-320.71 -72.279)" fill="#263238"/>
      <path id="Path_1511" data-name="Path 1511" d="M410.466,106.53c.041.065-2.342,1.864-5.332,4.052s-5.446,3.857-5.494,3.793,2.342-1.864,5.332-4.052S410.466,106.465,410.466,106.53Z" transform="translate(-321.355 -73.176)" fill="#263238"/>
    </g>
  </g>
</svg>
