<svg xmlns="http://www.w3.org/2000/svg" width="63.409" height="60" viewBox="0 0 63.409 60">
  <g id="_x35__x2C__Ambulance_x2C__emergency_x2C__medical_x2C__transportation_x2C__vehicle" transform="translate(-23.5 -36)">
    <g id="XMLID_1370_" transform="translate(23.5 36)">
      <g id="XMLID_1371_" transform="translate(0 0)">
        <path id="XMLID_152_" d="M109.182,347.364h1.364a.682.682,0,0,0,0-1.364h-1.364a.682.682,0,0,0,0,1.364Z" transform="translate(-96.909 -303.727)"/>
        <path id="XMLID_1407_" d="M258,67.88h-2.5v-2.5a.682.682,0,0,0-.682-.682H251.63a.682.682,0,0,0-.682.682v2.5h-2.5a.682.682,0,0,0-.682.682v3.184a.682.682,0,0,0,.682.682h2.5v2.5a.682.682,0,0,0,.682.682h3.184a.682.682,0,0,0,.682-.682v-2.5H258a.682.682,0,0,0,.682-.682V68.562A.682.682,0,0,0,258,67.88Zm-.682,3.184h-2.5a.682.682,0,0,0-.682.682v2.5h-1.82v-2.5a.682.682,0,0,0-.682-.682h-2.5v-1.82h2.5a.682.682,0,0,0,.682-.682v-2.5h1.82v2.5a.682.682,0,0,0,.682.682h2.5Z" transform="translate(-217.183 -60.783)"/>
        <path id="XMLID_1393_" d="M86.227,84.955H84.182V55.637a.682.682,0,0,0-.682-.682H64.424a9.448,9.448,0,1,0-9.77,0H33.727a.682.682,0,0,0-.682.682v5.455a.682.682,0,0,0,.682.682h8.182V64.5H33.727a.682.682,0,0,0-.651.479L29.739,75.658l-3.89,2.594a.682.682,0,0,0-.3.567v6.136H24.182a.682.682,0,0,0-.682.682v4.091a.682.682,0,0,0,.682.682h5.455a6.812,6.812,0,0,0,2.732,5.455H29.636a.682.682,0,1,0,0,1.364H84.864a.682.682,0,1,0,0-1.364h-7.5a6.812,6.812,0,0,0,2.732-5.455h6.136a.682.682,0,0,0,.682-.682V85.637A.682.682,0,0,0,86.227,84.955Zm-8.868,0a6.8,6.8,0,0,0-8.173,0H43.273V81.546H82.818v3.409ZM66.592,89.046H43.136a6.791,6.791,0,0,0-1.23-2.727H67.822A6.788,6.788,0,0,0,66.592,89.046Zm16.226-8.864H78.727V56.319h4.091ZM51.455,46.87a8.085,8.085,0,1,1,8.085,8.085A8.094,8.094,0,0,1,51.455,46.87ZM34.409,60.41V56.319H77.364V80.183H43.273V61.092a.682.682,0,0,0-.682-.682Zm-.181,5.455h7.681V75.41H31.246ZM26.909,82.91h4.773a.682.682,0,0,0,0-1.364H26.909V79.184l3.616-2.41H41.909v8.182H40.541a6.8,6.8,0,0,0-8.173,0H26.909Zm-2.045,6.136V86.319H31a6.788,6.788,0,0,0-1.23,2.727ZM31,90.41a5.455,5.455,0,1,1,5.455,5.455A5.461,5.461,0,0,1,31,90.41Zm9.541,5.455a6.812,6.812,0,0,0,2.732-5.455H66.455a6.812,6.812,0,0,0,2.732,5.455Zm32.732,0a5.455,5.455,0,1,1,5.455-5.455A5.461,5.461,0,0,1,73.273,95.864Zm12.273-6.818H79.954a6.791,6.791,0,0,0-1.23-2.727h6.822Z" transform="translate(-23.5 -37.228)"/>
        <path id="XMLID_1390_" d="M101.227,406a2.727,2.727,0,1,0,2.727,2.727A2.73,2.73,0,0,0,101.227,406Zm0,4.091a1.364,1.364,0,1,1,1.364-1.364A1.365,1.365,0,0,1,101.227,410.091Z" transform="translate(-88.273 -355.545)"/>
        <path id="XMLID_1387_" d="M371.227,406a2.727,2.727,0,1,0,2.727,2.727A2.73,2.73,0,0,0,371.227,406Zm0,4.091a1.364,1.364,0,1,1,1.364-1.364A1.365,1.365,0,0,1,371.227,410.091Z" transform="translate(-321.455 -355.545)"/>
        <circle id="XMLID_132_" cx="1.023" cy="1.023" r="1.023" transform="translate(50.455 11.591)"/>
        <circle id="XMLID_131_" cx="1.023" cy="1.023" r="1.023" transform="translate(21.818)"/>
        <circle id="XMLID_130_" cx="1.023" cy="1.023" r="1.023" transform="translate(15.682 10.227)"/>
        <circle id="XMLID_129_" cx="1.023" cy="1.023" r="1.023" transform="translate(2.727 25.227)"/>
        <path id="XMLID_1380_" d="M230.495,206.153a7.466,7.466,0,0,0,1.7,4.1.888.888,0,0,1-.428.16,1.367,1.367,0,0,1-1.014-.586.682.682,0,1,0-1.016.909,2.644,2.644,0,0,0,2.119,1.037,2.328,2.328,0,0,0,1.315-.545,7.465,7.465,0,0,0,4.1,1.7.9.9,0,0,1-.192.417,1.372,1.372,0,0,1-1.127.3.682.682,0,0,0-.076,1.362,2.644,2.644,0,0,0,2.231-.765,2.328,2.328,0,0,0,.544-1.313,7.466,7.466,0,0,0,4.1-1.7.89.89,0,0,1,.16.428,1.366,1.366,0,0,1-.586,1.014.682.682,0,0,0,.909,1.016,2.617,2.617,0,0,0,1.037-2.119,2.328,2.328,0,0,0-.545-1.315,7.465,7.465,0,0,0,1.7-4.1.894.894,0,0,1,.417.192,1.373,1.373,0,0,1,.3,1.127.682.682,0,1,0,1.361.076,2.617,2.617,0,0,0-.765-2.231,2.327,2.327,0,0,0-1.313-.544,7.466,7.466,0,0,0-1.7-4.1.891.891,0,0,1,.428-.16,1.374,1.374,0,0,1,1.014.586.682.682,0,0,0,1.016-.909,2.615,2.615,0,0,0-2.119-1.037,2.328,2.328,0,0,0-1.315.545,7.466,7.466,0,0,0-4.1-1.7.893.893,0,0,1,.192-.417,1.375,1.375,0,0,1,1.127-.3.682.682,0,0,0,.076-1.362,2.613,2.613,0,0,0-2.231.765,2.328,2.328,0,0,0-.544,1.313,7.466,7.466,0,0,0-4.1,1.7.89.89,0,0,1-.16-.428,1.367,1.367,0,0,1,.586-1.014.682.682,0,1,0-.909-1.016,2.616,2.616,0,0,0-1.037,2.119,2.329,2.329,0,0,0,.545,1.315,7.466,7.466,0,0,0-1.7,4.1.9.9,0,0,1-.417-.192,1.373,1.373,0,0,1-.3-1.127.682.682,0,0,0-1.362-.076,2.617,2.617,0,0,0,.765,2.231A2.327,2.327,0,0,0,230.495,206.153Zm7.467-6.829a6.136,6.136,0,1,1-6.136,6.136A6.143,6.143,0,0,1,237.962,199.325Z" transform="translate(-200.468 -174.104)" fill="#0f4c81"/>
        <path id="XMLID_126_" d="M269.1,262.316c.424.029,1.432.257,1.41.645a1.434,1.434,0,0,0,.383,1.057c.789.876,2.631,1.008,2.992,1.026h.034a.682.682,0,0,0,.033-1.363,3.942,3.942,0,0,1-2.046-.577c-.036-.04-.035-.054-.034-.068.083-1.5-1.647-2.015-2.682-2.082a.682.682,0,0,0-.089,1.361Z" transform="translate(-235.057 -230.278)"/>
        <path id="XMLID_125_" d="M298.612,239.349a.7.7,0,0,0,.134.013.682.682,0,0,0,.133-1.351c-.188-.037-.227-.108-.244-.139a1.531,1.531,0,0,1,.066-1,.682.682,0,0,0-1.274-.487,2.833,2.833,0,0,0,.013,2.139A1.643,1.643,0,0,0,298.612,239.349Z" transform="translate(-259.888 -208.687)"/>
        <path id="XMLID_1375_" d="M407.591,59.182a4.091,4.091,0,1,0-4.091-4.091A4.1,4.1,0,0,0,407.591,59.182Zm0-6.818a2.727,2.727,0,1,1-2.727,2.727A2.73,2.73,0,0,1,407.591,52.364Z" transform="translate(-351.682 -48.955)"/>
        <path id="XMLID_1372_" d="M33.273,90.545A4.773,4.773,0,1,0,28.5,85.773,4.778,4.778,0,0,0,33.273,90.545Zm0-8.182a3.409,3.409,0,1,1-3.409,3.409A3.413,3.413,0,0,1,33.273,82.364Z" transform="translate(-27.818 -74.864)"/>
      </g>
    </g>
  </g>
</svg>
