<svg xmlns="http://www.w3.org/2000/svg" width="627.001" height="756" viewBox="0 0 627.001 756">
  <path id="Subtraction_1" data-name="Subtraction 1" d="M3300,2378a384.05,384.05,0,0,1-38.648-1.952,377.435,377.435,0,0,1-337.4-337.4,383.648,383.648,0,0,1,0-77.3,377.435,377.435,0,0,1,337.4-337.4A384.035,384.035,0,0,1,3300,1622c11.787,0,23.682.549,35.354,1.631,11.517,1.068,23.1,2.682,34.436,4.8a375.6,375.6,0,0,1,125.659,47.956A380.243,380.243,0,0,1,3549,1715.595v568.811a377.881,377.881,0,0,1-113.675,68.651,376.3,376.3,0,0,1-65.536,18.515c-11.335,2.115-22.92,3.73-34.436,4.8C3323.683,2377.452,3311.788,2378,3300,2378Z" transform="translate(-2922 -1622)" fill="#b3daff" opacity="0.21"/>
</svg>
