<svg xmlns="http://www.w3.org/2000/svg" width="38" height="38" viewBox="0 0 38 38">
  <g id="Group_538" data-name="Group 538" transform="translate(-76 -558)">
    <circle id="Ellipse_26" data-name="Ellipse 26" cx="19" cy="19" r="19" transform="translate(76 558)" fill="#fff"/>
    <g id="Icons" transform="translate(71.431 552.72)">
      <g id="Group_537" data-name="Group 537">
        <path id="Path_1513" data-name="Path 1513" d="M24,23.624a5.172,5.172,0,1,0-5.172-5.172A5.178,5.178,0,0,0,24,23.624Zm-3.4-5.78a3.469,3.469,0,0,1,.242-.743.35.35,0,0,1,.637.292,2.722,2.722,0,0,0-.193.591.35.35,0,1,1-.686-.141Zm3.752-2.423a.35.35,0,0,1-.35.35,2.764,2.764,0,0,0-1.857.715.35.35,0,0,1-.47-.52,3.466,3.466,0,0,1,2.327-.9A.35.35,0,0,1,24.353,15.421Z" fill="#0f4c81"/>
        <path id="Path_1514" data-name="Path 1514" d="M24,23.939A10.443,10.443,0,0,0,13.569,34.371a.35.35,0,0,0,.35.35H34.081a.35.35,0,0,0,.35-.35A10.444,10.444,0,0,0,24,23.939Z" fill="#0f4c81"/>
      </g>
    </g>
  </g>
</svg>
