<svg xmlns="http://www.w3.org/2000/svg" width="38" height="38" viewBox="0 0 38 38">
  <g id="Group_543" data-name="Group 543" transform="translate(-479 -560)">
    <g id="Group_538" data-name="Group 538" transform="translate(403 2)">
      <circle id="Ellipse_26" data-name="Ellipse 26" cx="19" cy="19" r="19" transform="translate(76 558)" fill="#fff"/>
    </g>
    <path id="iconfinder_share_3017925" d="M18.375,15.75a2.615,2.615,0,0,0-1.806.723L5.121,11.312a2.6,2.6,0,0,0,0-1.627L16.565,4.523a2.623,2.623,0,1,0-.815-1.9c0,.021,0,.043,0,.064L3.717,8.115a2.625,2.625,0,1,0,.006,4.767l12.03,5.424c0,.024,0,.046,0,.07a2.625,2.625,0,1,0,2.625-2.625ZM18.4,1.34A1.313,1.313,0,1,1,17.09,2.652,1.313,1.313,0,0,1,18.4,1.34ZM2.516,11.813A1.313,1.313,0,1,1,3.828,10.5,1.312,1.312,0,0,1,2.516,11.813Zm15.886,7.9A1.313,1.313,0,1,1,19.715,18.4,1.313,1.313,0,0,1,18.4,19.715Z" transform="translate(488 569)" fill="#0d608f"/>
  </g>
</svg>
