<svg xmlns="http://www.w3.org/2000/svg" width="38" height="38" viewBox="0 0 38 38">
  <g id="Group_542" data-name="Group 542" transform="translate(-273 -560)">
    <circle id="Ellipse_26" data-name="Ellipse 26" cx="19" cy="19" r="19" transform="translate(273 560)" fill="#fff"/>
    <g id="iconfinder_technology-machine-electronic-device-30_4026430" transform="translate(251.1 549.8)">
      <path id="Path_1515" data-name="Path 1515" d="M39.813,19.2h-7.99a.922.922,0,0,0-.922.922v4.851h9.835V20.122A.924.924,0,0,0,39.813,19.2Z" transform="translate(0)" fill="#0d608f"/>
      <path id="Path_1516" data-name="Path 1516" d="M30.9,163.83a.922.922,0,0,0,.922.922h3.219v2.053h-.9a.31.31,0,1,0,0,.621h3.357a.31.31,0,1,0,0-.621h-.94v-2.053h3.255a.922.922,0,0,0,.922-.922v-.43H30.9Z" transform="translate(0 -137.806)" fill="#0d608f"/>
      <path id="Path_1517" data-name="Path 1517" d="M259.3,402.43a.9.9,0,0,0,.089.395.923.923,0,0,0,.834.528h3.219v2.053h-.9a.31.31,0,0,0,0,.621h3.357a.31.31,0,0,0,0-.621h-.94v-2.053h3.255a.922.922,0,0,0,.922-.922V402H259.3Z" transform="translate(-218.272 -365.826)" fill="#0d608f"/>
      <path id="Path_1518" data-name="Path 1518" d="M268.213,257.8h-7.99a.922.922,0,0,0-.922.922v4.851h9.835v-4.851A.922.922,0,0,0,268.213,257.8Z" transform="translate(-218.272 -228.02)" fill="#0d608f"/>
      <path id="Path_1519" data-name="Path 1519" d="M269.768,73.649a1.538,1.538,0,0,0,1.2,1.2v4.58h.621v-4.58a1.539,1.539,0,1,0-1.818-1.818H266.7v.621h3.068Z" transform="translate(-225.344 -50.268)" fill="#0d608f"/>
      <path id="Path_1520" data-name="Path 1520" d="M113.515,274.337h-3.068a1.538,1.538,0,0,0-1.2-1.2V268.2h-.621v4.944a1.539,1.539,0,1,0,1.818,1.818h3.122a1.481,1.481,0,0,1-.049-.395v-.231Z" transform="translate(-73.108 -237.959)" fill="#0d608f"/>
    </g>
  </g>
</svg>
